<?xml version="1.0" standalone="no"?>
<!DOCTYPE svg PUBLIC "-//W3C//DTD SVG 1.1//EN" "http://www.w3.org/Graphics/SVG/1.1/DTD/svg11.dtd" >
<svg xmlns="http://www.w3.org/2000/svg" xmlns:xlink="http://www.w3.org/1999/xlink" version="1.1">
<metadata>
Created by FontForge 20170731 at Sat Dec  5 08:55:40 2020
 By Aleksey,,,
Copyright (c) 2012 by Hannes von Doehren. All rights reserved.
</metadata>
<defs>
<font id="PlutoSansRegular" horiz-adv-x="1368" >
  <font-face 
    font-family="Pluto Sans Regular"
    font-weight="400"
    font-stretch="normal"
    units-per-em="2048"
    panose-1="2 0 0 0 0 0 0 0 0 0"
    ascent="1536"
    descent="-512"
    x-height="1071"
    cap-height="1393"
    bbox="-315 -539 2521 1858"
    underline-thickness="102"
    underline-position="-307"
    unicode-range="U+0020-FB02"
  />
<missing-glyph horiz-adv-x="1253" 
d="M102 1475h1049v-1475h-1049v1475zM545 580h98q0 45 20.5 83.5t51.5 63.5t67.5 53t67.5 53.5t51.5 64.5t20.5 85q0 104 -75 174t-208 70q-65 0 -115 -20.5t-79 -51t-47.5 -70t-24.5 -73t-6 -64.5h96q0 82 43.5 136.5t132.5 54.5q83 0 130.5 -44.5t47.5 -111.5
q0 -39 -28 -74.5t-68 -65t-80 -63.5t-68 -85.5t-28 -114.5zM522 397v-145h140v145h-140z" />
    <glyph glyph-name=".notdef" horiz-adv-x="1253" 
d="M102 1475h1049v-1475h-1049v1475zM545 580h98q0 45 20.5 83.5t51.5 63.5t67.5 53t67.5 53.5t51.5 64.5t20.5 85q0 104 -75 174t-208 70q-65 0 -115 -20.5t-79 -51t-47.5 -70t-24.5 -73t-6 -64.5h96q0 82 43.5 136.5t132.5 54.5q83 0 130.5 -44.5t47.5 -111.5
q0 -39 -28 -74.5t-68 -65t-80 -63.5t-68 -85.5t-28 -114.5zM522 397v-145h140v145h-140z" />
    <glyph glyph-name=".null" horiz-adv-x="0" 
 />
    <glyph glyph-name=".null" horiz-adv-x="0" 
 />
    <glyph glyph-name="nonmarkingreturn" horiz-adv-x="682" 
 />
    <glyph glyph-name="space" unicode=" " horiz-adv-x="491" 
 />
    <glyph glyph-name="exclam" unicode="!" horiz-adv-x="585" 
d="M215 436l-31 957h215l-30 -957h-154zM150 119q0 69 37 106t106 37t107 -37t38 -106q0 -70 -38 -107t-107 -37t-106 37t-37 107z" />
    <glyph glyph-name="quotedbl" unicode="&#x22;" horiz-adv-x="917" 
d="M328 1393l-11 -506h-151l-8 506h170zM760 1393l-8 -506h-152l-10 506h170z" />
    <glyph glyph-name="numbersign" unicode="#" horiz-adv-x="1429" 
d="M715 18l76 304h-353l-80 -322h-163v18l75 304h-182v161h223l107 426h-172v162h213l82 322h161v-17l-77 -305h356l82 322h162v-17l-78 -305h199v-162h-238l-107 -426h187v-161h-227l-80 -322h-166v18zM586 909l-107 -426h352l109 426h-354z" />
    <glyph glyph-name="dollar" unicode="$" horiz-adv-x="1265" 
d="M569 -264v244q-130 6 -251.5 42t-192.5 78l51 203q74 -47 178 -83.5t215 -43.5v436l-151 39q-153 39 -234.5 129t-81.5 226q0 160 119 271.5t348 129.5v168h133v-166q124 -6 241.5 -37t195.5 -72l-64 -200q-66 41 -168.5 72t-204.5 40v-415l84 -23q192 -53 284.5 -139
t92.5 -229q0 -173 -126 -285.5t-335 -134.5v-250h-133zM322 1022q0 -68 46.5 -109t141.5 -65l59 -17v379q-123 -13 -185 -64t-62 -124zM942 389q0 69 -60 113.5t-180 75.5v-396q111 15 175.5 70.5t64.5 136.5z" />
    <glyph glyph-name="percent" unicode="%" horiz-adv-x="1777" 
d="M965 340q0 156 103.5 260.5t262.5 104.5q160 0 264.5 -104.5t104.5 -260.5t-104 -258t-265 -102q-159 0 -262.5 102t-103.5 258zM1130 340q0 -87 56.5 -145t144.5 -58q89 0 146 58t57 145q0 88 -57 146.5t-146 58.5t-145 -58t-56 -147zM426 18l725 1375h186v-17
l-725 -1376h-186v18zM78 1049q0 156 103.5 260t262.5 104q160 0 264.5 -104t104.5 -260t-104 -258.5t-265 -102.5q-159 0 -262.5 102.5t-103.5 258.5zM244 1049q0 -87 56 -145t144 -58q89 0 146 58t57 145t-57.5 145.5t-145.5 58.5t-144 -58.5t-56 -145.5z" />
    <glyph glyph-name="ampersand" unicode="&#x26;" horiz-adv-x="1540" 
d="M1296 788l166 -108q-89 -245 -233 -410l260 -239v-31h-281l-135 129q-202 -149 -463 -149q-223 0 -351 104.5t-128 288.5q0 70 23 127.5t67 101.5t96.5 76t122.5 61q-84 82 -126 156t-42 170q0 149 115 248.5t315 99.5q189 0 313 -97.5t124 -246.5q0 -78 -24 -141
t-69 -106.5t-97.5 -73.5t-121.5 -54l-43 -16l303 -279q137 158 209 389zM631 164q160 0 303 98l-356 342q-53 -20 -90.5 -38.5t-72.5 -45t-53 -60.5t-18 -75q0 -100 78.5 -160.5t208.5 -60.5zM479 1053q0 -33 13 -65.5t42.5 -67.5t49 -54.5t59.5 -56.5l105 37
q95 35 138.5 81t43.5 120q0 78 -64 130t-164 52q-109 0 -166 -49t-57 -127z" />
    <glyph glyph-name="quotesingle" unicode="'" horiz-adv-x="483" 
d="M328 1393l-11 -506h-151l-8 506h170z" />
    <glyph glyph-name="parenleft" unicode="(" horiz-adv-x="630" 
d="M551 1393q-42 -60 -80.5 -135.5t-79.5 -183.5t-65.5 -249t-24.5 -290q0 -148 24.5 -288t65.5 -249t79.5 -185.5t80.5 -136.5l-125 -71q-37 37 -76 93t-82.5 144t-77.5 188.5t-56.5 234t-22.5 272.5t22.5 271.5t56 232t78 188t83 144t75.5 93.5z" />
    <glyph glyph-name="parenright" unicode=")" horiz-adv-x="630" 
d="M80 1393l125 73q36 -38 74.5 -93.5t83 -144t78.5 -188t56.5 -232.5t22.5 -271q0 -172 -33 -332.5t-84.5 -276.5t-101 -195t-96.5 -128l-125 71q42 60 81.5 137t79.5 185t64.5 248.5t24.5 288.5q0 149 -24.5 290t-64.5 248.5t-79.5 184t-81.5 135.5z" />
    <glyph glyph-name="asterisk" unicode="*" horiz-adv-x="1017" 
d="M221 698l162 252l-279 68l46 164l284 -90l-10 301h170l-10 -303l284 92l45 -164l-284 -70l166 -248l-131 -92l-158 260l-152 -258z" />
    <glyph glyph-name="plus" unicode="+" horiz-adv-x="1163" 
d="M666 1098v-393h393v-170h-393v-394h-170v394h-394v170h394v393h170z" />
    <glyph glyph-name="comma" unicode="," horiz-adv-x="571" 
d="M156 -301l94 276q-54 10 -82.5 46t-28.5 90q0 71 38 110t106 39q69 0 108 -41t39 -108q0 -93 -51 -235.5t-100 -225.5z" />
    <glyph glyph-name="hyphen" unicode="-" horiz-adv-x="1103" 
d="M158 705h788v-170h-788v170z" />
    <glyph glyph-name="period" unicode="." horiz-adv-x="571" 
d="M141 119q0 69 37.5 106t106.5 37t107 -37t38 -106q0 -70 -38 -107t-107 -37t-106.5 37t-37.5 107z" />
    <glyph glyph-name="slash" unicode="/" horiz-adv-x="1040" 
d="M63 18l728 1375h186v-17l-725 -1376h-189v18z" />
    <glyph glyph-name="zero" unicode="0" horiz-adv-x="1454" 
d="M129 694q0 163 36 293.5t108.5 226t187 147.5t264.5 52q152 0 267.5 -52t188.5 -147.5t109.5 -226t36.5 -293.5q0 -216 -63.5 -374t-200.5 -249t-338 -91q-150 0 -264.5 51.5t-187 147t-108.5 225t-36 290.5zM336 694q0 -113 20.5 -203.5t65 -163t121.5 -112t182 -39.5
q107 0 185.5 39.5t123 112t65.5 163t21 203.5q0 91 -12.5 167.5t-42 143t-74 113t-112.5 73t-154 26.5q-105 0 -182 -40t-121.5 -112.5t-65 -164.5t-20.5 -206z" />
    <glyph glyph-name="one" unicode="1" horiz-adv-x="999" 
d="M35 1090l598 303h160v-1393h-213v1151l-465 -223z" />
    <glyph glyph-name="two" unicode="2" horiz-adv-x="1306" 
d="M475 186h717v-186h-1051v162l568 428q119 90 172 173.5t53 184.5q0 117 -75 193t-218 76q-162 0 -247 -88.5t-87 -235.5l-194 35q5 223 144 354t388 131q125 0 223.5 -36.5t159 -99.5t92 -142.5t31.5 -169.5q0 -143 -61.5 -257.5t-219.5 -230.5z" />
    <glyph glyph-name="three" unicode="3" horiz-adv-x="1294" 
d="M295 623v188h336q131 0 202.5 59t71.5 148q0 101 -88 156t-231 55q-120 0 -234 -29.5t-180 -62.5l-53 182q80 36 207.5 65t255.5 29q258 0 399 -97t141 -278q0 -114 -64.5 -201t-176.5 -110q147 -39 218.5 -123.5t71.5 -224.5q0 -185 -156 -292t-433 -107q-223 0 -463 90
l53 180q199 -88 410 -88q163 0 266.5 66.5t103.5 181.5q0 104 -81.5 158.5t-239.5 54.5h-336z" />
    <glyph glyph-name="four" unicode="4" horiz-adv-x="1402" 
d="M1323 289h-270v-289h-213v289h-777v139l750 965h240v-926h270v-178zM295 467h545v690z" />
    <glyph glyph-name="five" unicode="5" horiz-adv-x="1286" 
d="M186 680l-10 10l60 703h888v-187h-710l-29 -366h211q132 0 235.5 -22.5t180 -69t117 -122.5t40.5 -177q0 -96 -30 -174.5t-83.5 -132.5t-128 -91t-162 -54t-187.5 -17q-253 0 -482 96l58 178q190 -92 413 -92q78 0 145 16t121.5 48.5t85.5 88t31 129.5q0 236 -366 236
h-398z" />
    <glyph glyph-name="six" unicode="6" horiz-adv-x="1409" 
d="M782 1231q-142 0 -240.5 -63t-147 -171.5t-54.5 -257.5q179 189 446 189q241 0 375.5 -120.5t134.5 -334.5q0 -220 -152 -356.5t-388 -136.5q-297 0 -464 195t-167 523q0 324 168 519.5t467 195.5q149 0 277.5 -37.5t199.5 -83.5l-66 -174q-65 45 -168.5 79t-220.5 34z
M756 752q-228 0 -404 -203q30 -173 133 -273t271 -100q145 0 237 85t92 212q0 137 -90 208t-239 71z" />
    <glyph glyph-name="seven" unicode="7" horiz-adv-x="1124" 
d="M248 20l592 1186h-779v187h1018v-154l-596 -1239h-235v20z" />
    <glyph glyph-name="eight" unicode="8" horiz-adv-x="1404" 
d="M702 -20q-269 0 -423 107t-154 292q0 291 324 348q-128 20 -202.5 108t-74.5 203q0 180 139 277.5t391 97.5q251 0 390 -97.5t139 -277.5q0 -115 -73.5 -203t-201.5 -108q324 -57 324 -348q0 -185 -154.5 -292t-423.5 -107zM705 623q-182 0 -273.5 -60.5t-91.5 -161.5
q0 -111 100.5 -175t261.5 -64t262 64t101 175q0 102 -89.5 162t-270.5 60zM702 1235q-147 0 -232 -52.5t-85 -154.5q0 -91 78.5 -149t241.5 -58q160 0 237.5 58t77.5 149q0 101 -86 154t-232 53z" />
    <glyph glyph-name="nine" unicode="9" horiz-adv-x="1409" 
d="M238 274q65 -44 168 -78t219 -34q211 0 322 131t120 358q-176 -186 -442 -186q-243 0 -378.5 120.5t-135.5 334.5q0 220 153 356.5t389 136.5q298 0 463.5 -195t165.5 -524q0 -213 -72.5 -373t-216.5 -250.5t-344 -90.5q-150 0 -278.5 37.5t-198.5 82.5zM653 639
q71 0 137.5 20.5t117.5 54.5t86 66t63 66q-32 172 -134.5 271.5t-269.5 99.5q-145 0 -237 -85t-92 -212q0 -138 89.5 -209.5t239.5 -71.5z" />
    <glyph glyph-name="colon" unicode=":" horiz-adv-x="598" 
d="M156 958q0 68 37 105t104 37q68 0 105.5 -37.5t37.5 -104.5q0 -68 -37.5 -104.5t-105.5 -36.5t-104.5 36t-36.5 105zM156 115q0 67 37 104t104 37q68 0 105.5 -37t37.5 -104q0 -69 -37.5 -105.5t-105.5 -36.5t-104.5 36.5t-36.5 105.5z" />
    <glyph glyph-name="semicolon" unicode=";" horiz-adv-x="614" 
d="M182 -297l92 270q-54 10 -81 45t-27 88q0 71 37 109.5t104 38.5q68 0 106 -41t38 -107q0 -92 -49.5 -231t-98.5 -221zM158 958q0 68 37 105t104 37q68 0 105.5 -37.5t37.5 -104.5q0 -68 -37.5 -104.5t-105.5 -36.5t-104.5 36t-36.5 105z" />
    <glyph glyph-name="less" unicode="&#x3c;" horiz-adv-x="1196" 
d="M92 532v168l938 406h19v-166l-785 -322l785 -317v-168h-19z" />
    <glyph glyph-name="equal" unicode="=" horiz-adv-x="1290" 
d="M166 418h956v-170h-956v170zM166 991h956v-170h-956v170z" />
    <glyph glyph-name="greater" unicode="&#x3e;" horiz-adv-x="1196" 
d="M1104 700v-168l-938 -399h-16v168l782 317l-782 322v166h16z" />
    <glyph glyph-name="question" unicode="?" horiz-adv-x="983" 
d="M522 436h-180q-2 5 -7.5 20t-8 23t-5 22.5t-2.5 30.5q0 54 27.5 101t87.5 98l113 96q58 50 87.5 98t29.5 117q0 88 -60.5 140.5t-154.5 52.5q-97 0 -178 -43t-128 -105l-65 164q146 162 401 162q180 0 289 -99.5t109 -258.5q0 -44 -6 -80.5t-22.5 -69t-28 -52.5
t-40.5 -48.5t-40 -38t-46 -39.5l-121 -104q-38 -32 -50.5 -53t-12.5 -58q0 -36 12 -76zM289 119q0 69 37 106t106 37t107.5 -37t38.5 -106q0 -70 -38 -107t-108 -37q-69 0 -106 37t-37 107z" />
    <glyph glyph-name="at" unicode="@" horiz-adv-x="2031" 
d="M1462 1006v-723q0 -58 18 -85.5t72 -27.5q33 0 66.5 17t66 55t57.5 92.5t40.5 137t15.5 181.5q0 145 -54.5 269t-152.5 213t-241 139.5t-314 50.5q-228 0 -404.5 -99t-274 -278t-97.5 -409q0 -171 57 -317.5t158 -250t246 -162.5t315 -59q202 0 371 82l55 -135
q-196 -94 -426 -94q-198 0 -371 71t-295.5 195t-193 297.5t-70.5 372.5q0 267 120 480.5t332.5 333.5t477.5 120q201 0 371.5 -61t289.5 -169t186 -260t67 -330q0 -157 -36.5 -279t-101.5 -198t-150.5 -114.5t-186.5 -38.5q-86 0 -133.5 31.5t-71.5 95.5
q-112 -125 -316 -125q-205 0 -331.5 138.5t-126.5 356.5q0 221 126.5 361.5t331.5 140.5q196 0 301 -115v99h207zM1255 307v430q-40 44 -107 74.5t-140 30.5q-138 0 -220.5 -89t-82.5 -233q0 -142 82.5 -229.5t220.5 -87.5q73 0 138 29t109 75z" />
    <glyph glyph-name="A" unicode="A" horiz-adv-x="1460" 
d="M35 0l577 1393h248l553 -1393h-217l-123 307h-694l-127 -307h-217zM735 1180l-299 -711h582z" />
    <glyph glyph-name="B" unicode="B" horiz-adv-x="1433" 
d="M205 0v1393h538q226 0 350 -91t124 -274q0 -112 -62.5 -189.5t-171.5 -113.5q344 -60 344 -356q0 -172 -126 -270.5t-363 -98.5h-633zM418 184h391q291 0 291 209q0 223 -326 223h-356v-432zM418 805h287q137 0 213.5 49t76.5 150q0 109 -71.5 156.5t-208.5 47.5h-297
v-403z" />
    <glyph glyph-name="C" unicode="C" horiz-adv-x="1482" 
d="M334 696q0 -221 143 -369.5t363 -148.5q262 0 442 166l102 -151q-213 -213 -544 -213q-204 0 -370 93.5t-260.5 257.5t-94.5 365q0 151 55.5 284t151.5 228t230.5 150t287.5 55q331 0 544 -213l-102 -151q-179 165 -442 165q-220 0 -363 -148.5t-143 -369.5z" />
    <glyph glyph-name="D" unicode="D" horiz-adv-x="1611" 
d="M205 0v1393h567q155 -1 286 -47t227.5 -132.5t151 -220t54.5 -299.5q0 -165 -54.5 -297.5t-151 -218.5t-227.5 -132t-286 -46h-567zM764 1206h-346v-1020h346q228 0 368 133.5t140 374.5q0 243 -139.5 376.5t-368.5 135.5z" />
    <glyph glyph-name="E" unicode="E" horiz-adv-x="1402" 
d="M1286 0h-1081v1393h1081v-189h-876v-391h727v-188h-727v-437h876v-188z" />
    <glyph glyph-name="F" unicode="F" horiz-adv-x="1327" 
d="M1135 535h-725v-535h-205v1393h1040v-189h-835v-481h725v-188z" />
    <glyph glyph-name="G" unicode="G" horiz-adv-x="1581" 
d="M1444 780v-616q-100 -77 -265 -130.5t-321 -53.5q-155 0 -290 49t-235 139t-158 226t-58 300q0 166 58 303t158 227t235 139.5t290 49.5q305 0 533 -192l-103 -164q-181 157 -426 157q-149 0 -267 -60t-188.5 -179.5t-70.5 -280.5q0 -159 70.5 -277.5t191 -178.5
t272.5 -60q100 0 195.5 27t165.5 71v318h-432v186h645z" />
    <glyph glyph-name="H" unicode="H" horiz-adv-x="1699" 
d="M1282 0v608h-864v-608h-213v1393h213v-598h864v598h213v-1393h-213z" />
    <glyph glyph-name="I" unicode="I" horiz-adv-x="624" 
d="M205 0v1393h213v-1393h-213z" />
    <glyph glyph-name="J" unicode="J" horiz-adv-x="1331" 
d="M928 1393h215v-852q0 -255 -142 -409.5t-405 -154.5q-259 0 -393 144t-150 401l211 21q13 -178 92 -272.5t242 -94.5q166 0 248 99.5t82 279.5v838z" />
    <glyph glyph-name="K" unicode="K" horiz-adv-x="1415" 
d="M205 0v1393h213v-613h174l514 613h221v-33l-553 -674l610 -655v-31h-254l-540 592h-172v-592h-213z" />
    <glyph glyph-name="L" unicode="L" horiz-adv-x="1220" 
d="M1180 0h-975v1393h213v-1207h762v-186z" />
    <glyph glyph-name="M" unicode="M" horiz-adv-x="1931" 
d="M1511 0v1055l-526 -635h-41l-526 635v-1055h-213v1393h194l566 -682l567 682h192v-1393h-213z" />
    <glyph glyph-name="N" unicode="N" horiz-adv-x="1697" 
d="M1305 0l-887 1053v-1053h-213v1393h188l885 -1057v1057h213v-1393h-186z" />
    <glyph glyph-name="O" unicode="O" horiz-adv-x="1665" 
d="M117 694q0 203 93 368t256.5 258t364.5 93q152 0 285.5 -55t228.5 -150t150 -228.5t55 -285.5q0 -201 -93 -364.5t-258 -256.5t-368 -93q-201 0 -364.5 93t-256.5 256.5t-93 364.5zM326 694q0 -221 143 -367.5t362 -146.5q221 0 364.5 146.5t143.5 367.5q0 224 -143 370
t-365 146q-219 0 -362 -146.5t-143 -369.5z" />
    <glyph glyph-name="P" unicode="P" horiz-adv-x="1415" 
d="M205 0v1393h633q81 0 153.5 -19t135.5 -59t108.5 -97.5t71.5 -140.5t26 -182q0 -112 -40 -205.5t-108 -155t-157.5 -95t-189.5 -33.5h-420v-406h-213zM805 1206h-387v-614h387q131 0 219 82.5t88 220.5q0 149 -86.5 230t-220.5 81z" />
    <glyph glyph-name="Q" unicode="Q" horiz-adv-x="1662" 
d="M1681 -154l27 -176q-115 -39 -256 -39q-94 0 -182.5 31.5t-155 79t-120 95.5t-98.5 90t-69 53q-200 1 -362.5 93.5t-255 256t-92.5 364.5q0 203 93 368t256.5 258t364.5 93q152 0 285.5 -55t228.5 -150t150 -228.5t55 -285.5q0 -241 -134 -422.5t-353 -248.5
q11 -9 42.5 -36.5t49 -41.5t49.5 -38t58 -37t60 -28t70 -21.5t74 -6.5q135 0 215 32zM324 694q0 -220 144 -367t363 -147q220 0 363 146.5t143 367.5q0 223 -142.5 369.5t-363.5 146.5q-220 0 -363.5 -146.5t-143.5 -369.5z" />
    <glyph glyph-name="R" unicode="R" horiz-adv-x="1478" 
d="M205 0v1393h606q158 0 273 -46.5t182 -148t67 -252.5q0 -175 -112 -291.5t-285 -138.5l487 -481v-35h-245l-506 512h-254v-512h-213zM834 1206h-416v-524h416q121 0 199.5 69.5t78.5 190.5q0 128 -77.5 196t-200.5 68z" />
    <glyph glyph-name="S" unicode="S" horiz-adv-x="1288" 
d="M125 100l51 205q84 -52 200.5 -90.5t241.5 -38.5q155 0 249 57t94 158q0 73 -57 118.5t-185 76.5l-250 61q-173 41 -260.5 133t-87.5 230q0 84 33 155.5t97 127t169 87t239 31.5q137 0 269.5 -32.5t218.5 -78.5l-62 -196q-76 46 -198.5 78t-235.5 32q-155 0 -232 -51.5
t-77 -134.5q0 -69 46.5 -110t146.5 -68l270 -70q190 -51 283.5 -139.5t93.5 -232.5q0 -192 -159 -310t-409 -118q-138 0 -274.5 37.5t-214.5 82.5z" />
    <glyph glyph-name="T" unicode="T" horiz-adv-x="1284" 
d="M1235 1204h-475v-1204h-213v1204h-500v189h1188v-189z" />
    <glyph glyph-name="U" unicode="U" horiz-adv-x="1603" 
d="M399 1393v-803q0 -193 100.5 -303.5t299.5 -110.5q200 0 302.5 114t102.5 302v801h213v-818q0 -122 -40 -229.5t-115.5 -190t-194.5 -130.5t-268 -48q-294 0 -453.5 164.5t-159.5 433.5v818h213z" />
    <glyph glyph-name="V" unicode="V" horiz-adv-x="1476" 
d="M600 0l-553 1393h232l454 -1200l475 1200h232l-576 -1393h-264z" />
    <glyph glyph-name="W" unicode="W" horiz-adv-x="2236" 
d="M1395 0l-273 674l-293 -674h-229l-553 1393h229l457 -1153l295 686l-182 467h231l430 -1121l463 1121h232l-578 -1393h-229z" />
    <glyph glyph-name="X" unicode="X" horiz-adv-x="1454" 
d="M1399 1393v-17l-522 -682l522 -676v-18h-246l-426 553l-424 -553h-248v18l520 676l-520 682v17h246l426 -557l428 557h244z" />
    <glyph glyph-name="Y" unicode="Y" horiz-adv-x="1413" 
d="M600 0v569l-563 807v17h237l433 -627l432 627h237v-17l-563 -805v-571h-213z" />
    <glyph glyph-name="Z" unicode="Z" horiz-adv-x="1275" 
d="M111 154l782 1052h-782v187h1054v-154l-778 -1053h778v-186h-1054v154z" />
    <glyph glyph-name="bracketleft" unicode="[" horiz-adv-x="716" 
d="M629 -385h-445v1839h445v-170h-273v-1499h273v-170z" />
    <glyph glyph-name="backslash" unicode="\" horiz-adv-x="1040" 
d="M250 1393l727 -1375v-18h-189l-725 1376v17h187z" />
    <glyph glyph-name="bracketright" unicode="]" horiz-adv-x="714" 
d="M88 1454h442v-1839h-442v170h272v1499h-272v170z" />
    <glyph glyph-name="asciicircum" unicode="^" horiz-adv-x="1159" 
d="M496 1393h161l383 -564v-18h-198l-264 414l-263 -414h-194v18z" />
    <glyph glyph-name="underscore" unicode="_" horiz-adv-x="1339" 
d="M158 -74h1024v-172h-1024v172z" />
    <glyph glyph-name="grave" unicode="`" horiz-adv-x="1228" 
d="M635 1221l-197 297h215l166 -297h-184z" />
    <glyph glyph-name="a" unicode="a" horiz-adv-x="1189" 
d="M233 831l-38 185q78 33 184 53.5t207 20.5q111 0 195.5 -31t135.5 -87.5t76 -129t25 -160.5v-682h-213v117q-145 -137 -342 -137q-171 0 -268 86t-97 235q0 186 136.5 282.5t367.5 96.5q100 0 203 -21v13q0 119 -58.5 177t-177.5 58q-84 0 -175 -21t-161 -55zM311 324
q0 -86 58 -130t159 -44q156 0 277 108v248q-74 18 -160 18q-149 0 -241.5 -50t-92.5 -150z" />
    <glyph glyph-name="b" unicode="b" 
d="M1253 537q0 -245 -142.5 -401t-371.5 -156q-211 0 -344 147v-127h-213v1454h213v-506q63 64 151 103t193 39q229 0 371.5 -154.5t142.5 -398.5zM1036 537q0 164 -96.5 265t-255.5 101q-84 0 -161.5 -36.5t-127.5 -90.5v-489q48 -50 125.5 -85.5t163.5 -35.5
q159 0 255.5 103t96.5 268z" />
    <glyph glyph-name="c" unicode="c" horiz-adv-x="1185" 
d="M113 537q0 160 72 288t203.5 201.5t297.5 73.5q240 0 404 -148l-107 -157q-117 108 -289 108q-162 0 -263 -102.5t-101 -263.5t101 -265t263 -104q172 0 289 108l107 -157q-164 -148 -404 -148q-251 0 -412 161t-161 405z" />
    <glyph glyph-name="d" unicode="d" 
d="M115 537q0 245 142 399t372 154q103 0 191 -38.5t151 -101.5v504h213v-1454h-213v125q-134 -145 -342 -145q-230 0 -372 156t-142 401zM332 537q0 -165 96.5 -268t255.5 -103q84 0 160.5 35.5t126.5 85.5v491q-50 52 -127.5 88.5t-159.5 36.5q-159 0 -255.5 -101
t-96.5 -265z" />
    <glyph glyph-name="e" unicode="e" horiz-adv-x="1269" 
d="M1055 270l84 -153q-180 -146 -445 -146q-147 0 -260 43.5t-181.5 121t-103 177.5t-34.5 219q0 158 67.5 286.5t196.5 205t297 76.5q119 0 211.5 -35t149.5 -96.5t86.5 -141.5t29.5 -174q0 -113 -23 -188h-796q16 -146 107 -229.5t259 -83.5q196 0 355 118zM944 631
q4 32 4 57q0 100 -69.5 167t-206.5 67q-144 0 -232.5 -83.5t-101.5 -207.5h606z" />
    <glyph glyph-name="f" unicode="f" horiz-adv-x="944" 
d="M872 844h-362v-844h-213v844h-211v170h211v88q0 80 20.5 146t62 117.5t110.5 80.5t159 29q82 0 154.5 -25t120.5 -59l-54 -181q-93 76 -198 76q-162 0 -162 -184v-88h362v-170z" />
    <glyph glyph-name="g" unicode="g" 
d="M117 573q0 142 63 259.5t181 187.5t268 70q207 0 342 -146v127h213v-956q0 -125 -41.5 -225.5t-113 -164t-164.5 -97.5t-199 -34q-34 0 -66.5 2.5t-62.5 8t-54 10t-51.5 14.5t-43 15t-40.5 17t-33 15.5t-30.5 15.5t-24.5 13l47 184q177 -112 359 -112q62 0 116 17.5
t97 52t67.5 92.5t24.5 133v135q-63 -65 -151 -105.5t-191 -40.5q-150 0 -268 69.5t-181 186t-63 256.5zM334 573q0 -141 96.5 -233t255.5 -92q83 0 159 35t126 86v409q-47 52 -124 88.5t-161 36.5q-158 0 -255 -94t-97 -236z" />
    <glyph glyph-name="h" unicode="h" 
d="M182 1454h213v-545q62 86 159.5 133.5t223.5 47.5q106 0 187.5 -36.5t131 -101.5t74.5 -149.5t25 -186.5v-616h-213v584q0 143 -68 226t-204 83q-119 0 -201.5 -67t-114.5 -164v-662h-213v1454z" />
    <glyph glyph-name="i" unicode="i" horiz-adv-x="579" 
d="M160 1376q0 115 131 115q127 0 127 -115q0 -116 -127 -116q-131 0 -131 116zM182 0v1071h213v-1071h-213z" />
    <glyph glyph-name="j" unicode="j" horiz-adv-x="579" 
d="M182 1071h213v-1001q0 -327 -289 -473l-124 141q98 56 149 129.5t51 195.5v1008zM162 1376q0 115 129 115q127 0 127 -115q0 -116 -127 -116q-129 0 -129 116z" />
    <glyph glyph-name="k" unicode="k" horiz-adv-x="1212" 
d="M1122 1071v-35l-512 -471l547 -530v-35h-256l-506 510v-510h-213v1454h213v-844l488 461h239z" />
    <glyph glyph-name="l" unicode="l" horiz-adv-x="675" 
d="M186 1454h213v-1159q0 -66 28 -99.5t79 -33.5q62 0 125 37l16 -170q-100 -49 -219 -49q-242 0 -242 266v1208z" />
    <glyph glyph-name="m" unicode="m" horiz-adv-x="2123" 
d="M182 1071h213v-162q131 183 373 183q276 0 371 -218q59 95 163 155.5t244 60.5q105 0 185 -36t128 -101.5t71.5 -150t23.5 -186.5v-616h-213v584q0 144 -64.5 226.5t-199.5 82.5q-118 0 -194 -62.5t-105 -158.5v-672h-213v586q0 143 -64.5 225t-200.5 82q-119 0 -196 -63
t-109 -160v-670h-213v1071z" />
    <glyph glyph-name="n" unicode="n" 
d="M182 1071h213v-166q62 87 159.5 136t223.5 49q106 0 187.5 -36.5t131 -101.5t74.5 -149.5t25 -186.5v-616h-213v584q0 143 -68 226t-204 83q-119 0 -201.5 -67t-114.5 -164v-662h-213v1071z" />
    <glyph glyph-name="o" unicode="o" horiz-adv-x="1370" 
d="M113 532q0 245 161.5 406.5t409.5 161.5q124 0 231 -43t182 -118.5t117.5 -180.5t42.5 -226q0 -159 -72.5 -287t-204 -201t-296.5 -73q-248 0 -409.5 159.5t-161.5 401.5zM319 532q0 -157 102 -260.5t263 -103.5q163 0 266 103.5t103 260.5q0 160 -103 265.5t-266 105.5
q-161 0 -263 -105.5t-102 -265.5z" />
    <glyph glyph-name="p" unicode="p" horiz-adv-x="1363" 
d="M1249 532q0 -243 -141.5 -397.5t-370.5 -154.5q-205 0 -342 137v-502h-213v1456h213v-127q135 146 342 146q229 0 370.5 -156t141.5 -402zM1034 532q0 166 -96 268.5t-256 102.5q-87 0 -165.5 -37t-121.5 -88v-491q48 -51 125.5 -86t161.5 -35q159 0 255.5 101t96.5 265z
" />
    <glyph glyph-name="q" unicode="q" horiz-adv-x="1366" 
d="M117 532q0 246 141.5 402t370.5 156q203 0 340 -144v125h213v-1456h-213v500q-62 -61 -150 -98t-190 -37q-229 0 -370.5 154.5t-141.5 397.5zM332 532q0 -164 96.5 -265t255.5 -101q82 0 158.5 34.5t126.5 84.5v495q-48 51 -124 87t-161 36q-160 0 -256 -102.5
t-96 -268.5z" />
    <glyph glyph-name="r" unicode="r" horiz-adv-x="962" 
d="M182 0v1071h213v-211q111 230 307 230q127 0 228 -78l-84 -176q-78 57 -176 57q-99 0 -170.5 -68.5t-104.5 -175.5v-649h-213z" />
    <glyph glyph-name="s" unicode="s" horiz-adv-x="1089" 
d="M944 1012l-57 -185q-72 36 -162 59t-174 23q-101 0 -155 -35.5t-54 -103.5q0 -52 31.5 -73.5t124.5 -45.5l176 -43q161 -38 234 -110.5t73 -188.5q0 -149 -121 -239t-323 -90q-226 0 -406 92l41 184q183 -98 356 -98q108 0 173 36t65 101q0 47 -43 77.5t-129 51.5
l-168 41q-156 37 -225.5 104t-69.5 185q0 154 114 245t322 91q98 0 204.5 -23.5t172.5 -54.5z" />
    <glyph glyph-name="t" unicode="t" horiz-adv-x="1017" 
d="M303 1343h189v-272h417v-168h-417v-532q0 -205 172 -205q59 0 124.5 24t112.5 58l70 -166q-166 -102 -371 -102q-151 0 -236 90t-85 260v573h-201v168h201z" />
    <glyph glyph-name="u" unicode="u" 
d="M1184 0h-213v166q-62 -87 -158.5 -135.5t-222.5 -48.5q-106 0 -188 36t-132 101t-75 149.5t-25 186.5v616h213v-584q0 -143 68.5 -226t207.5 -83q117 0 199.5 68t112.5 164v661h213v-1071z" />
    <glyph glyph-name="v" unicode="v" horiz-adv-x="1261" 
d="M973 1071h227l-436 -1071h-266l-437 1071h228l342 -874z" />
    <glyph glyph-name="w" unicode="w" horiz-adv-x="2054" 
d="M1765 1071h230l-406 -1071h-262l-299 856l-309 -856h-262l-391 1071h229l299 -874l309 874h254l295 -874z" />
    <glyph glyph-name="x" unicode="x" horiz-adv-x="1216" 
d="M1143 1071v-16l-387 -523l387 -514v-18h-234l-301 408l-299 -408h-235v18l385 514l-385 523v16h231l303 -414l305 414h230z" />
    <glyph glyph-name="y" unicode="y" horiz-adv-x="1261" 
d="M973 1071h215l-467 -1114q-38 -94 -75.5 -158t-87 -112t-112.5 -70.5t-145 -22.5q-134 0 -246 74l35 174q104 -65 211 -65q81 0 127.5 40.5t85.5 131.5l29 69l-502 1053h235l361 -838z" />
    <glyph glyph-name="z" unicode="z" horiz-adv-x="1095" 
d="M115 154l598 747h-598v170h866v-153l-596 -748h596v-170h-866v154z" />
    <glyph glyph-name="braceleft" unicode="{" horiz-adv-x="671" 
d="M565 1454v-154h-71q-68 0 -105 -37t-37 -92q0 -49 29 -130t58.5 -169t29.5 -155q0 -81 -38.5 -126.5t-123.5 -62.5q86 -17 124 -62.5t38 -129.5q0 -52 -18.5 -118.5t-40 -119.5t-40 -113t-18.5 -100q0 -57 37 -94t105 -37h71v-153h-92q-148 0 -219.5 65.5t-71.5 179.5
q0 63 29 148t58.5 172.5t29.5 157.5q0 74 -49 107.5t-158 33.5v131q107 0 157 36.5t50 110.5q0 55 -18.5 122t-40 120t-40 117.5t-18.5 114.5q0 109 72 173t219 64h92z" />
    <glyph glyph-name="bar" unicode="|" horiz-adv-x="540" 
d="M184 -385v1839h172v-1839h-172z" />
    <glyph glyph-name="braceright" unicode="}" horiz-adv-x="671" 
d="M106 1454h93q146 0 219.5 -64.5t73.5 -172.5q0 -50 -18.5 -114.5t-41 -117.5t-41 -120t-18.5 -122q0 -75 49 -111t158 -36v-131q-110 0 -158.5 -33.5t-48.5 -107.5q0 -55 18.5 -123t41 -121t41 -118t18.5 -116q0 -113 -73 -179t-220 -66h-93v153h72q68 0 106 37t38 94
q0 40 -18.5 100t-41 113t-41 119.5t-18.5 118.5q0 84 38.5 129.5t125.5 62.5q-87 17 -125.5 62.5t-38.5 126.5q0 53 18.5 120.5t41 120.5t41 113t18.5 100q0 55 -38 92t-106 37h-72v154z" />
    <glyph glyph-name="asciitilde" unicode="~" horiz-adv-x="1077" 
d="M864 741l78 -96q-22 -87 -82 -139.5t-141 -52.5q-49 0 -99 25.5t-85.5 56t-82 56t-90.5 25.5q-51 0 -92.5 -34t-58.5 -95l-76 103q18 77 77.5 130.5t141.5 53.5q52 0 105.5 -25.5t90 -55.5t81.5 -55.5t82 -25.5q106 0 151 129z" />
    <glyph glyph-name="uni00A0" unicode="&#xa0;" horiz-adv-x="491" 
 />
    <glyph glyph-name="exclamdown" unicode="&#xa1;" horiz-adv-x="555" 
d="M354 639l31 -956h-215l31 956h153zM420 956q0 -69 -37.5 -107t-106.5 -38t-107 38t-38 107t38 106.5t107 37.5t106.5 -37.5t37.5 -106.5z" />
    <glyph glyph-name="cent" unicode="&#xa2;" horiz-adv-x="1239" 
d="M113 537q0 160 72 288t203.5 201.5t297.5 73.5q24 0 78 -4l61 221l129 -35l-59 -217q110 -37 195 -113l-107 -157q-63 59 -141 84l-197 -709q16 -2 49 -2q172 0 289 108l107 -157q-164 -148 -404 -148q-48 0 -94 6l-70 -256l-129 35l70 254q-162 60 -256 201.5t-94 325.5
zM330 537q0 -112 50 -198.5t138 -131.5l193 696h-17q-162 0 -263 -102.5t-101 -263.5z" />
    <glyph glyph-name="sterling" unicode="&#xa3;" horiz-adv-x="1298" 
d="M975 643h-414q39 -226 29 -332q19 -11 76 -54t105 -69t87 -26q90 0 124.5 71.5t31.5 215.5h170q13 -217 -57.5 -343t-229.5 -126q-46 0 -98.5 22t-88 47.5t-87.5 66t-76 56.5q-38 -93 -95 -142.5t-155 -49.5q-94 0 -145.5 57t-51.5 149q0 90 57.5 146.5t149.5 56.5
q61 0 105 -22q2 90 -47 276h-203v135h172q-27 125 -27 234q0 178 107 289.5t313 111.5q69 0 137.5 -18t121.5 -47t90.5 -55t62.5 -50l-70 -180q-68 68 -107 94q-90 60 -196 60q-120 0 -183 -69.5t-63 -184.5q0 -78 17 -185h438v-135zM328 266q-42 0 -69.5 -23t-27.5 -61
q0 -34 17 -56t53 -22q81 0 100 140q-29 22 -73 22z" />
    <glyph glyph-name="currency" unicode="&#xa4;" horiz-adv-x="1136" 
d="M195 618q0 116 59 193l-109 111l121 120l115 -114q79 53 180 53q116 0 193 -59l118 120l121 -120l-119 -119q56 -78 56 -185q0 -104 -53 -186l116 -117l-121 -120l-118 118q-80 -55 -193 -55q-105 0 -182 49l-113 -112l-121 120l109 109q-59 80 -59 194zM346 618
q0 -93 60.5 -155t154.5 -62q96 0 155.5 61.5t59.5 155.5q0 92 -60 155t-155 63q-94 0 -154.5 -63t-60.5 -155z" />
    <glyph glyph-name="yen" unicode="&#xa5;" horiz-adv-x="1245" 
d="M1059 276h-332v-276h-213v276h-332v134h332v129h-332v133h277l-377 704v17h221l318 -650l325 650h221v-17l-385 -704h277v-133h-332v-129h332v-134z" />
    <glyph glyph-name="brokenbar" unicode="&#xa6;" horiz-adv-x="550" 
d="M360 768h-170v686h170v-686zM190 326h170v-711h-170v711z" />
    <glyph glyph-name="section" unicode="&#xa7;" horiz-adv-x="1308" 
d="M156 -104l51 184q80 -39 212 -71t259 -32q80 0 142 13.5t101.5 44t39.5 74.5q0 47 -47.5 71.5t-161.5 46.5l-308 60q-161 32 -236 107t-75 198q0 84 45 155t133 117q-172 61 -172 223q0 140 131.5 233t376.5 93q283 0 502 -88l-57 -182q-79 38 -213 68t-250 30
q-140 0 -212.5 -37.5t-72.5 -95.5q0 -77 137 -102l324 -56q179 -33 275 -120t96 -209q0 -87 -48.5 -158t-138.5 -115q187 -74 187 -221q0 -148 -144 -237t-379 -89q-148 0 -279.5 29.5t-217.5 65.5zM739 782l-161 27q-121 -7 -183.5 -65.5t-62.5 -127.5q0 -67 41 -104
t143 -57l199 -39q117 4 185.5 54t68.5 128q0 146 -230 184z" />
    <glyph glyph-name="dieresis" unicode="&#xa8;" horiz-adv-x="1228" 
d="M248 1372q0 111 123 111t123 -111q0 -110 -123 -110t-123 110zM764 1372q0 111 125 111q121 0 121 -111q0 -110 -121 -110q-125 0 -125 110z" />
    <glyph glyph-name="copyright" unicode="&#xa9;" horiz-adv-x="1671" 
d="M119 694q0 152 54.5 285.5t149.5 228.5t227.5 150t283.5 55q152 0 285.5 -55t228.5 -150t149.5 -228.5t54.5 -285.5q0 -201 -93 -364.5t-257.5 -256.5t-367.5 -93q-201 0 -365 93t-257 256.5t-93 364.5zM244 694q0 -168 76 -304.5t211.5 -214t302.5 -77.5q168 0 304 77.5
t212.5 214t76.5 304.5q0 169 -76.5 306t-212.5 214.5t-304 77.5q-126 0 -235.5 -45.5t-187.5 -125t-122.5 -190.5t-44.5 -237zM645 694q0 -90 59.5 -147.5t155.5 -57.5q117 0 189 72l71 -123q-117 -102 -278 -102q-156 0 -259.5 100.5t-103.5 257.5t103.5 258t259.5 101
q164 0 278 -103l-71 -121q-72 72 -189 72q-96 0 -155.5 -58.5t-59.5 -148.5z" />
    <glyph glyph-name="ordfeminine" unicode="&#xaa;" horiz-adv-x="1005" 
d="M727 688q-98 0 -127 86q-90 -86 -213 -86q-107 0 -169 58t-62 155q0 116 94 177t260 61q24 0 76 -9v31q0 66 -32.5 93.5t-104.5 27.5q-52 0 -110 -14.5t-95 -36.5l-29 131q78 33 231 45h48q132 -4 186.5 -61t54.5 -172v-287q0 -36 11.5 -55t41.5 -19q31 0 70 25l10 -117
q-82 -33 -141 -33zM193 520h632v-121h-632v121zM297 915q0 -52 37 -78t98 -26q89 0 154 57v166q-24 6 -72 6q-217 0 -217 -125z" />
    <glyph glyph-name="guillemotleft" unicode="&#xab;" horiz-adv-x="1105" 
d="M109 596v45l329 412h17l77 -47l-241 -388l241 -385l-77 -49h-17zM559 596v45l328 412h16l78 -47l-242 -388l242 -385l-78 -49h-16z" />
    <glyph glyph-name="logicalnot" unicode="&#xac;" horiz-adv-x="1288" 
d="M944 264v393h-786v170h958l-2 -563h-170z" />
    <glyph glyph-name="uni00AD" unicode="&#xad;" horiz-adv-x="1103" 
d="M158 705h788v-170h-788v170z" />
    <glyph glyph-name="registered" unicode="&#xae;" horiz-adv-x="1671" 
d="M119 694q0 152 54.5 285.5t149.5 228.5t227.5 150t283.5 55q152 0 285.5 -55t228.5 -150t149.5 -228.5t54.5 -285.5q0 -201 -93 -364.5t-257.5 -256.5t-367.5 -93q-201 0 -365 93t-257 256.5t-93 364.5zM244 694q0 -168 76 -304.5t211.5 -214t302.5 -77.5q168 0 304 77.5
t212.5 214t76.5 304.5q0 169 -76.5 306t-212.5 214.5t-304 77.5q-126 0 -235.5 -45.5t-187.5 -125t-122.5 -190.5t-44.5 -237zM553 346v696h321q111 0 183.5 -60t72.5 -173q0 -83 -50 -138.5t-124 -74.5l197 -219v-31h-172l-203 242h-65v-242h-160zM868 909h-155v-204h155
q45 0 75 28t30 74q0 49 -29.5 75.5t-75.5 26.5z" />
    <glyph glyph-name="macron" unicode="&#xaf;" horiz-adv-x="1228" 
d="M881 1276h-506v149h506v-149z" />
    <glyph glyph-name="degree" unicode="&#xb0;" horiz-adv-x="962" 
d="M113 1049q0 156 103.5 260t262.5 104q160 0 264.5 -104t104.5 -260t-104 -258.5t-265 -102.5q-159 0 -262.5 102.5t-103.5 258.5zM264 1049q0 -92 61 -155t154 -63q96 0 156.5 62.5t60.5 155.5q0 94 -60 156.5t-157 62.5q-93 0 -154 -63t-61 -156z" />
    <glyph glyph-name="plusminus" unicode="&#xb1;" horiz-adv-x="1300" 
d="M735 1325v-393h393v-170h-393v-285h-170v285h-393v170h393v393h170zM172 307h956v-170h-956v170z" />
    <glyph glyph-name="twosuperior" unicode="&#xb2;" horiz-adv-x="692" 
d="M96 934v94l266 201q103 76 103 160q0 50 -32.5 83t-92.5 33q-73 0 -110 -40t-37 -107l-115 20q3 109 72 174.5t190 65.5q123 0 187.5 -62.5t64.5 -164.5q0 -61 -36 -122.5t-107 -113.5l-158 -113h319v-108h-514z" />
    <glyph glyph-name="threesuperior" unicode="&#xb3;" horiz-adv-x="677" 
d="M160 1331h164q58 0 90 25.5t32 64.5q0 88 -141 88q-109 0 -199 -41l-26 107q110 43 225 43q128 0 197 -48.5t69 -137.5q0 -53 -33.5 -94.5t-91.5 -53.5q70 -14 109 -56t39 -110q0 -90 -76 -142t-213 -52q-107 0 -227 41l33 104q92 -39 194 -39q72 0 117 28.5t45 78.5
q0 90 -143 90h-164v104z" />
    <glyph glyph-name="acute" unicode="&#xb4;" horiz-adv-x="1228" 
d="M819 1518l-196 -297h-185l166 297h215z" />
    <glyph glyph-name="mu" unicode="&#xb5;" horiz-adv-x="1308" 
d="M397 1071v-569q0 -167 61 -246.5t204 -79.5q107 0 182 55.5t110 135.5v704h213v-1071h-213v129q-124 -149 -366 -149q-110 0 -191 38v-403h-213v1456h213z" />
    <glyph glyph-name="paragraph" unicode="&#xb6;" horiz-adv-x="1169" 
d="M459 -385v936h-121q-119 0 -193.5 68.5t-74.5 191.5q0 122 74.5 190t193.5 70h289v-1456h-168zM809 -385v1456h166v-1456h-166z" />
    <glyph glyph-name="periodcentered" unicode="&#xb7;" horiz-adv-x="585" 
d="M147 608q0 69 37.5 106.5t106.5 37.5t107 -37.5t38 -106.5q0 -70 -37.5 -106.5t-107.5 -36.5q-69 0 -106.5 36.5t-37.5 106.5z" />
    <glyph glyph-name="cedilla" unicode="&#xb8;" horiz-adv-x="1228" 
d="M453 -197l55 197h94l-35 -127q24 6 60 6q82 0 128 -35.5t46 -95.5q0 -73 -61.5 -113.5t-157.5 -40.5q-82 0 -156 25l23 76q75 -23 126 -23q56 0 89.5 18t33.5 54q0 63 -112 63q-73 0 -127 -14z" />
    <glyph glyph-name="onesuperior" unicode="&#xb9;" horiz-adv-x="542" 
d="M35 1454l289 152h94v-672h-123v532l-211 -106z" />
    <glyph glyph-name="ordmasculine" unicode="&#xba;" horiz-adv-x="1044" 
d="M154 1049q0 156 104.5 260t263.5 104q160 0 264.5 -104t104.5 -260t-104 -258.5t-265 -102.5q-159 0 -263.5 102.5t-104.5 258.5zM291 1049q0 -99 64.5 -165.5t166.5 -66.5q100 0 165 66.5t65 165.5t-65 166t-165 67q-102 0 -166.5 -66.5t-64.5 -166.5zM207 520h633v-121
h-633v121z" />
    <glyph glyph-name="guillemotright" unicode="&#xbb;" horiz-adv-x="1103" 
d="M547 641v-45l-328 -412h-18l-76 47l240 387l-242 386l78 49h18zM995 641v-45l-327 -412h-17l-76 47l240 387l-242 386l78 49h17z" />
    <glyph glyph-name="onequarter" unicode="&#xbc;" horiz-adv-x="1593" 
d="M281 18l755 1375h127v-17l-753 -1376h-129v18zM1511 131h-127v-131h-122v131h-381v84l340 457h163v-447h127v-94zM1008 225h254v344zM63 1249l289 152h94v-672h-122v533l-211 -107z" />
    <glyph glyph-name="onehalf" unicode="&#xbd;" horiz-adv-x="1558" 
d="M281 18l755 1375h127v-17l-753 -1376h-129v18zM948 0v94l266 201q103 76 103 160q0 50 -32.5 83t-92.5 33q-71 0 -109.5 -40t-38.5 -107l-112 20q2 110 70.5 175t191.5 65t186.5 -61.5t63.5 -165.5q0 -132 -144 -236l-155 -112h319v-109h-516zM63 1241l289 152h94v-672
h-122v532l-211 -106z" />
    <glyph glyph-name="threequarters" unicode="&#xbe;" horiz-adv-x="1701" 
d="M395 18l756 1375h127v-17l-754 -1376h-129v18zM1626 131h-127v-131h-123v131h-381v84l340 457h164v-447h127v-94zM1122 225h254v344zM180 1126h164q58 0 90.5 26t32.5 65q0 88 -141 88q-109 0 -199 -41l-27 106q110 43 226 43q128 0 197 -48.5t69 -137.5
q0 -53 -33.5 -94.5t-91.5 -53.5q70 -14 108.5 -56t38.5 -110q0 -90 -75.5 -142t-212.5 -52q-108 0 -228 41l33 104q92 -39 195 -39q72 0 116.5 28.5t44.5 78.5q0 90 -143 90h-164v104z" />
    <glyph glyph-name="questiondown" unicode="&#xbf;" horiz-adv-x="950" 
d="M444 639h177q1 -4 8 -24.5t9.5 -36t2.5 -35.5q0 -54 -26 -101t-85 -98l-110 -98q-57 -47 -86 -95.5t-29 -117.5q0 -88 59 -140.5t150 -52.5q96 0 175 42.5t126 105.5l66 -164q-146 -162 -396 -162q-176 0 -282.5 99.5t-106.5 258.5q0 41 5.5 77t20.5 67t26 51.5
t36.5 47.5t37 38t42.5 38q7 6 10 9l121 105q37 33 49.5 53t12.5 57q0 33 -13 76zM672 956q0 -69 -36.5 -107t-103.5 -38t-104 38t-37 107t36.5 106.5t104.5 37.5q67 0 103.5 -37.5t36.5 -106.5z" />
    <glyph glyph-name="Agrave" unicode="&#xc0;" horiz-adv-x="1460" 
d="M35 0l577 1393h248l553 -1393h-217l-123 307h-694l-127 -307h-217zM735 1180l-299 -711h582zM657 1542l-196 297h215l166 -297h-185z" />
    <glyph glyph-name="Aacute" unicode="&#xc1;" horiz-adv-x="1460" 
d="M35 0l577 1393h248l553 -1393h-217l-123 307h-694l-127 -307h-217zM735 1180l-299 -711h582zM993 1839l-196 -297h-185l166 297h215z" />
    <glyph glyph-name="Acircumflex" unicode="&#xc2;" horiz-adv-x="1460" 
d="M35 0l577 1393h248l553 -1393h-217l-123 307h-694l-127 -307h-217zM735 1180l-299 -711h582zM891 1542l-156 189l-155 -189h-168l217 297h211l217 -297h-166z" />
    <glyph glyph-name="Atilde" unicode="&#xc3;" horiz-adv-x="1460" 
d="M35 0l577 1393h248l553 -1393h-217l-123 307h-694l-127 -307h-217zM735 1180l-299 -711h582zM438 1577l-69 88q32 65 89 110.5t124 45.5q42 0 88 -20t78.5 -44.5t70.5 -44.5t66 -20q92 0 141 96l70 -86q-36 -73 -90.5 -116.5t-120.5 -43.5q-40 0 -85.5 20.5t-79 45
t-71.5 45t-65 20.5q-88 0 -146 -96z" />
    <glyph glyph-name="Adieresis" unicode="&#xc4;" horiz-adv-x="1460" 
d="M35 0l577 1393h248l553 -1393h-217l-123 307h-694l-127 -307h-217zM735 1180l-299 -711h582zM354 1694q0 110 123 110t123 -110q0 -111 -123 -111t-123 111zM870 1694q0 110 125 110q121 0 121 -110q0 -111 -121 -111q-125 0 -125 111z" />
    <glyph glyph-name="Aring" unicode="&#xc5;" horiz-adv-x="1460" 
d="M535 1516q0 83 58.5 141.5t141.5 58.5t142 -58.5t59 -141.5q0 -87 -66 -150l543 -1366h-217l-123 307h-694l-127 -307h-217l565 1366q-65 59 -65 150zM735 1180l-299 -711h582zM629 1516q0 -44 31 -75.5t75 -31.5q43 0 74 31.5t31 75.5q0 43 -31 73.5t-74 30.5
q-44 0 -75 -30.5t-31 -73.5z" />
    <glyph glyph-name="AE" unicode="&#xc6;" horiz-adv-x="2164" 
d="M967 0v307h-549l-189 -307h-229l844 1393h1202v-189h-875v-397h725v-174h-725v-447h875v-186h-1079zM504 469h463v770z" />
    <glyph glyph-name="Ccedilla" unicode="&#xc7;" horiz-adv-x="1484" 
d="M696 -197l52 183q-276 31 -453.5 229.5t-177.5 480.5q0 151 55.5 284t151.5 228t230.5 150t287.5 55q331 0 544 -213l-102 -151q-179 165 -442 165q-220 0 -363 -148.5t-143 -369.5t143 -369.5t363 -148.5q262 0 442 166l102 -151q-213 -213 -544 -213h-2l-29 -107
q24 6 59 6q82 0 128 -35.5t46 -95.5q0 -73 -61.5 -113.5t-157.5 -40.5q-81 0 -155 25l22 76q75 -23 127 -23q56 0 89.5 18t33.5 54q0 63 -113 63q-73 0 -127 -14z" />
    <glyph glyph-name="Egrave" unicode="&#xc8;" horiz-adv-x="1402" 
d="M1286 0h-1081v1393h1081v-189h-876v-391h727v-188h-727v-437h876v-188zM668 1542l-197 297h215l166 -297h-184z" />
    <glyph glyph-name="Eacute" unicode="&#xc9;" horiz-adv-x="1402" 
d="M1286 0h-1081v1393h1081v-189h-876v-391h727v-188h-727v-437h876v-188zM1010 1839l-197 -297h-184l166 297h215z" />
    <glyph glyph-name="Ecircumflex" unicode="&#xca;" horiz-adv-x="1402" 
d="M1286 0h-1081v1393h1081v-189h-876v-391h727v-188h-727v-437h876v-188zM901 1542l-156 189l-155 -189h-168l217 297h211l217 -297h-166z" />
    <glyph glyph-name="Edieresis" unicode="&#xcb;" horiz-adv-x="1402" 
d="M1286 0h-1081v1393h1081v-189h-876v-391h727v-188h-727v-437h876v-188zM365 1694q0 110 122 110q123 0 123 -110q0 -111 -123 -111q-122 0 -122 111zM881 1694q0 110 125 110q120 0 120 -110q0 -111 -120 -111q-125 0 -125 111z" />
    <glyph glyph-name="Igrave" unicode="&#xcc;" horiz-adv-x="624" 
d="M205 0v1393h213v-1393h-213zM236 1542l-197 297h215l166 -297h-184z" />
    <glyph glyph-name="Iacute" unicode="&#xcd;" horiz-adv-x="624" 
d="M205 0v1393h213v-1393h-213zM592 1839l-197 -297h-184l166 297h215z" />
    <glyph glyph-name="Icircumflex" unicode="&#xce;" horiz-adv-x="624" 
d="M205 0v1393h213v-1393h-213zM467 1542l-156 189l-155 -189h-168l217 297h211l217 -297h-166z" />
    <glyph glyph-name="Idieresis" unicode="&#xcf;" horiz-adv-x="624" 
d="M205 0v1393h213v-1393h-213zM-72 1694q0 110 123 110t123 -110q0 -111 -123 -111t-123 111zM444 1694q0 110 125 110q121 0 121 -110q0 -111 -121 -111q-125 0 -125 111z" />
    <glyph glyph-name="Eth" unicode="&#xd0;" horiz-adv-x="1622" 
d="M217 754v639h565q155 -1 286 -47t227.5 -132.5t151 -220t54.5 -299.5q0 -165 -54.5 -297.5t-151 -218.5t-227.5 -132t-286 -46h-565v641h-131v113h131zM430 754h315v-113h-315v-455h344q229 0 369.5 134t140.5 374q0 243 -140.5 376.5t-369.5 135.5h-344v-452z" />
    <glyph glyph-name="Ntilde" unicode="&#xd1;" horiz-adv-x="1697" 
d="M1305 0l-887 1053v-1053h-213v1393h188l885 -1057v1057h213v-1393h-186zM563 1577l-69 88q32 65 89 110.5t124 45.5q42 0 88 -20t78.5 -44.5t70.5 -44.5t66 -20q92 0 141 96l70 -86q-36 -73 -90.5 -116.5t-120.5 -43.5q-40 0 -85.5 20.5t-79 45t-71.5 45t-65 20.5
q-88 0 -146 -96z" />
    <glyph glyph-name="Ograve" unicode="&#xd2;" horiz-adv-x="1665" 
d="M117 694q0 203 93 368t256.5 258t364.5 93q152 0 285.5 -55t228.5 -150t150 -228.5t55 -285.5q0 -201 -93 -364.5t-258 -256.5t-368 -93q-201 0 -364.5 93t-256.5 256.5t-93 364.5zM326 694q0 -221 143 -367.5t362 -146.5q221 0 364.5 146.5t143.5 367.5q0 224 -143 370
t-365 146q-219 0 -362 -146.5t-143 -369.5zM745 1542l-196 297h215l166 -297h-185z" />
    <glyph glyph-name="Oacute" unicode="&#xd3;" horiz-adv-x="1665" 
d="M117 694q0 203 93 368t256.5 258t364.5 93q152 0 285.5 -55t228.5 -150t150 -228.5t55 -285.5q0 -201 -93 -364.5t-258 -256.5t-368 -93q-201 0 -364.5 93t-256.5 256.5t-93 364.5zM326 694q0 -221 143 -367.5t362 -146.5q221 0 364.5 146.5t143.5 367.5q0 224 -143 370
t-365 146q-219 0 -362 -146.5t-143 -369.5zM1112 1839l-197 -297h-184l166 297h215z" />
    <glyph glyph-name="Ocircumflex" unicode="&#xd4;" horiz-adv-x="1665" 
d="M117 694q0 203 93 368t256.5 258t364.5 93q152 0 285.5 -55t228.5 -150t150 -228.5t55 -285.5q0 -201 -93 -364.5t-258 -256.5t-368 -93q-201 0 -364.5 93t-256.5 256.5t-93 364.5zM326 694q0 -221 143 -367.5t362 -146.5q221 0 364.5 146.5t143.5 367.5q0 224 -143 370
t-365 146q-219 0 -362 -146.5t-143 -369.5zM987 1542l-156 189l-155 -189h-168l217 297h211l217 -297h-166z" />
    <glyph glyph-name="Otilde" unicode="&#xd5;" horiz-adv-x="1665" 
d="M117 694q0 203 93 368t256.5 258t364.5 93q152 0 285.5 -55t228.5 -150t150 -228.5t55 -285.5q0 -201 -93 -364.5t-258 -256.5t-368 -93q-201 0 -364.5 93t-256.5 256.5t-93 364.5zM326 694q0 -221 143 -367.5t362 -146.5q221 0 364.5 146.5t143.5 367.5q0 224 -143 370
t-365 146q-219 0 -362 -146.5t-143 -369.5zM537 1577l-70 88q32 65 89 110.5t124 45.5q42 0 88 -20t78.5 -44.5t70.5 -44.5t66 -20q92 0 141 96l70 -86q-36 -73 -90.5 -116.5t-120.5 -43.5q-40 0 -85.5 20.5t-79 45t-71.5 45t-65 20.5q-87 0 -145 -96z" />
    <glyph glyph-name="Odieresis" unicode="&#xd6;" horiz-adv-x="1665" 
d="M117 694q0 203 93 368t256.5 258t364.5 93q152 0 285.5 -55t228.5 -150t150 -228.5t55 -285.5q0 -201 -93 -364.5t-258 -256.5t-368 -93q-201 0 -364.5 93t-256.5 256.5t-93 364.5zM326 694q0 -221 143 -367.5t362 -146.5q221 0 364.5 146.5t143.5 367.5q0 224 -143 370
t-365 146q-219 0 -362 -146.5t-143 -369.5zM451 1694q0 110 122 110q123 0 123 -110q0 -111 -123 -111q-122 0 -122 111zM967 1694q0 110 125 110q120 0 120 -110q0 -111 -120 -111q-125 0 -125 111z" />
    <glyph glyph-name="multiply" unicode="&#xd7;" horiz-adv-x="1089" 
d="M942 897l-278 -276l278 -279l-121 -121l-276 279l-279 -279l-121 121l279 279l-279 276l121 121l279 -279l276 279z" />
    <glyph glyph-name="Oslash" unicode="&#xd8;" horiz-adv-x="1662" 
d="M117 694q0 203 93 368t256.5 258t364.5 93q232 0 410 -121l82 101h156v-17l-136 -166q99 -99 153 -231t54 -285q0 -201 -93 -364.5t-258 -256.5t-368 -93q-219 0 -395 112l-74 -92h-157v18l127 156q-102 96 -158.5 230.5t-56.5 289.5zM322 694q0 -217 139 -362l651 801
q-124 79 -281 79q-220 0 -364.5 -147.5t-144.5 -370.5zM1341 694q0 207 -129 355l-647 -799q122 -72 266 -72q220 0 365 147.5t145 368.5z" />
    <glyph glyph-name="Ugrave" unicode="&#xd9;" horiz-adv-x="1603" 
d="M399 1393v-803q0 -193 100.5 -303.5t299.5 -110.5q200 0 302.5 114t102.5 302v801h213v-818q0 -122 -40 -229.5t-115.5 -190t-194.5 -130.5t-268 -48q-294 0 -453.5 164.5t-159.5 433.5v818h213zM717 1542l-197 297h215l166 -297h-184z" />
    <glyph glyph-name="Uacute" unicode="&#xda;" horiz-adv-x="1603" 
d="M399 1393v-803q0 -193 100.5 -303.5t299.5 -110.5q200 0 302.5 114t102.5 302v801h213v-818q0 -122 -40 -229.5t-115.5 -190t-194.5 -130.5t-268 -48q-294 0 -453.5 164.5t-159.5 433.5v818h213zM1081 1839l-196 -297h-185l166 297h215z" />
    <glyph glyph-name="Ucircumflex" unicode="&#xdb;" horiz-adv-x="1603" 
d="M399 1393v-803q0 -193 100.5 -303.5t299.5 -110.5q200 0 302.5 114t102.5 302v801h213v-818q0 -122 -40 -229.5t-115.5 -190t-194.5 -130.5t-268 -48q-294 0 -453.5 164.5t-159.5 433.5v818h213zM956 1542l-155 189l-156 -189h-168l217 297h211l217 -297h-166z" />
    <glyph glyph-name="Udieresis" unicode="&#xdc;" horiz-adv-x="1603" 
d="M399 1393v-803q0 -193 100.5 -303.5t299.5 -110.5q200 0 302.5 114t102.5 302v801h213v-818q0 -122 -40 -229.5t-115.5 -190t-194.5 -130.5t-268 -48q-294 0 -453.5 164.5t-159.5 433.5v818h213zM420 1694q0 110 123 110t123 -110q0 -111 -123 -111t-123 111zM936 1694
q0 110 125 110q121 0 121 -110q0 -111 -121 -111q-125 0 -125 111z" />
    <glyph glyph-name="Yacute" unicode="&#xdd;" horiz-adv-x="1413" 
d="M600 0v569l-563 807v17h237l433 -627l432 627h237v-17l-563 -805v-571h-213zM985 1839l-197 -297h-184l166 297h215z" />
    <glyph glyph-name="Thorn" unicode="&#xde;" horiz-adv-x="1415" 
d="M205 0v1393h213v-209h420q103 0 190 -27t156.5 -81.5t109 -148t39.5 -216.5q0 -90 -26 -167t-71.5 -132t-108 -93.5t-136 -57.5t-153.5 -19h-420v-242h-213zM809 997h-391v-567h391q133 0 220 72.5t87 208.5q0 145 -85.5 215.5t-221.5 70.5z" />
    <glyph glyph-name="germandbls" unicode="&#xdf;" horiz-adv-x="1394" 
d="M709 1475q109 0 199 -35t147 -93t88 -130.5t31 -151.5q0 -66 -25.5 -125.5t-55.5 -94t-55.5 -65.5t-25.5 -47q0 -13 28 -37.5t68.5 -58.5t81 -77t68.5 -104.5t28 -127.5q0 -168 -108.5 -258t-286.5 -90t-307 61l34 174q90 -53 213 -53q102 0 164 48.5t62 131.5
q0 51 -29 99t-70.5 84t-82.5 68t-70 62.5t-29 55.5q0 27 18.5 55.5t45 57t53 60.5t45 76t18.5 93q0 103 -76 169t-190 66q-138 0 -216.5 -99t-78.5 -265v-924h-213v907q0 139 41 249t113.5 178.5t167 104.5t205.5 36z" />
    <glyph glyph-name="agrave" unicode="&#xe0;" horiz-adv-x="1189" 
d="M541 1221l-197 297h215l166 -297h-184zM233 831l-38 185q78 33 184 53.5t207 20.5q111 0 195.5 -31t135.5 -87.5t76 -129t25 -160.5v-682h-213v117q-145 -137 -342 -137q-171 0 -268 86t-97 235q0 186 136.5 282.5t367.5 96.5q100 0 203 -21v13q0 119 -58.5 177
t-177.5 58q-84 0 -175 -21t-161 -55zM311 324q0 -86 58 -130t159 -44q156 0 277 108v248q-74 18 -160 18q-149 0 -241.5 -50t-92.5 -150z" />
    <glyph glyph-name="aacute" unicode="&#xe1;" horiz-adv-x="1189" 
d="M887 1518l-197 -297h-184l166 297h215zM233 831l-38 185q78 33 184 53.5t207 20.5q111 0 195.5 -31t135.5 -87.5t76 -129t25 -160.5v-682h-213v117q-145 -137 -342 -137q-171 0 -268 86t-97 235q0 186 136.5 282.5t367.5 96.5q100 0 203 -21v13q0 119 -58.5 177
t-177.5 58q-84 0 -175 -21t-161 -55zM311 324q0 -86 58 -130t159 -44q156 0 277 108v248q-74 18 -160 18q-149 0 -241.5 -50t-92.5 -150z" />
    <glyph glyph-name="acircumflex" unicode="&#xe2;" horiz-adv-x="1189" 
d="M762 1221l-156 188l-155 -188h-168l217 297h211l217 -297h-166zM233 831l-38 185q78 33 184 53.5t207 20.5q111 0 195.5 -31t135.5 -87.5t76 -129t25 -160.5v-682h-213v117q-145 -137 -342 -137q-171 0 -268 86t-97 235q0 186 136.5 282.5t367.5 96.5q100 0 203 -21v13
q0 119 -58.5 177t-177.5 58q-84 0 -175 -21t-161 -55zM311 324q0 -86 58 -130t159 -44q156 0 277 108v248q-74 18 -160 18q-149 0 -241.5 -50t-92.5 -150z" />
    <glyph glyph-name="atilde" unicode="&#xe3;" horiz-adv-x="1189" 
d="M313 1255l-69 88q32 65 89 110.5t124 45.5q42 0 88 -20t78.5 -44.5t70.5 -44.5t66 -20q92 0 141 96l70 -86q-35 -72 -90 -115.5t-121 -43.5q-40 0 -85.5 20.5t-79 45t-71.5 45t-65 20.5q-88 0 -146 -97zM233 831l-38 185q78 33 184 53.5t207 20.5q111 0 195.5 -31
t135.5 -87.5t76 -129t25 -160.5v-682h-213v117q-145 -137 -342 -137q-171 0 -268 86t-97 235q0 186 136.5 282.5t367.5 96.5q100 0 203 -21v13q0 119 -58.5 177t-177.5 58q-84 0 -175 -21t-161 -55zM311 324q0 -86 58 -130t159 -44q156 0 277 108v248q-74 18 -160 18
q-149 0 -241.5 -50t-92.5 -150z" />
    <glyph glyph-name="adieresis" unicode="&#xe4;" horiz-adv-x="1189" 
d="M227 1372q0 111 123 111t123 -111q0 -110 -123 -110t-123 110zM743 1372q0 111 125 111q121 0 121 -111q0 -110 -121 -110q-125 0 -125 110zM233 831l-38 185q78 33 184 53.5t207 20.5q111 0 195.5 -31t135.5 -87.5t76 -129t25 -160.5v-682h-213v117q-145 -137 -342 -137
q-171 0 -268 86t-97 235q0 186 136.5 282.5t367.5 96.5q100 0 203 -21v13q0 119 -58.5 177t-177.5 58q-84 0 -175 -21t-161 -55zM311 324q0 -86 58 -130t159 -44q156 0 277 108v248q-74 18 -160 18q-149 0 -241.5 -50t-92.5 -150z" />
    <glyph glyph-name="aring" unicode="&#xe5;" horiz-adv-x="1189" 
d="M406 1372q0 83 58.5 142t141.5 59t142 -59t59 -142t-59 -142t-142 -59t-141.5 59t-58.5 142zM500 1372q0 -44 31 -75t75 -31q43 0 74 31t31 75q0 43 -31 74t-74 31q-44 0 -75 -31t-31 -74zM233 831l-38 185q78 33 184 53.5t207 20.5q111 0 195.5 -31t135.5 -87.5t76 -129
t25 -160.5v-682h-213v117q-145 -137 -342 -137q-171 0 -268 86t-97 235q0 186 136.5 282.5t367.5 96.5q100 0 203 -21v13q0 119 -58.5 177t-177.5 58q-84 0 -175 -21t-161 -55zM311 324q0 -86 58 -130t159 -44q156 0 277 108v248q-74 18 -160 18q-149 0 -241.5 -50
t-92.5 -150z" />
    <glyph glyph-name="ae" unicode="&#xe6;" horiz-adv-x="1902" 
d="M1765 473h-743q5 -157 82 -243.5t254 -86.5q170 0 330 119l84 -145q-180 -146 -433 -146q-156 0 -261 57t-154 160q-39 -40 -76.5 -70.5t-93 -65t-125.5 -53.5t-148 -19q-178 0 -281.5 86.5t-103.5 234.5q0 178 144 276.5t385 98.5q101 0 180 -14q0 69 -9.5 113t-36 75
t-72 44t-118.5 13q-81 0 -175 -22t-161 -54l-38 185q89 36 197.5 55t191.5 19q97 0 165 -17t107 -51t58.5 -69.5t33.5 -88.5q24 42 56.5 80.5t79 75t109.5 58.5t134 22q148 0 253.5 -62.5t154.5 -162t49 -222.5q0 -112 -19 -180zM1329 942q-139 0 -217.5 -93t-81.5 -226h572
q4 16 4 49q0 121 -71 195.5t-206 74.5zM311 324q0 -87 59.5 -130.5t157.5 -43.5q87 0 160 41.5t117 95.5v237q-93 15 -166 15q-328 -7 -328 -215z" />
    <glyph glyph-name="ccedilla" unicode="&#xe7;" horiz-adv-x="1189" 
d="M539 -197l49 177q-213 31 -343 185t-130 372q0 160 72 288t203.5 201.5t297.5 73.5q240 0 404 -148l-107 -157q-117 108 -289 108q-162 0 -263 -102.5t-101 -263.5t101 -265t263 -104q172 0 289 108l107 -157q-164 -148 -404 -148h-8l-27 -98q24 6 60 6q82 0 128 -35.5
t46 -95.5q0 -73 -61.5 -113.5t-157.5 -40.5q-82 0 -156 25l23 76q75 -23 127 -23q56 0 89 18t33 54q0 63 -112 63q-73 0 -127 -14z" />
    <glyph glyph-name="egrave" unicode="&#xe8;" horiz-adv-x="1269" 
d="M1055 270l84 -153q-180 -146 -445 -146q-147 0 -260 43.5t-181.5 121t-103 177.5t-34.5 219q0 158 67.5 286.5t196.5 205t297 76.5q119 0 211.5 -35t149.5 -96.5t86.5 -141.5t29.5 -174q0 -113 -23 -188h-796q16 -146 107 -229.5t259 -83.5q196 0 355 118zM944 631
q4 32 4 57q0 100 -69.5 167t-206.5 67q-144 0 -232.5 -83.5t-101.5 -207.5h606zM625 1221l-197 297h215l166 -297h-184z" />
    <glyph glyph-name="eacute" unicode="&#xe9;" horiz-adv-x="1269" 
d="M1055 270l84 -153q-180 -146 -445 -146q-147 0 -260 43.5t-181.5 121t-103 177.5t-34.5 219q0 158 67.5 286.5t196.5 205t297 76.5q119 0 211.5 -35t149.5 -96.5t86.5 -141.5t29.5 -174q0 -113 -23 -188h-796q16 -146 107 -229.5t259 -83.5q196 0 355 118zM944 631
q4 32 4 57q0 100 -69.5 167t-206.5 67q-144 0 -232.5 -83.5t-101.5 -207.5h606zM950 1518l-196 -297h-185l166 297h215z" />
    <glyph glyph-name="ecircumflex" unicode="&#xea;" horiz-adv-x="1269" 
d="M1055 270l84 -153q-180 -146 -445 -146q-147 0 -260 43.5t-181.5 121t-103 177.5t-34.5 219q0 158 67.5 286.5t196.5 205t297 76.5q119 0 211.5 -35t149.5 -96.5t86.5 -141.5t29.5 -174q0 -113 -23 -188h-796q16 -146 107 -229.5t259 -83.5q196 0 355 118zM944 631
q4 32 4 57q0 100 -69.5 167t-206.5 67q-144 0 -232.5 -83.5t-101.5 -207.5h606zM842 1221l-156 188l-156 -188h-168l218 297h211l217 -297h-166z" />
    <glyph glyph-name="edieresis" unicode="&#xeb;" horiz-adv-x="1269" 
d="M1055 270l84 -153q-180 -146 -445 -146q-147 0 -260 43.5t-181.5 121t-103 177.5t-34.5 219q0 158 67.5 286.5t196.5 205t297 76.5q119 0 211.5 -35t149.5 -96.5t86.5 -141.5t29.5 -174q0 -113 -23 -188h-796q16 -146 107 -229.5t259 -83.5q196 0 355 118zM944 631
q4 32 4 57q0 100 -69.5 167t-206.5 67q-144 0 -232.5 -83.5t-101.5 -207.5h606zM303 1372q0 111 123 111t123 -111q0 -110 -123 -110t-123 110zM819 1372q0 111 125 111q121 0 121 -111q0 -110 -121 -110q-125 0 -125 110z" />
    <glyph glyph-name="igrave" unicode="&#xec;" horiz-adv-x="579" 
d="M217 1221l-197 297h216l165 -297h-184zM395 0h-213v1071h213v-1071z" />
    <glyph glyph-name="iacute" unicode="&#xed;" horiz-adv-x="579" 
d="M567 1518l-196 -297h-185l166 297h215zM395 0h-213v1071h213v-1071z" />
    <glyph glyph-name="icircumflex" unicode="&#xee;" horiz-adv-x="579" 
d="M395 0h-213v1071h213v-1071zM444 1221l-155 188l-156 -188h-168l217 297h211l217 -297h-166z" />
    <glyph glyph-name="idieresis" unicode="&#xef;" horiz-adv-x="579" 
d="M-90 1372q0 111 123 111t123 -111q0 -110 -123 -110t-123 110zM426 1372q0 111 125 111q121 0 121 -111q0 -110 -121 -110q-125 0 -125 110zM395 0h-213v1071h213v-1071z" />
    <glyph glyph-name="eth" unicode="&#xf0;" horiz-adv-x="1298" 
d="M991 1438l-110 -115q131 -108 208.5 -269t77.5 -356q0 -329 -148 -523.5t-415 -194.5q-209 0 -345 136.5t-136 356.5q0 205 118.5 330t321.5 125q224 0 389 -193q-11 267 -202 449l-123 -127l-60 55l119 125q-90 68 -186 100l84 138q114 -26 231 -103l115 119zM612 176
q141 0 224.5 101t107.5 278q-143 197 -334 197q-126 0 -201 -73t-75 -208q0 -125 77.5 -210t200.5 -85z" />
    <glyph glyph-name="ntilde" unicode="&#xf1;" 
d="M182 1071h213v-166q62 87 159.5 136t223.5 49q106 0 187.5 -36.5t131 -101.5t74.5 -149.5t25 -186.5v-616h-213v584q0 143 -68 226t-204 83q-119 0 -201.5 -67t-114.5 -164v-662h-213v1071zM397 1255l-69 88q32 65 89 110.5t124 45.5q42 0 88 -20t78.5 -44.5t70.5 -44.5
t66 -20q92 0 141 96l70 -86q-35 -72 -90 -115.5t-121 -43.5q-40 0 -85.5 20.5t-79 45t-71.5 45t-65 20.5q-88 0 -146 -97z" />
    <glyph glyph-name="ograve" unicode="&#xf2;" horiz-adv-x="1370" 
d="M113 532q0 245 161.5 406.5t409.5 161.5q124 0 231 -43t182 -118.5t117.5 -180.5t42.5 -226q0 -159 -72.5 -287t-204 -201t-296.5 -73q-248 0 -409.5 159.5t-161.5 401.5zM319 532q0 -157 102 -260.5t263 -103.5q163 0 266 103.5t103 260.5q0 160 -103 265.5t-266 105.5
q-161 0 -263 -105.5t-102 -265.5zM598 1221l-197 297h215l166 -297h-184z" />
    <glyph glyph-name="oacute" unicode="&#xf3;" horiz-adv-x="1370" 
d="M113 532q0 245 161.5 406.5t409.5 161.5q124 0 231 -43t182 -118.5t117.5 -180.5t42.5 -226q0 -159 -72.5 -287t-204 -201t-296.5 -73q-248 0 -409.5 159.5t-161.5 401.5zM319 532q0 -157 102 -260.5t263 -103.5q163 0 266 103.5t103 260.5q0 160 -103 265.5t-266 105.5
q-161 0 -263 -105.5t-102 -265.5zM965 1518l-197 -297h-184l166 297h215z" />
    <glyph glyph-name="ocircumflex" unicode="&#xf4;" horiz-adv-x="1370" 
d="M113 532q0 245 161.5 406.5t409.5 161.5q124 0 231 -43t182 -118.5t117.5 -180.5t42.5 -226q0 -159 -72.5 -287t-204 -201t-296.5 -73q-248 0 -409.5 159.5t-161.5 401.5zM319 532q0 -157 102 -260.5t263 -103.5q163 0 266 103.5t103 260.5q0 160 -103 265.5t-266 105.5
q-161 0 -263 -105.5t-102 -265.5zM840 1221l-156 188l-156 -188h-168l218 297h210l218 -297h-166z" />
    <glyph glyph-name="otilde" unicode="&#xf5;" horiz-adv-x="1370" 
d="M113 532q0 245 161.5 406.5t409.5 161.5q124 0 231 -43t182 -118.5t117.5 -180.5t42.5 -226q0 -159 -72.5 -287t-204 -201t-296.5 -73q-248 0 -409.5 159.5t-161.5 401.5zM319 532q0 -157 102 -260.5t263 -103.5q163 0 266 103.5t103 260.5q0 160 -103 265.5t-266 105.5
q-161 0 -263 -105.5t-102 -265.5zM389 1255l-70 88q32 65 89 110.5t124 45.5q42 0 88 -20t79 -44.5t71 -44.5t66 -20q92 0 141 96l70 -86q-35 -72 -90 -115.5t-121 -43.5q-40 0 -85.5 20.5t-79 45t-71.5 45t-65 20.5q-88 0 -146 -97z" />
    <glyph glyph-name="odieresis" unicode="&#xf6;" horiz-adv-x="1370" 
d="M113 532q0 245 161.5 406.5t409.5 161.5q124 0 231 -43t182 -118.5t117.5 -180.5t42.5 -226q0 -159 -72.5 -287t-204 -201t-296.5 -73q-248 0 -409.5 159.5t-161.5 401.5zM319 532q0 -157 102 -260.5t263 -103.5q163 0 266 103.5t103 260.5q0 160 -103 265.5t-266 105.5
q-161 0 -263 -105.5t-102 -265.5zM303 1372q0 111 123 111t123 -111q0 -110 -123 -110t-123 110zM819 1372q0 111 125 111q121 0 121 -111q0 -110 -121 -110q-125 0 -125 110z" />
    <glyph glyph-name="divide" unicode="&#xf7;" horiz-adv-x="1222" 
d="M131 705h959v-170h-959v170zM469 997q0 63 34 98t97 35t98 -35t35 -98q0 -64 -35 -98.5t-98 -34.5t-97 34.5t-34 98.5zM469 240q0 63 34 98t97 35t98 -35t35 -98q0 -64 -35 -99t-98 -35t-97 35t-34 99z" />
    <glyph glyph-name="oslash" unicode="&#xf8;" horiz-adv-x="1370" 
d="M113 532q0 245 161.5 406.5t409.5 161.5q196 0 340 -103l61 74h113v-18l-98 -119q75 -75 116 -179t41 -223q0 -159 -72.5 -287t-204 -201t-296.5 -73q-174 0 -309 80l-43 -51h-115v18l78 95q-87 76 -134.5 183.5t-47.5 235.5zM319 532q0 -162 105 -264l473 574
q-92 61 -213 61q-161 0 -263 -105.5t-102 -265.5zM1053 532q0 142 -84 242l-465 -565q76 -43 180 -43q162 0 265.5 104.5t103.5 261.5z" />
    <glyph glyph-name="ugrave" unicode="&#xf9;" 
d="M1184 0h-213v166q-62 -87 -158.5 -135.5t-222.5 -48.5q-106 0 -188 36t-132 101t-75 149.5t-25 186.5v616h213v-584q0 -143 68.5 -226t207.5 -83q117 0 199.5 68t112.5 164v661h213v-1071zM590 1221l-197 297h215l166 -297h-184z" />
    <glyph glyph-name="uacute" unicode="&#xfa;" 
d="M1184 0h-213v166q-62 -87 -158.5 -135.5t-222.5 -48.5q-106 0 -188 36t-132 101t-75 149.5t-25 186.5v616h213v-584q0 -143 68.5 -226t207.5 -83q117 0 199.5 68t112.5 164v661h213v-1071zM981 1518l-197 -297h-184l166 297h215z" />
    <glyph glyph-name="ucircumflex" unicode="&#xfb;" 
d="M1184 0h-213v166q-62 -87 -158.5 -135.5t-222.5 -48.5q-106 0 -188 36t-132 101t-75 149.5t-25 186.5v616h213v-584q0 -143 68.5 -226t207.5 -83q117 0 199.5 68t112.5 164v661h213v-1071zM831 1221l-155 188l-156 -188h-168l217 297h211l217 -297h-166z" />
    <glyph glyph-name="udieresis" unicode="&#xfc;" 
d="M1184 0h-213v166q-62 -87 -158.5 -135.5t-222.5 -48.5q-106 0 -188 36t-132 101t-75 149.5t-25 186.5v616h213v-584q0 -143 68.5 -226t207.5 -83q117 0 199.5 68t112.5 164v661h213v-1071zM293 1372q0 111 123 111t123 -111q0 -110 -123 -110t-123 110zM809 1372
q0 111 125 111q121 0 121 -111q0 -110 -121 -110q-125 0 -125 110z" />
    <glyph glyph-name="yacute" unicode="&#xfd;" horiz-adv-x="1261" 
d="M973 1071h215l-467 -1114q-38 -94 -75.5 -158t-87 -112t-112.5 -70.5t-145 -22.5q-134 0 -246 74l35 174q104 -65 211 -65q81 0 127.5 40.5t85.5 131.5l29 69l-502 1053h235l361 -838zM905 1518l-196 -297h-185l166 297h215z" />
    <glyph glyph-name="thorn" unicode="&#xfe;" horiz-adv-x="1363" 
d="M1249 532q0 -243 -141.5 -397.5t-370.5 -154.5q-205 0 -342 137v-502h-213v1839h213v-510q135 146 342 146q229 0 370.5 -156t141.5 -402zM1034 532q0 166 -96 268.5t-256 102.5q-85 0 -162.5 -36.5t-124.5 -88.5v-491q48 -51 125.5 -86t161.5 -35q159 0 255.5 101
t96.5 265z" />
    <glyph glyph-name="ydieresis" unicode="&#xff;" horiz-adv-x="1261" 
d="M973 1071h215l-467 -1114q-38 -94 -75.5 -158t-87 -112t-112.5 -70.5t-145 -22.5q-134 0 -246 74l35 174q104 -65 211 -65q81 0 127.5 40.5t85.5 131.5l29 69l-502 1053h235l361 -838zM252 1372q0 111 123 111t123 -111q0 -110 -123 -110t-123 110zM768 1372
q0 111 125 111q121 0 121 -111q0 -110 -121 -110q-125 0 -125 110z" />
    <glyph glyph-name="Amacron" unicode="&#x100;" horiz-adv-x="1460" 
d="M35 0l577 1393h248l553 -1393h-217l-123 307h-694l-127 -307h-217zM735 1180l-299 -711h582zM987 1597h-506v150h506v-150z" />
    <glyph glyph-name="amacron" unicode="&#x101;" horiz-adv-x="1189" 
d="M860 1276h-506v149h506v-149zM233 831l-38 185q78 33 184 53.5t207 20.5q111 0 195.5 -31t135.5 -87.5t76 -129t25 -160.5v-682h-213v117q-145 -137 -342 -137q-171 0 -268 86t-97 235q0 186 136.5 282.5t367.5 96.5q100 0 203 -21v13q0 119 -58.5 177t-177.5 58
q-84 0 -175 -21t-161 -55zM311 324q0 -86 58 -130t159 -44q156 0 277 108v248q-74 18 -160 18q-149 0 -241.5 -50t-92.5 -150z" />
    <glyph glyph-name="Abreve" unicode="&#x102;" horiz-adv-x="1460" 
d="M35 0l577 1393h248l553 -1393h-217l-123 307h-694l-127 -307h-217zM735 1180l-299 -711h582zM449 1714l59 86q81 -102 227 -102q77 0 134.5 29.5t88.5 72.5l62 -86q-39 -68 -110.5 -115t-172.5 -47t-174 47t-114 115z" />
    <glyph glyph-name="abreve" unicode="&#x103;" horiz-adv-x="1189" 
d="M311 1393l60 86q82 -103 227 -103q77 0 134 30t89 73l62 -86q-39 -68 -110.5 -115t-172.5 -47t-174.5 47t-114.5 115zM233 831l-38 185q78 33 184 53.5t207 20.5q111 0 195.5 -31t135.5 -87.5t76 -129t25 -160.5v-682h-213v117q-145 -137 -342 -137q-171 0 -268 86
t-97 235q0 186 136.5 282.5t367.5 96.5q100 0 203 -21v13q0 119 -58.5 177t-177.5 58q-84 0 -175 -21t-161 -55zM311 324q0 -86 58 -130t159 -44q156 0 277 108v248q-74 18 -160 18q-149 0 -241.5 -50t-92.5 -150z" />
    <glyph glyph-name="Aogonek" unicode="&#x104;" horiz-adv-x="1460" 
d="M35 0l577 1393h248l553 -1393h-70q-84 -3 -138 -43t-54 -107q0 -53 31 -82.5t86 -29.5q54 0 114 37l23 -101q-73 -41 -166 -41q-87 0 -141 51.5t-54 139.5q0 68 43.5 117.5t104.5 68.5l-119 297h-694l-127 -307h-217zM735 1180l-299 -711h582z" />
    <glyph glyph-name="aogonek" unicode="&#x105;" horiz-adv-x="1189" 
d="M233 831l-38 185q78 33 184 53.5t207 20.5q111 0 195.5 -31t135.5 -87.5t76 -129t25 -160.5v-682h-45q-81 -5 -133 -45t-52 -105q0 -53 31 -82.5t86 -29.5t115 37l22 -101q-73 -41 -165 -41q-87 0 -141 51.5t-54 139.5q0 61 35 108t88 70v115q-145 -137 -342 -137
q-171 0 -268 86t-97 235q0 186 136.5 282.5t367.5 96.5q100 0 203 -21v13q0 119 -58.5 177t-177.5 58q-84 0 -175 -21t-161 -55zM311 324q0 -86 58 -130t159 -44q156 0 277 108v248q-74 18 -160 18q-149 0 -241.5 -50t-92.5 -150z" />
    <glyph glyph-name="Cacute" unicode="&#x106;" horiz-adv-x="1482" 
d="M334 696q0 -221 143 -369.5t363 -148.5q262 0 442 166l102 -151q-213 -213 -544 -213q-204 0 -370 93.5t-260.5 257.5t-94.5 365q0 151 55.5 284t151.5 228t230.5 150t287.5 55q331 0 544 -213l-102 -151q-179 165 -442 165q-220 0 -363 -148.5t-143 -369.5zM1133 1839
l-197 -297h-184l166 297h215z" />
    <glyph glyph-name="cacute" unicode="&#x107;" horiz-adv-x="1185" 
d="M113 537q0 160 72 288t203.5 201.5t297.5 73.5q240 0 404 -148l-107 -157q-117 108 -289 108q-162 0 -263 -102.5t-101 -263.5t101 -265t263 -104q172 0 289 108l107 -157q-164 -148 -404 -148q-251 0 -412 161t-161 405zM961 1518l-197 -297h-184l165 297h216z" />
    <glyph glyph-name="Ccircumflex" unicode="&#x108;" horiz-adv-x="1482" 
d="M334 696q0 -221 143 -369.5t363 -148.5q262 0 442 166l102 -151q-213 -213 -544 -213q-204 0 -370 93.5t-260.5 257.5t-94.5 365q0 151 55.5 284t151.5 228t230.5 150t287.5 55q331 0 544 -213l-102 -151q-179 165 -442 165q-220 0 -363 -148.5t-143 -369.5zM995 1542
l-155 189l-156 -189h-168l217 297h211l217 -297h-166z" />
    <glyph glyph-name="ccircumflex" unicode="&#x109;" horiz-adv-x="1185" 
d="M113 537q0 160 72 288t203.5 201.5t297.5 73.5q240 0 404 -148l-107 -157q-117 108 -289 108q-162 0 -263 -102.5t-101 -263.5t101 -265t263 -104q172 0 289 108l107 -157q-164 -148 -404 -148q-251 0 -412 161t-161 405zM846 1221l-156 188l-155 -188h-168l217 297h211
l217 -297h-166z" />
    <glyph glyph-name="Cdotaccent" unicode="&#x10a;" horiz-adv-x="1482" 
d="M334 696q0 -221 143 -369.5t363 -148.5q262 0 442 166l102 -151q-213 -213 -544 -213q-204 0 -370 93.5t-260.5 257.5t-94.5 365q0 151 55.5 284t151.5 228t230.5 150t287.5 55q331 0 544 -213l-102 -151q-179 165 -442 165q-220 0 -363 -148.5t-143 -369.5zM715 1698
q0 114 131 114q127 0 127 -114q0 -117 -127 -117q-131 0 -131 117z" />
    <glyph glyph-name="cdotaccent" unicode="&#x10b;" horiz-adv-x="1185" 
d="M113 537q0 160 72 288t203.5 201.5t297.5 73.5q240 0 404 -148l-107 -157q-117 108 -289 108q-162 0 -263 -102.5t-101 -263.5t101 -265t263 -104q172 0 289 108l107 -157q-164 -148 -404 -148q-251 0 -412 161t-161 405zM559 1376q0 115 131 115q127 0 127 -115
q0 -116 -127 -116q-131 0 -131 116z" />
    <glyph glyph-name="Ccaron" unicode="&#x10c;" horiz-adv-x="1482" 
d="M334 696q0 -221 143 -369.5t363 -148.5q262 0 442 166l102 -151q-213 -213 -544 -213q-204 0 -370 93.5t-260.5 257.5t-94.5 365q0 151 55.5 284t151.5 228t230.5 150t287.5 55q331 0 544 -213l-102 -151q-179 165 -442 165q-220 0 -363 -148.5t-143 -369.5zM688 1839
l156 -186l155 186h166l-217 -297h-211l-217 297h168z" />
    <glyph glyph-name="ccaron" unicode="&#x10d;" horiz-adv-x="1185" 
d="M113 537q0 160 72 288t203.5 201.5t297.5 73.5q240 0 404 -148l-107 -157q-117 108 -289 108q-162 0 -263 -102.5t-101 -263.5t101 -265t263 -104q172 0 289 108l107 -157q-164 -148 -404 -148q-251 0 -412 161t-161 405zM539 1518l155 -187l156 187h166l-217 -297h-211
l-217 297h168z" />
    <glyph glyph-name="Dcaron" unicode="&#x10e;" horiz-adv-x="1611" 
d="M205 0v1393h567q155 -1 286 -47t227.5 -132.5t151 -220t54.5 -299.5q0 -165 -54.5 -297.5t-151 -218.5t-227.5 -132t-286 -46h-567zM764 1206h-346v-1020h346q228 0 368 133.5t140 374.5q0 243 -139.5 376.5t-368.5 135.5zM545 1839l155 -186l156 186h166l-217 -297h-211
l-217 297h168z" />
    <glyph glyph-name="dcaron" unicode="&#x10f;" horiz-adv-x="1472" 
d="M115 537q0 245 142 399t372 154q103 0 191 -38.5t151 -101.5v504h213v-1454h-213v125q-134 -145 -342 -145q-230 0 -372 156t-142 401zM332 537q0 -165 96.5 -268t255.5 -103q84 0 160.5 35.5t126.5 85.5v491q-50 52 -127.5 88.5t-159.5 36.5q-159 0 -255.5 -101
t-96.5 -265zM1368 1042l49 138q-52 7 -80 37t-28 73q0 57 34.5 89t90.5 32q68 0 105.5 -35.5t37.5 -101.5q0 -130 -102 -270z" />
    <glyph glyph-name="Dcroat" unicode="&#x110;" horiz-adv-x="1622" 
d="M217 754v639h565q155 -1 286 -47t227.5 -132.5t151 -220t54.5 -299.5q0 -165 -54.5 -297.5t-151 -218.5t-227.5 -132t-286 -46h-565v641h-131v113h131zM430 754h315v-113h-315v-455h344q229 0 369.5 134t140.5 374q0 243 -140.5 376.5t-369.5 135.5h-344v-452z" />
    <glyph glyph-name="dcroat" unicode="&#x111;" 
d="M115 537q0 245 142 399t372 154q103 0 191 -38.5t151 -101.5v254h-250v113h250v137h213v-137h198v-113h-198v-1204h-213v125q-134 -145 -342 -145q-230 0 -372 156t-142 401zM332 537q0 -165 96.5 -268t255.5 -103q84 0 160.5 35.5t126.5 85.5v491q-50 52 -127.5 88.5
t-159.5 36.5q-159 0 -255.5 -101t-96.5 -265z" />
    <glyph glyph-name="Emacron" unicode="&#x112;" horiz-adv-x="1402" 
d="M1286 0h-1081v1393h1081v-189h-876v-391h727v-188h-727v-437h876v-188zM997 1597h-505v150h505v-150z" />
    <glyph glyph-name="emacron" unicode="&#x113;" horiz-adv-x="1269" 
d="M1055 270l84 -153q-180 -146 -445 -146q-147 0 -260 43.5t-181.5 121t-103 177.5t-34.5 219q0 158 67.5 286.5t196.5 205t297 76.5q119 0 211.5 -35t149.5 -96.5t86.5 -141.5t29.5 -174q0 -113 -23 -188h-796q16 -146 107 -229.5t259 -83.5q196 0 355 118zM944 631
q4 32 4 57q0 100 -69.5 167t-206.5 67q-144 0 -232.5 -83.5t-101.5 -207.5h606zM930 1276h-506v149h506v-149z" />
    <glyph glyph-name="Ebreve" unicode="&#x114;" horiz-adv-x="1402" 
d="M1286 0h-1081v1393h1081v-189h-876v-391h727v-188h-727v-437h876v-188zM457 1714l59 86q81 -102 227 -102q77 0 135 29.5t89 72.5l61 -86q-39 -68 -110.5 -115t-172.5 -47t-174 47t-114 115z" />
    <glyph glyph-name="ebreve" unicode="&#x115;" horiz-adv-x="1269" 
d="M1055 270l84 -153q-180 -146 -445 -146q-147 0 -260 43.5t-181.5 121t-103 177.5t-34.5 219q0 158 67.5 286.5t196.5 205t297 76.5q119 0 211.5 -35t149.5 -96.5t86.5 -141.5t29.5 -174q0 -113 -23 -188h-796q16 -146 107 -229.5t259 -83.5q196 0 355 118zM944 631
q4 32 4 57q0 100 -69.5 167t-206.5 67q-144 0 -232.5 -83.5t-101.5 -207.5h606zM397 1393l60 86q82 -103 227 -103q77 0 134 30t89 73l62 -86q-39 -68 -110.5 -115t-172.5 -47t-174.5 47t-114.5 115z" />
    <glyph glyph-name="Edotaccent" unicode="&#x116;" horiz-adv-x="1402" 
d="M1286 0h-1081v1393h1081v-189h-876v-391h727v-188h-727v-437h876v-188zM612 1698q0 114 131 114q127 0 127 -114q0 -117 -127 -117q-131 0 -131 117z" />
    <glyph glyph-name="edotaccent" unicode="&#x117;" horiz-adv-x="1269" 
d="M1055 270l84 -153q-180 -146 -445 -146q-147 0 -260 43.5t-181.5 121t-103 177.5t-34.5 219q0 158 67.5 286.5t196.5 205t297 76.5q119 0 211.5 -35t149.5 -96.5t86.5 -141.5t29.5 -174q0 -113 -23 -188h-796q16 -146 107 -229.5t259 -83.5q196 0 355 118zM944 631
q4 32 4 57q0 100 -69.5 167t-206.5 67q-144 0 -232.5 -83.5t-101.5 -207.5h606zM555 1376q0 115 131 115q127 0 127 -115q0 -116 -127 -116q-131 0 -131 116z" />
    <glyph glyph-name="Eogonek" unicode="&#x118;" horiz-adv-x="1402" 
d="M1286 0h-39q-81 -5 -132.5 -44.5t-51.5 -105.5q0 -53 31 -82.5t86 -29.5q54 0 114 37l23 -101q-73 -41 -166 -41q-87 0 -141 51.5t-54 139.5q0 59 33.5 105t85.5 71h-870v1393h1081v-189h-876v-391h727v-188h-727v-437h876v-188z" />
    <glyph glyph-name="eogonek" unicode="&#x119;" horiz-adv-x="1269" 
d="M1055 270l84 -153q-139 -113 -338 -140q-88 -42 -88 -127q0 -54 31 -83t85 -29q55 0 115 37l23 -101q-73 -41 -166 -41q-87 0 -141 51.5t-54 139.5q0 90 74 147q-143 2 -253 46.5t-177.5 121.5t-101 176t-33.5 217q0 158 67.5 286.5t196.5 205t297 76.5q119 0 211.5 -35
t149.5 -96.5t86.5 -141.5t29.5 -174q0 -113 -23 -188h-796q16 -146 107 -229.5t259 -83.5q196 0 355 118zM944 631q4 32 4 57q0 100 -69.5 167t-206.5 67q-144 0 -232.5 -83.5t-101.5 -207.5h606z" />
    <glyph glyph-name="Ecaron" unicode="&#x11a;" horiz-adv-x="1402" 
d="M1286 0h-1081v1393h1081v-189h-876v-391h727v-188h-727v-437h876v-188zM590 1839l155 -186l156 186h166l-217 -297h-211l-217 297h168z" />
    <glyph glyph-name="ecaron" unicode="&#x11b;" horiz-adv-x="1269" 
d="M1055 270l84 -153q-180 -146 -445 -146q-147 0 -260 43.5t-181.5 121t-103 177.5t-34.5 219q0 158 67.5 286.5t196.5 205t297 76.5q119 0 211.5 -35t149.5 -96.5t86.5 -141.5t29.5 -174q0 -113 -23 -188h-796q16 -146 107 -229.5t259 -83.5q196 0 355 118zM944 631
q4 32 4 57q0 100 -69.5 167t-206.5 67q-144 0 -232.5 -83.5t-101.5 -207.5h606zM522 1518l156 -187l156 187h165l-217 -297h-211l-217 297h168z" />
    <glyph glyph-name="Gcircumflex" unicode="&#x11c;" horiz-adv-x="1581" 
d="M1444 780v-616q-100 -77 -265 -130.5t-321 -53.5q-155 0 -290 49t-235 139t-158 226t-58 300q0 166 58 303t158 227t235 139.5t290 49.5q305 0 533 -192l-103 -164q-181 157 -426 157q-149 0 -267 -60t-188.5 -179.5t-70.5 -280.5q0 -159 70.5 -277.5t191 -178.5
t272.5 -60q100 0 195.5 27t165.5 71v318h-432v186h645zM1014 1542l-156 189l-156 -189h-167l217 297h211l217 -297h-166z" />
    <glyph glyph-name="gcircumflex" unicode="&#x11d;" 
d="M117 573q0 142 63 259.5t181 187.5t268 70q207 0 342 -146v127h213v-956q0 -125 -41.5 -225.5t-113 -164t-164.5 -97.5t-199 -34q-34 0 -66.5 2.5t-62.5 8t-54 10t-51.5 14.5t-43 15t-40.5 17t-33 15.5t-30.5 15.5t-24.5 13l47 184q177 -112 359 -112q62 0 116 17.5
t97 52t67.5 92.5t24.5 133v135q-63 -65 -151 -105.5t-191 -40.5q-150 0 -268 69.5t-181 186t-63 256.5zM334 573q0 -141 96.5 -233t255.5 -92q83 0 159 35t126 86v409q-47 52 -124 88.5t-161 36.5q-158 0 -255 -94t-97 -236zM852 1221l-156 188l-155 -188h-168l217 297h211
l217 -297h-166z" />
    <glyph glyph-name="Gbreve" unicode="&#x11e;" horiz-adv-x="1581" 
d="M1444 780v-616q-100 -77 -265 -130.5t-321 -53.5q-155 0 -290 49t-235 139t-158 226t-58 300q0 166 58 303t158 227t235 139.5t290 49.5q305 0 533 -192l-103 -164q-181 157 -426 157q-149 0 -267 -60t-188.5 -179.5t-70.5 -280.5q0 -159 70.5 -277.5t191 -178.5
t272.5 -60q100 0 195.5 27t165.5 71v318h-432v186h645zM575 1714l60 86q81 -102 227 -102q77 0 134.5 29.5t88.5 72.5l62 -86q-39 -68 -110.5 -115t-172.5 -47t-174.5 47t-114.5 115z" />
    <glyph glyph-name="gbreve" unicode="&#x11f;" 
d="M117 573q0 142 63 259.5t181 187.5t268 70q207 0 342 -146v127h213v-956q0 -125 -41.5 -225.5t-113 -164t-164.5 -97.5t-199 -34q-34 0 -66.5 2.5t-62.5 8t-54 10t-51.5 14.5t-43 15t-40.5 17t-33 15.5t-30.5 15.5t-24.5 13l47 184q177 -112 359 -112q62 0 116 17.5
t97 52t67.5 92.5t24.5 133v135q-63 -65 -151 -105.5t-191 -40.5q-150 0 -268 69.5t-181 186t-63 256.5zM334 573q0 -141 96.5 -233t255.5 -92q83 0 159 35t126 86v409q-47 52 -124 88.5t-161 36.5q-158 0 -255 -94t-97 -236zM418 1393l59 86q82 -103 228 -103q77 0 134 30
t89 73l61 -86q-39 -68 -110 -115t-172 -47t-174.5 47t-114.5 115z" />
    <glyph glyph-name="Gdotaccent" unicode="&#x120;" horiz-adv-x="1581" 
d="M1444 780v-616q-100 -77 -265 -130.5t-321 -53.5q-155 0 -290 49t-235 139t-158 226t-58 300q0 166 58 303t158 227t235 139.5t290 49.5q305 0 533 -192l-103 -164q-181 157 -426 157q-149 0 -267 -60t-188.5 -179.5t-70.5 -280.5q0 -159 70.5 -277.5t191 -178.5
t272.5 -60q100 0 195.5 27t165.5 71v318h-432v186h645zM723 1698q0 114 131 114q127 0 127 -114q0 -117 -127 -117q-131 0 -131 117z" />
    <glyph glyph-name="gdotaccent" unicode="&#x121;" 
d="M117 573q0 142 63 259.5t181 187.5t268 70q207 0 342 -146v127h213v-956q0 -125 -41.5 -225.5t-113 -164t-164.5 -97.5t-199 -34q-34 0 -66.5 2.5t-62.5 8t-54 10t-51.5 14.5t-43 15t-40.5 17t-33 15.5t-30.5 15.5t-24.5 13l47 184q177 -112 359 -112q62 0 116 17.5
t97 52t67.5 92.5t24.5 133v135q-63 -65 -151 -105.5t-191 -40.5q-150 0 -268 69.5t-181 186t-63 256.5zM334 573q0 -141 96.5 -233t255.5 -92q83 0 159 35t126 86v409q-47 52 -124 88.5t-161 36.5q-158 0 -255 -94t-97 -236zM588 1376q0 115 131 115q127 0 127 -115
q0 -116 -127 -116q-131 0 -131 116z" />
    <glyph glyph-name="Gcommaaccent" unicode="&#x122;" horiz-adv-x="1581" 
d="M1444 780v-616q-100 -77 -265 -130.5t-321 -53.5q-155 0 -290 49t-235 139t-158 226t-58 300q0 166 58 303t158 227t235 139.5t290 49.5q305 0 533 -192l-103 -164q-181 157 -426 157q-149 0 -267 -60t-188.5 -179.5t-70.5 -280.5q0 -159 70.5 -277.5t191 -178.5
t272.5 -60q100 0 195.5 27t165.5 71v318h-432v186h645zM756 -500l49 138q-52 7 -80.5 37t-28.5 73q0 57 34.5 89t90.5 32q68 0 106 -35.5t38 -101.5q0 -64 -29 -136.5t-74 -134.5z" />
    <glyph glyph-name="gcommaaccent" unicode="&#x123;" 
d="M117 573q0 142 63 259.5t181 187.5t268 70q207 0 342 -146v127h213v-956q0 -125 -41.5 -225.5t-113 -164t-164.5 -97.5t-199 -34q-34 0 -66.5 2.5t-62.5 8t-54 10t-51.5 14.5t-43 15t-40.5 17t-33 15.5t-30.5 15.5t-24.5 13l47 184q177 -112 359 -112q62 0 116 17.5
t97 52t67.5 92.5t24.5 133v135q-63 -65 -151 -105.5t-191 -40.5q-150 0 -268 69.5t-181 186t-63 256.5zM334 573q0 -141 96.5 -233t255.5 -92q83 0 159 35t126 86v409q-47 52 -124 88.5t-161 36.5q-158 0 -255 -94t-97 -236zM774 1583l-49 -137q54 -7 82.5 -37.5t28.5 -73.5
q0 -57 -34.5 -89t-90.5 -32q-69 0 -106.5 36.5t-37.5 101.5q0 64 28.5 137.5t72.5 132.5z" />
    <glyph glyph-name="Hcircumflex" unicode="&#x124;" horiz-adv-x="1699" 
d="M1282 0v608h-864v-608h-213v1393h213v-598h864v598h213v-1393h-213zM1004 1542l-156 189l-156 -189h-168l217 297h211l217 -297h-165z" />
    <glyph glyph-name="hcircumflex" unicode="&#x125;" 
d="M182 1454h213v-545q62 86 159.5 133.5t223.5 47.5q106 0 187.5 -36.5t131 -101.5t74.5 -149.5t25 -186.5v-616h-213v584q0 143 -68 226t-204 83q-119 0 -201.5 -67t-114.5 -164v-662h-213v1454zM846 1540l-156 189l-155 -189h-168l217 297h211l217 -297h-166z" />
    <glyph glyph-name="Hbar" unicode="&#x126;" horiz-adv-x="1718" 
d="M213 0v1034h-94v113h94v246h213v-246h864v246h213v-246h105v-113h-105v-1034h-213v608h-864v-608h-213zM426 1034v-239h864v239h-864z" />
    <glyph glyph-name="hbar" unicode="&#x127;" 
d="M182 1454h213v-137h293v-113h-293v-295q62 86 159.5 133.5t223.5 47.5q106 0 187.5 -36.5t131 -101.5t74.5 -149.5t25 -186.5v-616h-213v584q0 143 -68 226t-204 83q-119 0 -201.5 -67t-114.5 -164v-662h-213v1204h-155v113h155v137z" />
    <glyph glyph-name="Itilde" unicode="&#x128;" horiz-adv-x="624" 
d="M205 0v1393h213v-1393h-213zM16 1577l-69 88q32 65 89 110.5t124 45.5q42 0 88 -20t78.5 -44.5t70.5 -44.5t66 -20q92 0 141 96l70 -86q-36 -73 -90.5 -116.5t-120.5 -43.5q-40 0 -85.5 20.5t-79 45t-71.5 45t-65 20.5q-88 0 -146 -96z" />
    <glyph glyph-name="itilde" unicode="&#x129;" horiz-adv-x="579" 
d="M-8 1255l-70 88q32 65 89 110.5t124 45.5q42 0 88 -20t78.5 -44.5t70.5 -44.5t66 -20q93 0 142 96l69 -86q-35 -72 -90 -115.5t-121 -43.5q-40 0 -85.5 20.5t-79 45t-71.5 45t-65 20.5q-87 0 -145 -97zM395 0h-213v1071h213v-1071z" />
    <glyph glyph-name="Imacron" unicode="&#x12a;" horiz-adv-x="624" 
d="M205 0v1393h213v-1393h-213zM563 1597h-506v150h506v-150z" />
    <glyph glyph-name="imacron" unicode="&#x12b;" horiz-adv-x="579" 
d="M541 1276h-506v149h506v-149zM395 0h-213v1071h213v-1071z" />
    <glyph glyph-name="Ibreve" unicode="&#x12c;" horiz-adv-x="624" 
d="M205 0v1393h213v-1393h-213zM25 1714l59 86q81 -102 227 -102q77 0 135 29.5t89 72.5l61 -86q-39 -68 -110.5 -115t-172.5 -47t-174 47t-114 115z" />
    <glyph glyph-name="ibreve" unicode="&#x12d;" horiz-adv-x="579" 
d="M0 1393l59 86q82 -103 228 -103q77 0 134 30t89 73l61 -86q-39 -68 -110 -115t-172 -47t-174.5 47t-114.5 115zM395 0h-213v1071h213v-1071z" />
    <glyph glyph-name="Iogonek" unicode="&#x12e;" horiz-adv-x="626" 
d="M420 0h-62q-81 -5 -132.5 -44.5t-51.5 -105.5q0 -53 31 -82.5t86 -29.5t115 37l22 -101q-73 -41 -166 -41q-87 0 -140.5 51.5t-53.5 139.5q0 66 40 114t99 70v1385h213v-1393z" />
    <glyph glyph-name="iogonek" unicode="&#x12f;" horiz-adv-x="581" 
d="M184 0v1071h213v-1071h-32q-81 -5 -133 -45t-52 -105q0 -53 31 -82.5t86 -29.5t115 37l22 -101q-73 -41 -166 -41q-87 0 -140.5 51.5t-53.5 139.5q0 59 33.5 105t85.5 71h-9zM162 1376q0 115 131 115q127 0 127 -115q0 -116 -127 -116q-131 0 -131 116z" />
    <glyph glyph-name="Idotaccent" unicode="&#x130;" horiz-adv-x="624" 
d="M205 0v1393h213v-1393h-213zM180 1698q0 114 131 114q127 0 127 -114q0 -117 -127 -117q-131 0 -131 117z" />
    <glyph glyph-name="dotlessi" unicode="&#x131;" horiz-adv-x="579" 
d="M395 0h-213v1071h213v-1071z" />
    <glyph glyph-name="IJ" unicode="&#x132;" horiz-adv-x="1968" 
d="M205 0v1393h213v-1393h-213zM1567 1393h215v-852q0 -255 -142 -409.5t-405 -154.5q-259 0 -393 144t-150 401l211 21q13 -178 92 -272.5t242 -94.5q166 0 248 99.5t82 279.5v838z" />
    <glyph glyph-name="ij" unicode="&#x133;" horiz-adv-x="1236" 
d="M160 1376q0 115 131 115q127 0 127 -115q0 -116 -127 -116q-131 0 -131 116zM182 0v1071h213v-1071h-213zM840 1071h213v-1001q0 -327 -289 -473l-125 141q98 56 149.5 129.5t51.5 195.5v1008zM819 1376q0 115 129 115q127 0 127 -115q0 -116 -127 -116q-129 0 -129 116z
" />
    <glyph glyph-name="Jcircumflex" unicode="&#x134;" horiz-adv-x="1331" 
d="M928 1393h215v-852q0 -255 -142 -409.5t-405 -154.5q-259 0 -393 144t-150 401l211 21q13 -178 92 -272.5t242 -94.5q166 0 248 99.5t82 279.5v838zM1184 1542l-156 189l-156 -189h-167l217 297h211l217 -297h-166z" />
    <glyph glyph-name="jcircumflex" unicode="&#x135;" horiz-adv-x="579" 
d="M106 -403l-124 127q200 115 200 331v1016h213v-1001q0 -327 -289 -473zM442 1221l-155 188l-156 -188h-168l217 297h211l217 -297h-166z" />
    <glyph glyph-name="Kcommaaccent" unicode="&#x136;" horiz-adv-x="1415" 
d="M205 0v1393h213v-613h174l514 613h221v-33l-553 -674l610 -655v-31h-254l-540 592h-172v-592h-213zM637 -500l49 138q-52 7 -80 37t-28 73q0 57 34.5 89t89.5 32q68 0 106 -35.5t38 -101.5q0 -64 -29 -136.5t-74 -134.5z" />
    <glyph glyph-name="kcommaaccent" unicode="&#x137;" horiz-adv-x="1212" 
d="M1122 1071v-35l-512 -471l547 -530v-35h-256l-506 510v-510h-213v1454h213v-844l488 461h239zM539 -500l49 138q-52 7 -80.5 37t-28.5 73q0 57 34.5 89t90.5 32q68 0 106 -35.5t38 -101.5q0 -64 -29 -136.5t-74 -134.5z" />
    <glyph glyph-name="kgreenlandic" unicode="&#x138;" horiz-adv-x="1210" 
d="M1122 1071v-35l-512 -508l547 -493v-35h-256l-506 473v-473h-213v1071h213v-500l488 500h239z" />
    <glyph glyph-name="Lacute" unicode="&#x139;" horiz-adv-x="1220" 
d="M1180 0h-975v1393h213v-1207h762v-186zM592 1839l-197 -297h-184l166 297h215z" />
    <glyph glyph-name="lacute" unicode="&#x13a;" horiz-adv-x="675" 
d="M186 1454h213v-1159q0 -66 28 -99.5t79 -33.5q62 0 125 37l16 -170q-100 -49 -219 -49q-242 0 -242 266v1208zM557 1837l-197 -297h-184l166 297h215z" />
    <glyph glyph-name="Lcommaaccent" unicode="&#x13b;" horiz-adv-x="1220" 
d="M1180 0h-975v1393h213v-1207h762v-186zM600 -500l49 138q-52 7 -80 37t-28 73q0 57 34.5 89t90.5 32q68 0 105.5 -35.5t37.5 -101.5q0 -65 -28.5 -137t-73.5 -134z" />
    <glyph glyph-name="lcommaaccent" unicode="&#x13c;" horiz-adv-x="675" 
d="M186 1454h213v-1159q0 -66 28 -99.5t79 -33.5q62 0 125 37l16 -170q-100 -49 -219 -49q-242 0 -242 266v1208zM307 -500l49 138q-52 7 -80 37t-28 73q0 57 34.5 89t90.5 32q68 0 105.5 -35.5t37.5 -101.5q0 -65 -28.5 -137t-73.5 -134z" />
    <glyph glyph-name="Lcaron" unicode="&#x13d;" horiz-adv-x="1228" 
d="M1180 0h-975v1393h213v-1207h762v-186zM856 1042l49 138q-52 7 -80 37t-28 73q0 57 34.5 89t90.5 32q68 0 105.5 -35.5t37.5 -101.5q0 -130 -102 -270z" />
    <glyph glyph-name="lcaron" unicode="&#x13e;" horiz-adv-x="735" 
d="M186 1454h213v-1159q0 -66 28 -99.5t79 -33.5q62 0 125 37l16 -170q-100 -49 -219 -49q-242 0 -242 266v1208zM584 1042l49 138q-52 7 -80.5 37t-28.5 73q0 57 34.5 89t90.5 32q68 0 106 -35.5t38 -101.5q0 -129 -103 -270z" />
    <glyph glyph-name="Ldot" unicode="&#x13f;" horiz-adv-x="1239" 
d="M1180 0h-975v1393h213v-1207h762v-186zM707 766q0 64 35 98.5t100 34.5t100 -34.5t35 -98.5q0 -65 -35 -99t-100 -34t-100 34t-35 99z" />
    <glyph glyph-name="ldot" unicode="&#x140;" horiz-adv-x="845" 
d="M186 1454h213v-1159q0 -66 28 -99.5t79 -33.5q62 0 125 37l16 -170q-100 -49 -219 -49q-242 0 -242 266v1208zM563 766q0 64 35 98.5t100 34.5t100.5 -34.5t35.5 -98.5q0 -65 -35.5 -99t-100.5 -34t-100 34t-35 99z" />
    <glyph glyph-name="Lslash" unicode="&#x141;" horiz-adv-x="1230" 
d="M1190 0h-975v551l-106 -53v172l106 53v670h213v-562l262 134v-172l-262 -134v-473h762v-186z" />
    <glyph glyph-name="lslash" unicode="&#x142;" horiz-adv-x="688" 
d="M641 199l16 -170q-100 -49 -219 -49q-241 0 -241 266v375l-101 -52v174l101 52v659h213v-551l168 86v-172l-168 -88v-434q0 -133 106 -133q59 0 125 37z" />
    <glyph glyph-name="Nacute" unicode="&#x143;" horiz-adv-x="1697" 
d="M1305 0l-887 1053v-1053h-213v1393h188l885 -1057v1057h213v-1393h-186zM1130 1839l-196 -297h-184l165 297h215z" />
    <glyph glyph-name="nacute" unicode="&#x144;" 
d="M182 1071h213v-166q62 87 159.5 136t223.5 49q106 0 187.5 -36.5t131 -101.5t74.5 -149.5t25 -186.5v-616h-213v584q0 143 -68 226t-204 83q-119 0 -201.5 -67t-114.5 -164v-662h-213v1071zM979 1518l-197 -297h-184l166 297h215z" />
    <glyph glyph-name="Ncommaaccent" unicode="&#x145;" horiz-adv-x="1697" 
d="M1305 0l-887 1053v-1053h-213v1393h188l885 -1057v1057h213v-1393h-186zM745 -500l50 138q-52 7 -80.5 37t-28.5 73q0 57 34.5 89t90.5 32q68 0 105.5 -35.5t37.5 -101.5q0 -65 -28.5 -137t-73.5 -134z" />
    <glyph glyph-name="ncommaaccent" unicode="&#x146;" 
d="M182 1071h213v-166q62 87 159.5 136t223.5 49q106 0 187.5 -36.5t131 -101.5t74.5 -149.5t25 -186.5v-616h-213v584q0 143 -68 226t-204 83q-119 0 -201.5 -67t-114.5 -164v-662h-213v1071zM610 -500l49 138q-52 7 -80 37t-28 73q0 57 34.5 89t90.5 32q68 0 105.5 -35.5
t37.5 -101.5q0 -65 -28.5 -137t-73.5 -134z" />
    <glyph glyph-name="Ncaron" unicode="&#x147;" horiz-adv-x="1697" 
d="M1305 0l-887 1053v-1053h-213v1393h188l885 -1057v1057h213v-1393h-186zM709 1839l155 -186l156 186h166l-217 -297h-211l-217 297h168z" />
    <glyph glyph-name="ncaron" unicode="&#x148;" 
d="M182 1071h213v-166q62 87 159.5 136t223.5 49q106 0 187.5 -36.5t131 -101.5t74.5 -149.5t25 -186.5v-616h-213v584q0 143 -68 226t-204 83q-119 0 -201.5 -67t-114.5 -164v-662h-213v1071zM528 1518l156 -187l156 187h166l-218 -297h-210l-218 297h168z" />
    <glyph glyph-name="napostrophe" unicode="&#x149;" horiz-adv-x="1546" 
d="M362 1071h213v-166q62 87 159.5 136t223.5 49q106 0 187.5 -36.5t131 -101.5t74.5 -149.5t25 -186.5v-616h-213v584q0 143 -68 226t-204 83q-119 0 -201.5 -67t-114.5 -164v-662h-213v1071zM100 1047l50 137q-52 7 -80.5 37t-28.5 73q0 57 34.5 89t90.5 32
q68 0 105.5 -35.5t37.5 -101.5q0 -130 -102 -270z" />
    <glyph glyph-name="Eng" unicode="&#x14a;" horiz-adv-x="1697" 
d="M1278 55l-860 998v-1053h-213v1393h188l885 -1047v1047h213v-1319q0 -327 -289 -475l-125 127q201 117 201 329z" />
    <glyph glyph-name="eng" unicode="&#x14b;" 
d="M985 57v529q0 144 -68 226.5t-204 82.5q-121 0 -203.5 -66.5t-112.5 -162.5v-662h-213v1069h213v-164q60 86 157.5 134.5t223.5 48.5q106 0 188 -36.5t132 -101.5t75 -149.5t25 -186.5v-544q0 -328 -291 -475l-123 127q201 117 201 331z" />
    <glyph glyph-name="Omacron" unicode="&#x14c;" horiz-adv-x="1665" 
d="M117 694q0 203 93 368t256.5 258t364.5 93q152 0 285.5 -55t228.5 -150t150 -228.5t55 -285.5q0 -201 -93 -364.5t-258 -256.5t-368 -93q-201 0 -364.5 93t-256.5 256.5t-93 364.5zM326 694q0 -221 143 -367.5t362 -146.5q221 0 364.5 146.5t143.5 367.5q0 224 -143 370
t-365 146q-219 0 -362 -146.5t-143 -369.5zM1083 1597h-505v150h505v-150z" />
    <glyph glyph-name="omacron" unicode="&#x14d;" horiz-adv-x="1370" 
d="M113 532q0 245 161.5 406.5t409.5 161.5q124 0 231 -43t182 -118.5t117.5 -180.5t42.5 -226q0 -159 -72.5 -287t-204 -201t-296.5 -73q-248 0 -409.5 159.5t-161.5 401.5zM319 532q0 -157 102 -260.5t263 -103.5q163 0 266 103.5t103 260.5q0 160 -103 265.5t-266 105.5
q-161 0 -263 -105.5t-102 -265.5zM936 1276h-506v149h506v-149z" />
    <glyph glyph-name="Obreve" unicode="&#x14e;" horiz-adv-x="1665" 
d="M117 694q0 203 93 368t256.5 258t364.5 93q152 0 285.5 -55t228.5 -150t150 -228.5t55 -285.5q0 -201 -93 -364.5t-258 -256.5t-368 -93q-201 0 -364.5 93t-256.5 256.5t-93 364.5zM326 694q0 -221 143 -367.5t362 -146.5q221 0 364.5 146.5t143.5 367.5q0 224 -143 370
t-365 146q-219 0 -362 -146.5t-143 -369.5zM545 1714l59 86q81 -102 227 -102q77 0 135 29.5t89 72.5l61 -86q-39 -68 -110 -115t-172 -47t-174.5 47t-114.5 115z" />
    <glyph glyph-name="obreve" unicode="&#x14f;" horiz-adv-x="1370" 
d="M113 532q0 245 161.5 406.5t409.5 161.5q124 0 231 -43t182 -118.5t117.5 -180.5t42.5 -226q0 -159 -72.5 -287t-204 -201t-296.5 -73q-248 0 -409.5 159.5t-161.5 401.5zM319 532q0 -157 102 -260.5t263 -103.5q163 0 266 103.5t103 260.5q0 160 -103 265.5t-266 105.5
q-161 0 -263 -105.5t-102 -265.5zM397 1393l60 86q82 -103 227 -103q77 0 134 30t89 73l62 -86q-39 -68 -110.5 -115t-172.5 -47t-174.5 47t-114.5 115z" />
    <glyph glyph-name="Ohungarumlaut" unicode="&#x150;" horiz-adv-x="1665" 
d="M117 694q0 203 93 368t256.5 258t364.5 93q152 0 285.5 -55t228.5 -150t150 -228.5t55 -285.5q0 -201 -93 -364.5t-258 -256.5t-368 -93q-201 0 -364.5 93t-256.5 256.5t-93 364.5zM326 694q0 -221 143 -367.5t362 -146.5q221 0 364.5 146.5t143.5 367.5q0 224 -143 370
t-365 146q-219 0 -362 -146.5t-143 -369.5zM952 1839l-198 -297h-183l168 297h213zM1335 1839l-196 -297h-185l168 297h213z" />
    <glyph glyph-name="ohungarumlaut" unicode="&#x151;" horiz-adv-x="1370" 
d="M113 532q0 245 161.5 406.5t409.5 161.5q124 0 231 -43t182 -118.5t117.5 -180.5t42.5 -226q0 -159 -72.5 -287t-204 -201t-296.5 -73q-248 0 -409.5 159.5t-161.5 401.5zM319 532q0 -157 102 -260.5t263 -103.5q163 0 266 103.5t103 260.5q0 160 -103 265.5t-266 105.5
q-161 0 -263 -105.5t-102 -265.5zM778 1518l-198 -297h-183l168 297h213zM1161 1518l-196 -297h-185l168 297h213z" />
    <glyph glyph-name="OE" unicode="&#x152;" horiz-adv-x="2414" 
d="M1217 0v104q-181 -127 -392 -127q-151 0 -282.5 54.5t-225 149.5t-147 227.5t-53.5 283.5q0 203 91.5 367.5t253.5 258t363 93.5q219 0 392 -127v109h1079v-189h-875v-397h725v-174h-725v-447h875v-186h-1079zM322 692q0 -221 146.5 -367.5t371.5 -146.5
q111 0 209.5 40.5t167.5 109.5v733q-70 70 -168.5 110.5t-212.5 40.5q-222 0 -368 -148.5t-146 -371.5z" />
    <glyph glyph-name="oe" unicode="&#x153;" horiz-adv-x="2250" 
d="M2116 473h-816q8 -151 105 -239.5t289 -88.5q95 0 185 33.5t157 85.5l84 -147q-180 -146 -445 -146q-197 0 -323 78.5t-181 214.5q-61 -135 -190 -214t-297 -79q-248 0 -409.5 159.5t-161.5 401.5q0 245 161.5 406.5t409.5 161.5q170 0 300.5 -83t191.5 -224
q58 139 183.5 223t297.5 84q119 0 212 -36t150 -98t86 -141.5t29 -171.5q0 -125 -18 -180zM319 532q0 -157 102 -261.5t263 -104.5q162 0 265.5 104.5t103.5 261.5q0 160 -103 265.5t-266 105.5q-161 0 -263 -105.5t-102 -265.5zM1657 938q-149 0 -244.5 -85t-109.5 -230
h653q4 40 4 59q0 116 -83.5 186t-219.5 70z" />
    <glyph glyph-name="Racute" unicode="&#x154;" horiz-adv-x="1478" 
d="M205 0v1393h606q158 0 273 -46.5t182 -148t67 -252.5q0 -175 -112 -291.5t-285 -138.5l487 -481v-35h-245l-506 512h-254v-512h-213zM834 1206h-416v-524h416q121 0 199.5 69.5t78.5 190.5q0 128 -77.5 196t-200.5 68zM981 1839l-197 -297h-184l166 297h215z" />
    <glyph glyph-name="racute" unicode="&#x155;" horiz-adv-x="962" 
d="M182 0v1071h213v-211q111 230 307 230q127 0 228 -78l-84 -176q-78 57 -176 57q-99 0 -170.5 -68.5t-104.5 -175.5v-649h-213zM776 1518l-196 -297h-185l166 297h215z" />
    <glyph glyph-name="Rcommaaccent" unicode="&#x156;" horiz-adv-x="1478" 
d="M205 0v1393h606q158 0 273 -46.5t182 -148t67 -252.5q0 -175 -112 -291.5t-285 -138.5l487 -481v-35h-245l-506 512h-254v-512h-213zM834 1206h-416v-524h416q121 0 199.5 69.5t78.5 190.5q0 128 -77.5 196t-200.5 68zM655 -500l50 138q-52 7 -80.5 37t-28.5 73
q0 57 34.5 89t90.5 32q68 0 105.5 -35.5t37.5 -101.5q0 -65 -28.5 -137t-73.5 -134z" />
    <glyph glyph-name="rcommaaccent" unicode="&#x157;" horiz-adv-x="962" 
d="M182 0v1071h213v-211q111 230 307 230q127 0 228 -78l-84 -176q-78 57 -176 57q-99 0 -170.5 -68.5t-104.5 -175.5v-649h-213zM211 -500l49 138q-52 7 -80 37t-28 73q0 57 34.5 89t89.5 32q68 0 106 -35.5t38 -101.5q0 -64 -29 -136.5t-74 -134.5z" />
    <glyph glyph-name="Rcaron" unicode="&#x158;" horiz-adv-x="1478" 
d="M205 0v1393h606q158 0 273 -46.5t182 -148t67 -252.5q0 -175 -112 -291.5t-285 -138.5l487 -481v-35h-245l-506 512h-254v-512h-213zM834 1206h-416v-524h416q121 0 199.5 69.5t78.5 190.5q0 128 -77.5 196t-200.5 68zM535 1839l155 -186l156 186h166l-217 -297h-211
l-217 297h168z" />
    <glyph glyph-name="rcaron" unicode="&#x159;" horiz-adv-x="962" 
d="M182 0v1071h213v-211q111 230 307 230q127 0 228 -78l-84 -176q-78 57 -176 57q-99 0 -170.5 -68.5t-104.5 -175.5v-649h-213zM362 1518l156 -187l156 187h166l-217 -297h-211l-217 297h167z" />
    <glyph glyph-name="Sacute" unicode="&#x15a;" horiz-adv-x="1288" 
d="M125 100l51 205q84 -52 200.5 -90.5t241.5 -38.5q155 0 249 57t94 158q0 73 -57 118.5t-185 76.5l-250 61q-173 41 -260.5 133t-87.5 230q0 84 33 155.5t97 127t169 87t239 31.5q137 0 269.5 -32.5t218.5 -78.5l-62 -196q-76 46 -198.5 78t-235.5 32q-155 0 -232 -51.5
t-77 -134.5q0 -69 46.5 -110t146.5 -68l270 -70q190 -51 283.5 -139.5t93.5 -232.5q0 -192 -159 -310t-409 -118q-138 0 -274.5 37.5t-214.5 82.5zM938 1839l-197 -297h-184l166 297h215z" />
    <glyph glyph-name="sacute" unicode="&#x15b;" horiz-adv-x="1089" 
d="M944 1012l-57 -185q-72 36 -162 59t-174 23q-101 0 -155 -35.5t-54 -103.5q0 -52 31.5 -73.5t124.5 -45.5l176 -43q161 -38 234 -110.5t73 -188.5q0 -149 -121 -239t-323 -90q-226 0 -406 92l41 184q183 -98 356 -98q108 0 173 36t65 101q0 47 -43 77.5t-129 51.5
l-168 41q-156 37 -225.5 104t-69.5 185q0 154 114 245t322 91q98 0 204.5 -23.5t172.5 -54.5zM807 1518l-197 -297h-184l166 297h215z" />
    <glyph glyph-name="Scircumflex" unicode="&#x15c;" horiz-adv-x="1288" 
d="M125 100l51 205q84 -52 200.5 -90.5t241.5 -38.5q155 0 249 57t94 158q0 73 -57 118.5t-185 76.5l-250 61q-173 41 -260.5 133t-87.5 230q0 84 33 155.5t97 127t169 87t239 31.5q137 0 269.5 -32.5t218.5 -78.5l-62 -196q-76 46 -198.5 78t-235.5 32q-155 0 -232 -51.5
t-77 -134.5q0 -69 46.5 -110t146.5 -68l270 -70q190 -51 283.5 -139.5t93.5 -232.5q0 -192 -159 -310t-409 -118q-138 0 -274.5 37.5t-214.5 82.5zM801 1542l-156 189l-156 -189h-167l217 297h211l217 -297h-166z" />
    <glyph glyph-name="scircumflex" unicode="&#x15d;" horiz-adv-x="1089" 
d="M944 1012l-57 -185q-72 36 -162 59t-174 23q-101 0 -155 -35.5t-54 -103.5q0 -52 31.5 -73.5t124.5 -45.5l176 -43q161 -38 234 -110.5t73 -188.5q0 -149 -121 -239t-323 -90q-226 0 -406 92l41 184q183 -98 356 -98q108 0 173 36t65 101q0 47 -43 77.5t-129 51.5
l-168 41q-156 37 -225.5 104t-69.5 185q0 154 114 245t322 91q98 0 204.5 -23.5t172.5 -54.5zM705 1221l-156 188l-156 -188h-168l217 297h211l217 -297h-165z" />
    <glyph glyph-name="Scedilla" unicode="&#x15e;" horiz-adv-x="1288" 
d="M487 -197l50 181q-120 10 -234 44t-178 72l51 205q84 -52 200.5 -90.5t241.5 -38.5q155 0 249 57t94 158q0 73 -57 118.5t-185 76.5l-250 61q-173 41 -260.5 133t-87.5 230q0 84 33 155.5t97 127t169 87t239 31.5q137 0 269.5 -32.5t218.5 -78.5l-62 -196
q-76 46 -198.5 78t-235.5 32q-155 0 -232 -51.5t-77 -134.5q0 -69 46.5 -110t146.5 -68l270 -70q190 -51 283.5 -139.5t93.5 -232.5q0 -189 -153.5 -306t-397.5 -122l-29 -107q24 6 60 6q82 0 128 -35.5t46 -95.5q0 -73 -62 -113.5t-158 -40.5q-81 0 -155 25l22 76
q75 -23 127 -23q56 0 89.5 18t33.5 54q0 63 -112 63q-73 0 -127 -14z" />
    <glyph glyph-name="scedilla" unicode="&#x15f;" horiz-adv-x="1091" 
d="M397 -197l49 181q-182 18 -313 88l41 184q183 -98 356 -98q108 0 173 36t65 101q0 47 -43 77.5t-129 51.5l-168 41q-156 37 -225.5 104t-69.5 185q0 154 114 245t322 91q98 0 204.5 -23.5t172.5 -54.5l-57 -185q-72 36 -162 59t-174 23q-101 0 -155 -35.5t-54 -103.5
q0 -52 31.5 -73.5t124.5 -45.5l176 -43q161 -38 234 -110.5t73 -188.5q0 -149 -120.5 -238t-321.5 -91l-29 -107q24 6 59 6q82 0 128 -35.5t46 -95.5q0 -73 -61.5 -113.5t-157.5 -40.5q-81 0 -155 25l22 76q75 -23 127 -23q56 0 89.5 18t33.5 54q0 63 -113 63
q-73 0 -127 -14z" />
    <glyph glyph-name="Scaron" unicode="&#x160;" horiz-adv-x="1288" 
d="M125 100l51 205q84 -52 200.5 -90.5t241.5 -38.5q155 0 249 57t94 158q0 73 -57 118.5t-185 76.5l-250 61q-173 41 -260.5 133t-87.5 230q0 84 33 155.5t97 127t169 87t239 31.5q137 0 269.5 -32.5t218.5 -78.5l-62 -196q-76 46 -198.5 78t-235.5 32q-155 0 -232 -51.5
t-77 -134.5q0 -69 46.5 -110t146.5 -68l270 -70q190 -51 283.5 -139.5t93.5 -232.5q0 -192 -159 -310t-409 -118q-138 0 -274.5 37.5t-214.5 82.5zM477 1839l156 -186l155 186h166l-217 -297h-211l-217 297h168z" />
    <glyph glyph-name="scaron" unicode="&#x161;" horiz-adv-x="1089" 
d="M944 1012l-57 -185q-72 36 -162 59t-174 23q-101 0 -155 -35.5t-54 -103.5q0 -52 31.5 -73.5t124.5 -45.5l176 -43q161 -38 234 -110.5t73 -188.5q0 -149 -121 -239t-323 -90q-226 0 -406 92l41 184q183 -98 356 -98q108 0 173 36t65 101q0 47 -43 77.5t-129 51.5
l-168 41q-156 37 -225.5 104t-69.5 185q0 154 114 245t322 91q98 0 204.5 -23.5t172.5 -54.5zM391 1518l156 -187l155 187h166l-217 -297h-211l-217 297h168z" />
    <glyph glyph-name="Tcommaaccent" unicode="&#x162;" horiz-adv-x="1284" 
d="M1235 1204h-475v-1204h-70l-37 -127q24 6 60 6q82 0 128 -35.5t46 -95.5q0 -73 -61.5 -113.5t-157.5 -40.5q-82 0 -156 25l23 76q75 -23 127 -23q56 0 89 18t33 54q0 63 -112 63q-73 0 -127 -14l-6 10l57 197h-49v1204h-500v189h1188v-189z" />
    <glyph glyph-name="tcommaaccent" unicode="&#x163;" horiz-adv-x="1019" 
d="M453 -197l51 189q-107 25 -165 111t-58 227v573h-201v168h201l24 272h189v-272h417v-168h-417v-532q0 -205 172 -205q59 0 124.5 24t112.5 58l70 -166q-166 -102 -371 -102h-6l-29 -107q24 6 60 6q82 0 128 -35.5t46 -95.5q0 -73 -61.5 -113.5t-157.5 -40.5
q-82 0 -156 25l23 76q75 -23 126 -23q56 0 89.5 18t33.5 54q0 63 -112 63q-73 0 -127 -14z" />
    <glyph glyph-name="Tcaron" unicode="&#x164;" horiz-adv-x="1284" 
d="M1235 1204h-475v-1204h-213v1204h-500v189h1188v-189zM498 1839l155 -186l156 186h166l-217 -297h-211l-217 297h168z" />
    <glyph glyph-name="tcaron" unicode="&#x165;" horiz-adv-x="1069" 
d="M303 1343h189v-272h417v-168h-417v-532q0 -205 172 -205q59 0 124.5 24t112.5 58l70 -166q-166 -102 -371 -102q-151 0 -236 90t-85 260v573h-201v168h201zM963 1042l49 138q-52 7 -80.5 37t-28.5 73q0 57 34.5 89t90.5 32q68 0 105.5 -35.5t37.5 -101.5
q0 -130 -102 -270z" />
    <glyph glyph-name="Tbar" unicode="&#x166;" horiz-adv-x="1284" 
d="M1235 1204h-475v-489h227v-113h-227v-602h-213v602h-219v113h219v489h-500v189h1188v-189z" />
    <glyph glyph-name="tbar" unicode="&#x167;" horiz-adv-x="1024" 
d="M498 903v-287h280v-112h-280v-133q0 -205 174 -205q57 0 122.5 24t112.5 58l70 -166q-166 -102 -371 -102q-151 0 -236 90t-85 260v174h-168v112h168v287h-201v168h217l21 272h176v-272h420v-168h-420z" />
    <glyph glyph-name="Utilde" unicode="&#x168;" horiz-adv-x="1603" 
d="M399 1393v-803q0 -193 100.5 -303.5t299.5 -110.5q200 0 302.5 114t102.5 302v801h213v-818q0 -122 -40 -229.5t-115.5 -190t-194.5 -130.5t-268 -48q-294 0 -453.5 164.5t-159.5 433.5v818h213zM506 1577l-70 88q32 65 89 110.5t124 45.5q42 0 88 -20t78.5 -44.5
t70.5 -44.5t66 -20q93 0 142 96l69 -86q-36 -73 -90.5 -116.5t-120.5 -43.5q-40 0 -85.5 20.5t-79 45t-71.5 45t-65 20.5q-87 0 -145 -96z" />
    <glyph glyph-name="utilde" unicode="&#x169;" 
d="M1184 0h-213v166q-62 -87 -158.5 -135.5t-222.5 -48.5q-106 0 -188 36t-132 101t-75 149.5t-25 186.5v616h213v-584q0 -143 68.5 -226t207.5 -83q117 0 199.5 68t112.5 164v661h213v-1071zM393 1255l-69 88q32 65 89 110.5t124 45.5q42 0 88 -20t78.5 -44.5t70.5 -44.5
t66 -20q92 0 141 96l70 -86q-35 -72 -90 -115.5t-121 -43.5q-40 0 -85.5 20.5t-79 45t-71.5 45t-65 20.5q-88 0 -146 -97z" />
    <glyph glyph-name="Umacron" unicode="&#x16a;" horiz-adv-x="1603" 
d="M399 1393v-803q0 -193 100.5 -303.5t299.5 -110.5q200 0 302.5 114t102.5 302v801h213v-818q0 -122 -40 -229.5t-115.5 -190t-194.5 -130.5t-268 -48q-294 0 -453.5 164.5t-159.5 433.5v818h213zM1053 1597h-506v150h506v-150z" />
    <glyph glyph-name="umacron" unicode="&#x16b;" 
d="M1184 0h-213v166q-62 -87 -158.5 -135.5t-222.5 -48.5q-106 0 -188 36t-132 101t-75 149.5t-25 186.5v616h213v-584q0 -143 68.5 -226t207.5 -83q117 0 199.5 68t112.5 164v661h213v-1071zM932 1276h-506v149h506v-149z" />
    <glyph glyph-name="Ubreve" unicode="&#x16c;" horiz-adv-x="1603" 
d="M399 1393v-803q0 -193 100.5 -303.5t299.5 -110.5q200 0 302.5 114t102.5 302v801h213v-818q0 -122 -40 -229.5t-115.5 -190t-194.5 -130.5t-268 -48q-294 0 -453.5 164.5t-159.5 433.5v818h213zM514 1714l59 86q81 -102 228 -102q77 0 134.5 29.5t88.5 72.5l61 -86
q-39 -68 -110 -115t-172 -47t-174.5 47t-114.5 115z" />
    <glyph glyph-name="ubreve" unicode="&#x16d;" 
d="M1184 0h-213v166q-62 -87 -158.5 -135.5t-222.5 -48.5q-106 0 -188 36t-132 101t-75 149.5t-25 186.5v616h213v-584q0 -143 68.5 -226t207.5 -83q117 0 199.5 68t112.5 164v661h213v-1071zM399 1393l60 86q82 -103 227 -103q77 0 134 30t89 73l62 -86
q-39 -68 -110.5 -115t-172.5 -47t-174.5 47t-114.5 115z" />
    <glyph glyph-name="Uring" unicode="&#x16e;" horiz-adv-x="1603" 
d="M399 1393v-803q0 -193 100.5 -303.5t299.5 -110.5q200 0 302.5 114t102.5 302v801h213v-818q0 -122 -40 -229.5t-115.5 -190t-194.5 -130.5t-268 -48q-294 0 -453.5 164.5t-159.5 433.5v818h213zM600 1612q0 83 59 141.5t142 58.5t141.5 -58.5t58.5 -141.5t-58.5 -142
t-141.5 -59t-142 59t-59 142zM694 1612q0 -44 31.5 -75.5t75.5 -31.5q43 0 73.5 31.5t30.5 75.5q0 43 -30.5 73.5t-73.5 30.5q-44 0 -75.5 -30.5t-31.5 -73.5z" />
    <glyph glyph-name="uring" unicode="&#x16f;" 
d="M1184 0h-213v166q-62 -87 -158.5 -135.5t-222.5 -48.5q-106 0 -188 36t-132 101t-75 149.5t-25 186.5v616h213v-584q0 -143 68.5 -226t207.5 -83q117 0 199.5 68t112.5 164v661h213v-1071zM471 1372q0 83 59 142t142 59t141.5 -59t58.5 -142t-58.5 -142t-141.5 -59
t-142 59t-59 142zM565 1372q0 -44 31.5 -75t75.5 -31q43 0 73.5 31t30.5 75q0 43 -30.5 74t-73.5 31q-44 0 -75.5 -31t-31.5 -74z" />
    <glyph glyph-name="Uhungarumlaut" unicode="&#x170;" horiz-adv-x="1603" 
d="M399 1393v-803q0 -193 100.5 -303.5t299.5 -110.5q200 0 302.5 114t102.5 302v801h213v-818q0 -122 -40 -229.5t-115.5 -190t-194.5 -130.5t-268 -48q-294 0 -453.5 164.5t-159.5 433.5v818h213zM889 1839l-199 -297h-182l168 297h213zM1272 1839l-197 -297h-184l168 297
h213z" />
    <glyph glyph-name="uhungarumlaut" unicode="&#x171;" 
d="M1184 0h-213v166q-62 -87 -158.5 -135.5t-222.5 -48.5q-106 0 -188 36t-132 101t-75 149.5t-25 186.5v616h213v-584q0 -143 68.5 -226t207.5 -83q117 0 199.5 68t112.5 164v661h213v-1071zM764 1518l-199 -297h-182l168 297h213zM1147 1518l-197 -297h-184l168 297h213z
" />
    <glyph glyph-name="Uogonek" unicode="&#x172;" horiz-adv-x="1603" 
d="M399 1393v-803q0 -194 101 -306t299 -112q199 0 302 115.5t103 304.5v801h213v-818q0 -108 -31.5 -204.5t-91 -174.5t-152.5 -132.5t-210 -73.5q-125 -43 -125 -140q0 -53 31 -82.5t86 -29.5q51 0 114 37l21 -101q-70 -41 -164 -41q-88 0 -142.5 51.5t-54.5 139.5
q0 94 88 153q-193 3 -330 81t-203.5 210.5t-66.5 306.5v818h213z" />
    <glyph glyph-name="uogonek" unicode="&#x173;" 
d="M1184 0h-31q-84 -3 -138 -43t-54 -107q0 -54 31 -83t85 -29q55 0 115 37l22 -101q-73 -41 -165 -41q-87 0 -141 51.5t-54 139.5q0 59 33.5 105t85.5 71h-2v166q-62 -87 -158.5 -135.5t-222.5 -48.5q-106 0 -188 36t-132 101t-75 149.5t-25 186.5v616h213v-584
q0 -143 68.5 -226t207.5 -83q117 0 199.5 68t112.5 164v661h213v-1071z" />
    <glyph glyph-name="Wcircumflex" unicode="&#x174;" horiz-adv-x="2236" 
d="M1395 0l-273 674l-293 -674h-229l-553 1393h229l457 -1153l295 686l-182 467h231l430 -1121l463 1121h232l-578 -1393h-229zM1276 1542l-156 189l-155 -189h-168l217 297h211l217 -297h-166z" />
    <glyph glyph-name="wcircumflex" unicode="&#x175;" horiz-adv-x="2054" 
d="M1765 1071h230l-406 -1071h-262l-299 856l-309 -856h-262l-391 1071h229l299 -874l309 874h254l295 -874zM1186 1221l-156 188l-156 -188h-167l217 297h211l217 -297h-166z" />
    <glyph glyph-name="Ycircumflex" unicode="&#x176;" horiz-adv-x="1413" 
d="M600 0v569l-563 807v17h237l433 -627l432 627h237v-17l-563 -805v-571h-213zM860 1542l-155 189l-156 -189h-168l217 297h211l217 -297h-166z" />
    <glyph glyph-name="ycircumflex" unicode="&#x177;" horiz-adv-x="1261" 
d="M973 1071h215l-467 -1114q-38 -94 -75.5 -158t-87 -112t-112.5 -70.5t-145 -22.5q-134 0 -246 74l35 174q104 -65 211 -65q81 0 127.5 40.5t85.5 131.5l29 69l-502 1053h235l361 -838zM786 1221l-155 188l-156 -188h-168l217 297h211l217 -297h-166z" />
    <glyph glyph-name="Ydieresis" unicode="&#x178;" horiz-adv-x="1413" 
d="M600 0v569l-563 807v17h237l433 -627l432 627h237v-17l-563 -805v-571h-213zM324 1694q0 110 122 110q123 0 123 -110q0 -111 -123 -111q-122 0 -122 111zM840 1694q0 110 125 110q120 0 120 -110q0 -111 -120 -111q-125 0 -125 111z" />
    <glyph glyph-name="Zacute" unicode="&#x179;" horiz-adv-x="1275" 
d="M111 154l782 1052h-782v187h1054v-154l-778 -1053h778v-186h-1054v154zM918 1839l-197 -297h-184l165 297h216z" />
    <glyph glyph-name="zacute" unicode="&#x17a;" horiz-adv-x="1095" 
d="M115 154l598 747h-598v170h866v-153l-596 -748h596v-170h-866v154zM823 1518l-196 -297h-185l166 297h215z" />
    <glyph glyph-name="Zdotaccent" unicode="&#x17b;" horiz-adv-x="1275" 
d="M111 154l782 1052h-782v187h1054v-154l-778 -1053h778v-186h-1054v154zM522 1698q0 114 131 114q127 0 127 -114q0 -117 -127 -117q-131 0 -131 117z" />
    <glyph glyph-name="zdotaccent" unicode="&#x17c;" horiz-adv-x="1095" 
d="M115 154l598 747h-598v170h866v-153l-596 -748h596v-170h-866v154zM438 1376q0 115 131 115q127 0 127 -115q0 -116 -127 -116q-131 0 -131 116z" />
    <glyph glyph-name="Zcaron" unicode="&#x17d;" horiz-adv-x="1275" 
d="M111 154l782 1052h-782v187h1054v-154l-778 -1053h778v-186h-1054v154zM492 1839l155 -186l156 186h166l-217 -297h-211l-217 297h168z" />
    <glyph glyph-name="zcaron" unicode="&#x17e;" horiz-adv-x="1095" 
d="M115 154l598 747h-598v170h866v-153l-596 -748h596v-170h-866v154zM399 1518l156 -187l156 187h166l-218 -297h-210l-218 297h168z" />
    <glyph glyph-name="florin" unicode="&#x192;" horiz-adv-x="1064" 
d="M940 643h-299v-706q0 -151 -80 -247t-233 -96q-70 0 -141.5 23.5t-110.5 54.5l39 178q80 -67 164 -67q149 0 149 158v702h-299v135h299v357q0 151 79 245.5t232 94.5q147 0 252 -78l-37 -185q-88 74 -166 74q-147 0 -147 -162v-346h299v-135z" />
    <glyph glyph-name="Aringacute" unicode="&#x1fa;" horiz-adv-x="1460" 
d="M35 0l563 1360q-61 42 -61 129q0 80 55.5 124t142.5 44t144 -44t57 -124q0 -85 -64 -129l541 -1360h-217l-123 307h-694l-127 -307h-217zM735 1180l-299 -711h582zM629 1489q0 -80 106 -80q107 0 107 80q0 78 -107 78q-106 0 -106 -78zM920 1858l-119 -160h-139l98 160
h160z" />
    <glyph glyph-name="aringacute" unicode="&#x1fb;" horiz-adv-x="1189" 
d="M233 831l-38 185q78 33 184 53.5t207 20.5q111 0 195.5 -31t135.5 -87.5t76 -129t25 -160.5v-682h-213v117q-145 -137 -342 -137q-171 0 -268 86t-97 235q0 186 136.5 282.5t367.5 96.5q100 0 203 -21v13q0 119 -58.5 177t-177.5 58q-84 0 -175 -21t-161 -55zM311 324
q0 -86 58 -130t159 -44q156 0 277 108v248q-74 18 -160 18q-149 0 -241.5 -50t-92.5 -150zM410 1341q0 80 56.5 125t143.5 45t144 -45t57 -125t-57 -123.5t-144 -43.5t-143.5 43.5t-56.5 123.5zM506 1341q0 -79 104 -79q107 0 107 79q0 80 -107 80q-104 0 -104 -80z
M797 1710l-123 -160h-137l100 160h160z" />
    <glyph glyph-name="AEacute" unicode="&#x1fc;" horiz-adv-x="2164" 
d="M967 0v307h-549l-189 -307h-229l844 1393h1202v-189h-875v-397h725v-174h-725v-447h875v-186h-1079zM504 469h463v770zM1675 1839l-196 -297h-185l166 297h215z" />
    <glyph glyph-name="aeacute" unicode="&#x1fd;" horiz-adv-x="1902" 
d="M1765 473h-743q5 -157 82 -243.5t254 -86.5q170 0 330 119l84 -145q-180 -146 -433 -146q-156 0 -261 57t-154 160q-39 -40 -76.5 -70.5t-93 -65t-125.5 -53.5t-148 -19q-178 0 -281.5 86.5t-103.5 234.5q0 178 144 276.5t385 98.5q101 0 180 -14q0 69 -9.5 113t-36 75
t-72 44t-118.5 13q-81 0 -175 -22t-161 -54l-38 185q89 36 197.5 55t191.5 19q97 0 165 -17t107 -51t58.5 -69.5t33.5 -88.5q24 42 56.5 80.5t79 75t109.5 58.5t134 22q148 0 253.5 -62.5t154.5 -162t49 -222.5q0 -112 -19 -180zM1329 942q-139 0 -217.5 -93t-81.5 -226h572
q4 16 4 49q0 121 -71 195.5t-206 74.5zM311 324q0 -87 59.5 -130.5t157.5 -43.5q87 0 160 41.5t117 95.5v237q-93 15 -166 15q-328 -7 -328 -215zM1243 1518l-196 -297h-185l166 297h215z" />
    <glyph glyph-name="Oslashacute" unicode="&#x1fe;" horiz-adv-x="1662" 
d="M1112 1839l-197 -297h-184l166 297h215zM117 694q0 203 93 368t256.5 258t364.5 93q232 0 410 -121l82 101h156v-17l-136 -166q99 -99 153 -231t54 -285q0 -201 -93 -364.5t-258 -256.5t-368 -93q-219 0 -395 112l-74 -92h-157v18l127 156q-102 96 -158.5 230.5
t-56.5 289.5zM322 694q0 -217 139 -362l651 801q-124 79 -281 79q-220 0 -364.5 -147.5t-144.5 -370.5zM1341 694q0 207 -129 355l-647 -799q122 -72 266 -72q220 0 365 147.5t145 368.5z" />
    <glyph glyph-name="oslashacute" unicode="&#x1ff;" horiz-adv-x="1370" 
d="M965 1518l-197 -297h-184l166 297h215zM113 532q0 245 161.5 406.5t409.5 161.5q196 0 340 -103l61 74h113v-18l-98 -119q75 -75 116 -179t41 -223q0 -159 -72.5 -287t-204 -201t-296.5 -73q-174 0 -309 80l-43 -51h-115v18l78 95q-87 76 -134.5 183.5t-47.5 235.5z
M319 532q0 -162 105 -264l473 574q-92 61 -213 61q-161 0 -263 -105.5t-102 -265.5zM1053 532q0 142 -84 242l-465 -565q76 -43 180 -43q162 0 265.5 104.5t103.5 261.5z" />
    <glyph glyph-name="Scommaaccent" unicode="&#x218;" horiz-adv-x="1288" 
d="M125 100l51 205q84 -52 200.5 -90.5t241.5 -38.5q155 0 249 57t94 158q0 73 -57 118.5t-185 76.5l-250 61q-173 41 -260.5 133t-87.5 230q0 84 33 155.5t97 127t169 87t239 31.5q137 0 269.5 -32.5t218.5 -78.5l-62 -196q-76 46 -198.5 78t-235.5 32q-155 0 -232 -51.5
t-77 -134.5q0 -69 46.5 -110t146.5 -68l270 -70q190 -51 283.5 -139.5t93.5 -232.5q0 -192 -159 -310t-409 -118q-138 0 -274.5 37.5t-214.5 82.5zM543 -500l49 138q-52 7 -80.5 37t-28.5 73q0 57 34.5 89t90.5 32q68 0 106 -35.5t38 -101.5q0 -64 -29 -136.5t-74 -134.5z
" />
    <glyph glyph-name="scommaaccent" unicode="&#x219;" horiz-adv-x="1089" 
d="M944 1012l-57 -185q-72 36 -162 59t-174 23q-101 0 -155 -35.5t-54 -103.5q0 -52 31.5 -73.5t124.5 -45.5l176 -43q161 -38 234 -110.5t73 -188.5q0 -149 -121 -239t-323 -90q-226 0 -406 92l41 184q183 -98 356 -98q108 0 173 36t65 101q0 47 -43 77.5t-129 51.5
l-168 41q-156 37 -225.5 104t-69.5 185q0 154 114 245t322 91q98 0 204.5 -23.5t172.5 -54.5zM459 -500l49 138q-52 7 -80.5 37t-28.5 73q0 57 34.5 89t90.5 32q68 0 106 -35.5t38 -101.5q0 -64 -29 -136.5t-74 -134.5z" />
    <glyph glyph-name="uni021A" unicode="&#x21a;" horiz-adv-x="1284" 
d="M1235 1204h-475v-1204h-213v1204h-500v189h1188v-189zM561 -500l49 138q-52 7 -80 37t-28 73q0 57 34.5 89t90.5 32q68 0 105.5 -35.5t37.5 -101.5q0 -65 -28.5 -137t-73.5 -134z" />
    <glyph glyph-name="uni021B" unicode="&#x21b;" horiz-adv-x="1017" 
d="M303 1343h189v-272h417v-168h-417v-532q0 -205 172 -205q59 0 124.5 24t112.5 58l70 -166q-166 -102 -371 -102q-151 0 -236 90t-85 260v573h-201v168h201zM487 -500l50 138q-52 7 -80.5 37t-28.5 73q0 57 34.5 89t90.5 32q68 0 105.5 -35.5t37.5 -101.5
q0 -65 -28.5 -137t-73.5 -134z" />
    <glyph glyph-name="dotlessj" unicode="&#x237;" horiz-adv-x="579" 
d="M106 -403l-124 127q200 115 200 331v1016h213v-1001q0 -327 -289 -473z" />
    <glyph glyph-name="circumflex" unicode="&#x2c6;" horiz-adv-x="1228" 
d="M784 1221l-155 188l-156 -188h-168l217 297h211l217 -297h-166z" />
    <glyph glyph-name="caron" unicode="&#x2c7;" horiz-adv-x="1228" 
d="M473 1518l156 -187l155 187h166l-217 -297h-211l-217 297h168z" />
    <glyph glyph-name="breve" unicode="&#x2d8;" horiz-adv-x="1228" 
d="M342 1393l59 86q82 -103 228 -103q77 0 134 30t89 73l61 -86q-39 -68 -110 -115t-172 -47t-174.5 47t-114.5 115z" />
    <glyph glyph-name="dotaccent" unicode="&#x2d9;" horiz-adv-x="1228" 
d="M500 1376q0 115 131 115q127 0 127 -115q0 -116 -127 -116q-131 0 -131 116z" />
    <glyph glyph-name="ring" unicode="&#x2da;" horiz-adv-x="1228" 
d="M428 1290q0 83 59 142t142 59t141.5 -59t58.5 -142t-58.5 -141.5t-141.5 -58.5t-142 58.5t-59 141.5zM522 1290q0 -44 31.5 -75t75.5 -31q43 0 73.5 31t30.5 75q0 43 -30.5 74t-73.5 31q-44 0 -75.5 -31t-31.5 -74z" />
    <glyph glyph-name="ogonek" unicode="&#x2db;" horiz-adv-x="1228" 
d="M623 20l110 -20q-84 -3 -138 -43t-54 -107q0 -54 31 -83t85 -29q55 0 115 37l23 -101q-73 -41 -166 -41q-87 0 -141 51.5t-54 139.5q0 80 59 134t130 62z" />
    <glyph glyph-name="tilde" unicode="&#x2dc;" horiz-adv-x="1228" 
d="M334 1255l-70 88q32 65 89 110.5t124 45.5q42 0 88 -20t78.5 -44.5t70.5 -44.5t66 -20q93 0 142 96l69 -86q-35 -72 -90 -115.5t-121 -43.5q-40 0 -85.5 20.5t-79 45t-71.5 45t-65 20.5q-87 0 -145 -97z" />
    <glyph glyph-name="hungarumlaut" unicode="&#x2dd;" horiz-adv-x="1228" 
d="M627 1518l-199 -297h-182l168 297h213zM1010 1518l-197 -297h-184l168 297h213z" />
    <glyph glyph-name="uni0394" unicode="&#x394;" horiz-adv-x="1460" 
d="M41 0l575 1393h248l551 -1393h-1374zM739 1180l-426 -1018h834z" />
    <glyph glyph-name="uni03A9" unicode="&#x3a9;" horiz-adv-x="1685" 
d="M952 0v172q177 57 288.5 197t111.5 325q0 225 -141.5 371.5t-368.5 146.5q-224 0 -366 -146.5t-142 -371.5q0 -191 107 -327.5t288 -194.5v-172h-563v168h287q-148 73 -237 223.5t-89 339.5q0 139 53.5 264.5t146.5 217.5t227.5 146t287.5 54q154 0 289 -54t228.5 -146
t147.5 -217.5t54 -264.5q0 -186 -91 -336.5t-237 -226.5h287v-168h-568z" />
    <glyph glyph-name="uni03BC" unicode="&#x3bc;" horiz-adv-x="1349" 
d="M397 1071v-569q0 -167 61 -246.5t204 -79.5q107 0 182 55.5t110 135.5v704h213v-1071h-213v129q-124 -149 -366 -149q-110 0 -191 38v-403h-213v1456h213z" />
    <glyph glyph-name="pi" unicode="&#x3c0;" horiz-adv-x="1513" 
d="M68 1071h1353v-168h-260v-620q0 -59 19 -90t67 -31q58 0 111 37l16 -170q-20 -16 -82.5 -32.5t-126.5 -16.5q-217 0 -217 256v667h-418v-903h-213v903h-249v168z" />
    <glyph glyph-name="Wgrave" unicode="&#x1e80;" horiz-adv-x="2236" 
d="M1395 0l-273 674l-293 -674h-229l-553 1393h229l457 -1153l295 686l-182 467h231l430 -1121l463 1121h232l-578 -1393h-229zM1044 1542l-196 297h215l166 -297h-185z" />
    <glyph glyph-name="wgrave" unicode="&#x1e81;" horiz-adv-x="2054" 
d="M1765 1071h230l-406 -1071h-262l-299 856l-309 -856h-262l-391 1071h229l299 -874l309 874h254l295 -874zM950 1221l-196 297h215l166 -297h-185z" />
    <glyph glyph-name="Wacute" unicode="&#x1e82;" horiz-adv-x="2236" 
d="M1395 0l-273 674l-293 -674h-229l-553 1393h229l457 -1153l295 686l-182 467h231l430 -1121l463 1121h232l-578 -1393h-229zM1389 1839l-197 -297h-184l166 297h215z" />
    <glyph glyph-name="wacute" unicode="&#x1e83;" horiz-adv-x="2054" 
d="M1765 1071h230l-406 -1071h-262l-299 856l-309 -856h-262l-391 1071h229l299 -874l309 874h254l295 -874zM1307 1518l-197 -297h-184l166 297h215z" />
    <glyph glyph-name="Wdieresis" unicode="&#x1e84;" horiz-adv-x="2236" 
d="M1395 0l-273 674l-293 -674h-229l-553 1393h229l457 -1153l295 686l-182 467h231l430 -1121l463 1121h232l-578 -1393h-229zM739 1694q0 110 123 110t123 -110q0 -111 -123 -111t-123 111zM1255 1694q0 110 125 110q121 0 121 -110q0 -111 -121 -111q-125 0 -125 111z
" />
    <glyph glyph-name="wdieresis" unicode="&#x1e85;" horiz-adv-x="2054" 
d="M1765 1071h230l-406 -1071h-262l-299 856l-309 -856h-262l-391 1071h229l299 -874l309 874h254l295 -874zM647 1372q0 111 123 111t123 -111q0 -110 -123 -110t-123 110zM1163 1372q0 111 125 111q121 0 121 -111q0 -110 -121 -110q-125 0 -125 110z" />
    <glyph glyph-name="Ygrave" unicode="&#x1ef2;" horiz-adv-x="1413" 
d="M600 0v569l-563 807v17h237l433 -627l432 627h237v-17l-563 -805v-571h-213zM621 1542l-197 297h215l166 -297h-184z" />
    <glyph glyph-name="ygrave" unicode="&#x1ef3;" horiz-adv-x="1261" 
d="M973 1071h215l-467 -1114q-38 -94 -75.5 -158t-87 -112t-112.5 -70.5t-145 -22.5q-134 0 -246 74l35 174q104 -65 211 -65q81 0 127.5 40.5t85.5 131.5l29 69l-502 1053h235l361 -838zM557 1221l-197 297h215l166 -297h-184z" />
    <glyph glyph-name="endash" unicode="&#x2013;" horiz-adv-x="1296" 
d="M158 705h983v-170h-983v170z" />
    <glyph glyph-name="emdash" unicode="&#x2014;" horiz-adv-x="1787" 
d="M158 705h1472v-170h-1472v170z" />
    <glyph glyph-name="quoteleft" unicode="&#x2018;" horiz-adv-x="550" 
d="M397 1362l-92 -275q55 -10 84 -46t29 -89q0 -72 -38.5 -110.5t-107.5 -38.5q-68 0 -106.5 40.5t-38.5 108.5q0 94 49.5 237t97.5 224z" />
    <glyph glyph-name="quoteright" unicode="&#x2019;" horiz-adv-x="544" 
d="M154 848l94 276q-54 10 -82.5 46t-28.5 90q0 71 38 110t106 39q69 0 108 -41t39 -108q0 -93 -51 -235.5t-101 -225.5z" />
    <glyph glyph-name="quotesinglbase" unicode="&#x201a;" horiz-adv-x="571" 
d="M156 -301l94 276q-54 10 -82.5 46t-28.5 90q0 71 38 110t106 39q69 0 108 -41t39 -108q0 -93 -51 -235.5t-100 -225.5z" />
    <glyph glyph-name="quotedblleft" unicode="&#x201c;" horiz-adv-x="931" 
d="M780 1370l-86 -264q51 -9 77 -41.5t26 -79.5q0 -65 -34 -101t-95 -36q-62 0 -96.5 38t-34.5 99q0 86 46.5 219t90.5 209zM373 1370l-88 -264q51 -9 77.5 -41.5t26.5 -79.5q0 -65 -34 -101t-97 -36q-62 0 -96.5 38t-34.5 99q0 86 46.5 219t90.5 209z" />
    <glyph glyph-name="quotedblright" unicode="&#x201d;" horiz-adv-x="927" 
d="M154 891l86 262q-50 9 -76.5 42t-26.5 81q0 65 34 100t97 35q62 0 96.5 -37.5t34.5 -97.5q0 -87 -46.5 -222t-90.5 -208zM563 891l86 262q-50 9 -76 41.5t-26 81.5q0 64 33.5 99.5t95.5 35.5q63 0 98 -37.5t35 -97.5q0 -87 -46.5 -220.5t-90.5 -209.5z" />
    <glyph glyph-name="quotedblbase" unicode="&#x201e;" horiz-adv-x="954" 
d="M158 -307l86 264q-49 7 -76 40.5t-27 80.5q0 66 33.5 101.5t95.5 35.5q63 0 98 -37.5t35 -99.5q0 -87 -47 -220.5t-92 -207.5zM567 -307l86 264q-50 7 -76 40t-26 81q0 66 33.5 101.5t95.5 35.5t96.5 -38t34.5 -99q0 -86 -46.5 -219t-90.5 -209z" />
    <glyph glyph-name="dagger" unicode="&#x2020;" horiz-adv-x="1234" 
d="M1167 741h-465v-1126h-170v1126h-466v170h466v543h170v-543h465v-170z" />
    <glyph glyph-name="daggerdbl" unicode="&#x2021;" horiz-adv-x="1325" 
d="M1212 127h-464v-512h-170v512h-467v170h467v444h-467v170h467v543h170v-543h464v-170h-464v-444h464v-170z" />
    <glyph glyph-name="bullet" unicode="&#x2022;" horiz-adv-x="808" 
d="M195 618q0 104 54 161t154 57t155.5 -57t55.5 -161q0 -105 -55 -161t-156 -56q-100 0 -154 56t-54 161z" />
    <glyph glyph-name="ellipsis" unicode="&#x2026;" horiz-adv-x="1548" 
d="M143 104q0 66 35.5 102t100.5 36t101 -36t36 -102q0 -65 -36 -100t-101 -35t-100.5 34.5t-35.5 100.5zM639 104q0 66 35 102t100 36t101 -36t36 -102q0 -65 -36 -100t-101 -35t-100 34.5t-35 100.5zM1135 104q0 66 35 102t100 36t101 -36t36 -102q0 -65 -36 -100
t-101 -35t-100 34.5t-35 100.5z" />
    <glyph glyph-name="perthousand" unicode="&#x2030;" horiz-adv-x="2596" 
d="M1784 340q0 156 104.5 260.5t263.5 104.5q160 0 264.5 -104.5t104.5 -260.5t-104 -258t-265 -102q-160 0 -264 102.5t-104 257.5zM1950 340q0 -87 57 -145t145 -58q90 0 145.5 57.5t55.5 145.5q0 89 -55.5 147t-145.5 58q-89 0 -145.5 -58.5t-56.5 -146.5zM967 340
q0 156 103.5 260.5t262.5 104.5q160 0 264.5 -104.5t104.5 -260.5t-104 -258t-265 -102q-159 0 -262.5 102t-103.5 258zM1130 340q0 -87 57 -145t146 -58t146 58t57 145q0 88 -57 146.5t-146 58.5t-146 -58.5t-57 -146.5zM426 18l727 1375h186v-17l-725 -1376h-188v18z
M80 1049q0 156 103.5 260t262.5 104q160 0 264.5 -104t104.5 -260t-104 -258.5t-265 -102.5q-159 0 -262.5 102.5t-103.5 258.5zM244 1049q0 -87 57 -145t145 -58q89 0 146 58t57 145t-57.5 145.5t-145.5 58.5t-145 -58.5t-57 -145.5z" />
    <glyph glyph-name="guilsinglleft" unicode="&#x2039;" horiz-adv-x="657" 
d="M109 596v45l329 412h17l77 -47l-241 -388l241 -385l-77 -49h-17z" />
    <glyph glyph-name="guilsinglright" unicode="&#x203a;" horiz-adv-x="655" 
d="M547 641v-45l-328 -412h-18l-76 47l240 387l-242 386l78 49h18z" />
    <glyph glyph-name="fraction" unicode="&#x2044;" horiz-adv-x="251" 
d="M-315 18l755 1375h127v-17l-753 -1376h-129v18z" />
    <glyph glyph-name="zerosuperior" unicode="&#x2070;" horiz-adv-x="755" 
d="M84 1270q0 161 74.5 254.5t218.5 93.5q145 0 220 -93t75 -255q0 -160 -75 -253t-220 -93q-144 0 -218.5 93t-74.5 253zM205 1270q0 -232 172 -232q174 0 174 232q0 106 -41 170.5t-133 64.5q-91 0 -131.5 -64.5t-40.5 -170.5z" />
    <glyph glyph-name="foursuperior" unicode="&#x2074;" horiz-adv-x="739" 
d="M682 1065h-127v-131h-123v131h-381v84l340 457h164v-447h127v-94zM178 1159h254v344z" />
    <glyph glyph-name="fivesuperior" unicode="&#x2075;" horiz-adv-x="671" 
d="M113 1249l-7 6l31 351h432v-107h-327l-13 -156h84q132 0 205.5 -46.5t73.5 -143.5q0 -115 -79.5 -172t-209.5 -57q-121 0 -233 45l32 102q89 -43 193 -43q75 0 123.5 30t48.5 91q0 100 -162 100h-192z" />
    <glyph glyph-name="sixsuperior" unicode="&#x2076;" horiz-adv-x="731" 
d="M408 1511q-98 0 -148 -60t-53 -163q81 90 201 90t183.5 -56t63.5 -159q0 -108 -73.5 -173.5t-190.5 -65.5q-145 0 -226 94.5t-81 253.5q0 157 81.5 251.5t227.5 94.5q71 0 134 -17.5t100 -37.5l-35 -103q-82 51 -184 51zM389 1284q-94 0 -176 -82q14 -77 59 -121.5
t119 -44.5q63 0 103.5 36.5t40.5 90.5q0 59 -40 90t-106 31z" />
    <glyph glyph-name="sevensuperior" unicode="&#x2077;" horiz-adv-x="593" 
d="M135 944l279 555h-361v107h498v-88l-281 -584h-135v10z" />
    <glyph glyph-name="eightsuperior" unicode="&#x2078;" horiz-adv-x="737" 
d="M369 924q-135 0 -210 52t-75 142q0 68 41 111t117 57q-60 10 -96.5 52t-36.5 94q0 89 67 137.5t193 48.5q125 0 192.5 -48.5t67.5 -137.5q0 -53 -37 -94.5t-98 -51.5q76 -14 116.5 -57t40.5 -111q0 -90 -74 -142t-208 -52zM369 1239q-80 0 -120 -28.5t-40 -73.5
q0 -51 44.5 -82t115.5 -31q69 0 113 31t44 82q0 46 -39 74t-118 28zM369 1518q-63 0 -101.5 -26t-38.5 -71q0 -40 35.5 -68t104.5 -28t103 27.5t34 68.5q0 45 -37 71t-100 26z" />
    <glyph glyph-name="ninesuperior" unicode="&#x2079;" horiz-adv-x="733" 
d="M326 1030q95 0 144 58.5t54 160.5q-82 -86 -200 -86t-183 56t-65 157q0 108 75 175t191 67q144 0 224.5 -94.5t80.5 -253.5q0 -158 -81 -252t-226 -94q-74 0 -137 17t-97 38l37 102q28 -20 78.5 -35.5t104.5 -15.5zM340 1257q100 0 178 78q-13 78 -57.5 124t-118.5 46
q-63 0 -102 -37t-39 -92q0 -58 37.5 -88.5t101.5 -30.5z" />
    <glyph glyph-name="zeroinferior" unicode="&#x2080;" horiz-adv-x="753" 
d="M84 131q0 161 74.5 254.5t218.5 93.5q145 0 219 -93t74 -255q0 -161 -74 -253.5t-219 -92.5q-144 0 -218.5 93t-74.5 253zM203 131q0 -105 41 -168t133 -63q91 0 131.5 63.5t40.5 167.5q0 106 -40.5 171t-131.5 65q-92 0 -133 -64.5t-41 -171.5z" />
    <glyph glyph-name="oneinferior" unicode="&#x2081;" horiz-adv-x="542" 
d="M35 315l291 152h94v-672h-125v533l-211 -105z" />
    <glyph glyph-name="twoinferior" unicode="&#x2082;" horiz-adv-x="690" 
d="M94 -205v94l266 201q103 76 103 160q0 50 -32.5 83.5t-92.5 33.5q-71 0 -109.5 -40.5t-38.5 -107.5l-112 21q2 110 70.5 174.5t191.5 64.5t186.5 -61.5t63.5 -165.5q0 -132 -144 -236l-155 -112h319v-109h-516z" />
    <glyph glyph-name="threeinferior" unicode="&#x2083;" horiz-adv-x="677" 
d="M160 193h164q58 0 90 25.5t32 64.5q0 88 -141 88q-106 0 -196 -41l-29 106q110 43 225 43q128 0 197 -47.5t69 -136.5q0 -54 -32.5 -96t-89.5 -52q145 -32 145 -167q0 -90 -75.5 -142.5t-213.5 -52.5q-94 0 -227 43l33 102q92 -39 194 -39q72 0 117 29t45 78
q0 90 -143 90h-164v105z" />
    <glyph glyph-name="fourinferior" unicode="&#x2084;" horiz-adv-x="739" 
d="M682 -74h-127v-131h-123v131h-381v84l340 457h164v-447h127v-94zM178 20h254v345z" />
    <glyph glyph-name="fiveinferior" unicode="&#x2085;" horiz-adv-x="671" 
d="M113 113l-9 4l31 350h434v-107h-329l-13 -155h84q133 0 206 -47t73 -144q0 -114 -79 -171.5t-208 -57.5q-123 0 -235 45l32 102q102 -41 195 -41q73 0 121.5 30t48.5 89q0 103 -160 103h-192z" />
    <glyph glyph-name="sixinferior" unicode="&#x2086;" horiz-adv-x="729" 
d="M406 373q-98 0 -148 -59.5t-53 -163.5q81 90 201 90t183.5 -56t63.5 -159q0 -108 -74 -174t-190 -66q-145 0 -226 94.5t-81 253.5q0 158 81 252t228 94q71 0 134 -17.5t100 -37.5l-35 -102q-82 51 -184 51zM387 145q-94 0 -176 -82q14 -77 59 -121t119 -44q63 0 103 36.5
t40 90.5q0 59 -39.5 89.5t-105.5 30.5z" />
    <glyph glyph-name="seveninferior" unicode="&#x2087;" horiz-adv-x="595" 
d="M137 -195l279 555h-361v107h498v-86l-283 -586h-133v10z" />
    <glyph glyph-name="eightinferior" unicode="&#x2088;" horiz-adv-x="733" 
d="M367 -215q-135 0 -210 52.5t-75 142.5q0 68 41.5 110.5t118.5 56.5q-62 10 -99 52t-37 96q0 89 68 136.5t193 47.5t192.5 -47.5t67.5 -136.5q0 -54 -37 -96t-98 -52q77 -14 118 -56.5t41 -110.5q0 -90 -75 -142.5t-209 -52.5zM367 100q-80 0 -120 -28.5t-40 -73.5
q0 -50 45 -81.5t115 -31.5t114.5 31.5t44.5 81.5q0 45 -40 73.5t-119 28.5zM367 379q-63 0 -101.5 -25.5t-38.5 -70.5q0 -40 35.5 -68.5t104.5 -28.5t103 28t34 69q0 45 -36.5 70.5t-100.5 25.5z" />
    <glyph glyph-name="nineinferior" unicode="&#x2089;" horiz-adv-x="731" 
d="M326 -109q96 0 144.5 59.5t53.5 162.5q-83 -88 -200 -88q-120 0 -184 56t-64 159q0 106 74.5 172.5t189.5 66.5q145 0 226 -94.5t81 -253.5q0 -158 -81 -252t-228 -94q-130 0 -232 55l35 103q79 -52 185 -52zM340 119q100 0 178 78q-13 78 -58 124t-120 46
q-62 0 -101.5 -36.5t-39.5 -90.5q0 -59 38.5 -90t102.5 -31z" />
    <glyph glyph-name="Euro" unicode="&#x20ac;" horiz-adv-x="1292" 
d="M1174 1247l-76 -160q-136 130 -303 130q-134 0 -224.5 -84.5t-121.5 -253.5h552l-61 -134h-506v-51q0 -50 2 -73h451l-53 -134h-381q33 -156 119.5 -233.5t215.5 -77.5q166 0 318 113l80 -176q-178 -133 -412 -133q-216 0 -358.5 131t-184.5 376h-114v134h100
q-2 23 -2 73v51h-98v134h110q39 258 183.5 396t367.5 138q124 0 218 -43.5t178 -122.5z" />
    <glyph glyph-name="afii61289" unicode="&#x2113;" horiz-adv-x="862" 
d="M145 256l-61 104l147 103v543q0 198 81 301.5t225 103.5q239 0 239 -281q0 -145 -53 -288.5t-127.5 -245.5t-163.5 -178v-103q0 -89 33.5 -125t101.5 -36q64 0 135 43l-8 -185q-69 -32 -196 -32q-131 0 -199 64.5t-68 203.5v67zM432 1032v-457q95 90 155 231t60 335
q0 139 -92 139q-56 0 -89.5 -62.5t-33.5 -185.5z" />
    <glyph glyph-name="uni2117" unicode="&#x2117;" horiz-adv-x="1671" 
d="M119 694q0 152 54.5 285.5t149.5 228.5t227.5 150t283.5 55q152 0 285.5 -55t228.5 -150t149.5 -228.5t54.5 -285.5q0 -201 -93 -364.5t-257.5 -256.5t-367.5 -93q-201 0 -365 93t-257 256.5t-93 364.5zM244 694q0 -168 76 -304.5t211.5 -214t302.5 -77.5q168 0 304 77.5
t212.5 214t76.5 304.5q0 169 -76.5 306t-212.5 214.5t-304 77.5q-126 0 -235.5 -45.5t-187.5 -125t-122.5 -190.5t-44.5 -237zM612 346v696h330q107 0 178.5 -64.5t71.5 -186.5q0 -114 -73 -182t-177 -68h-170v-195h-160zM920 909h-148v-235h148q49 0 81.5 31.5t32.5 85.5
q0 56 -32 87t-82 31z" />
    <glyph glyph-name="trademark" unicode="&#x2122;" horiz-adv-x="1716" 
d="M1413 731v438l-217 -266h-25l-217 266v-438h-120v627h104l246 -295l246 295h104v-627h-121zM676 1237h-205v-506h-121v506h-209v121h535v-121z" />
    <glyph glyph-name="Omega" unicode="&#x2126;" horiz-adv-x="1689" 
d="M954 0v172q177 57 288.5 197t111.5 325q0 225 -142.5 371.5t-369.5 146.5q-224 0 -365 -146.5t-141 -371.5q0 -191 106.5 -327.5t288.5 -194.5v-172h-563v168h287q-148 74 -238 224.5t-90 338.5q0 139 54 264.5t147 217.5t227 146t287 54q155 0 290 -54t228.5 -146
t147 -217.5t53.5 -264.5q0 -186 -90 -337t-236 -226h285v-168h-566z" />
    <glyph glyph-name="estimated" unicode="&#x212e;" horiz-adv-x="1380" 
d="M700 1231q145 0 257.5 -53t179.5 -142.5t101 -199.5t34 -234v-53h-883v-346q119 -119 311 -119q267 0 377 213h135q-62 -149 -190.5 -235.5t-321.5 -86.5q-116 0 -211.5 35t-161 94.5t-110.5 140t-65.5 170.5t-20.5 187q0 123 34 233.5t101 200t179 142.5t255 53z
M700 1122q-196 0 -311 -118v-349h625v349q-115 118 -314 118z" />
    <glyph glyph-name="onethird" unicode="&#x2153;" horiz-adv-x="1601" 
d="M281 18l755 1375h127v-17l-753 -1376h-129v18zM63 1241l289 152h94v-672h-122v532l-211 -106zM1071 393h164q58 0 90.5 25.5t32.5 64.5q0 88 -141 88q-107 0 -197 -41l-29 107q110 43 226 43q128 0 197 -47.5t69 -136.5q0 -54 -33 -96t-90 -52q69 -15 107 -57.5
t38 -110.5q0 -90 -75 -142t-213 -52q-95 0 -228 43l33 102q92 -39 195 -39q71 0 116 29t45 78q0 90 -143 90h-164v104z" />
    <glyph glyph-name="twothirds" unicode="&#x2154;" horiz-adv-x="1724" 
d="M418 18l756 1375h126v-17l-753 -1376h-129v18zM1206 393h164q58 0 90.5 25.5t32.5 64.5q0 88 -141 88q-107 0 -197 -41l-29 107q110 43 226 43q128 0 197 -47.5t69 -136.5q0 -54 -33 -96t-90 -52q69 -15 107 -57.5t38 -110.5q0 -90 -75 -142t-213 -52q-95 0 -228 43
l33 102q92 -39 195 -39q71 0 116 29t45 78q0 90 -143 90h-164v104zM113 729v94l266 201q102 75 102 160q0 50 -32.5 83t-92.5 33q-73 0 -110 -40t-37 -107l-115 21q3 109 72 174t190 65q123 0 187.5 -62.5t64.5 -164.5q0 -61 -36 -122.5t-107 -113.5l-158 -112h320v-109
h-514z" />
    <glyph glyph-name="oneeighth" unicode="&#x215b;" horiz-adv-x="1599" 
d="M281 18l755 1375h127v-17l-753 -1376h-129v18zM1221 -10q-135 0 -210 52t-75 142q0 68 41.5 111t118.5 57q-61 10 -98 52t-37 96q0 89 67.5 136.5t192.5 47.5t192.5 -47.5t67.5 -136.5q0 -54 -37 -96t-98 -52q77 -14 118 -56.5t41 -111.5q0 -90 -75 -142t-209 -52z
M1221 305q-80 0 -120 -28.5t-40 -73.5q0 -50 45 -81.5t115 -31.5t114.5 31.5t44.5 81.5q0 45 -40 73.5t-119 28.5zM1221 584q-63 0 -101.5 -26t-38.5 -71q0 -40 35.5 -68t104.5 -28t103 27.5t34 68.5q0 45 -37 71t-100 26zM63 1249l289 152h94v-672h-122v533l-211 -107z" />
    <glyph glyph-name="threeeighths" unicode="&#x215c;" horiz-adv-x="1699" 
d="M391 18l756 1375h127v-17l-754 -1376h-129v18zM1331 -10q-135 0 -209.5 52t-74.5 142q0 69 41 111.5t118 56.5q-61 10 -98 52t-37 96q0 89 67.5 136.5t192.5 47.5t192.5 -47.5t67.5 -136.5q0 -54 -37 -96t-98 -52q77 -14 118.5 -57t41.5 -111q0 -90 -75.5 -142
t-209.5 -52zM1331 305q-80 0 -120 -28.5t-40 -73.5q0 -50 45 -81.5t115 -31.5t115 31.5t45 81.5q0 45 -40 73.5t-120 28.5zM1331 584q-62 0 -100.5 -26t-38.5 -71q0 -40 35 -68t104 -28t103 27.5t34 68.5q0 45 -37 71t-100 26zM176 1126h164q58 0 90.5 26t32.5 65
q0 88 -141 88q-109 0 -199 -41l-27 106q110 43 226 43q128 0 197 -48.5t69 -137.5q0 -53 -33.5 -94.5t-91.5 -53.5q70 -14 108.5 -56t38.5 -110q0 -90 -75.5 -142t-212.5 -52q-108 0 -228 41l33 104q92 -39 195 -39q72 0 116.5 28.5t44.5 78.5q0 90 -143 90h-164v104z" />
    <glyph glyph-name="fiveeighths" unicode="&#x215d;" horiz-adv-x="1695" 
d="M387 18l756 1375h127v-17l-754 -1376h-129v18zM1327 -10q-135 0 -210 52t-75 142q0 68 41.5 111t118.5 57q-61 10 -98 52t-37 96q0 89 67.5 136.5t192.5 47.5t192.5 -47.5t67.5 -136.5q0 -54 -37 -96t-98 -52q77 -14 118.5 -57t41.5 -111q0 -90 -75.5 -142t-209.5 -52z
M1327 305q-80 0 -120 -28.5t-40 -73.5q0 -50 45 -81.5t115 -31.5t115 31.5t45 81.5q0 45 -40 73.5t-120 28.5zM1327 584q-62 0 -100.5 -26t-38.5 -71q0 -40 35 -68t104 -28t103 27.5t34 68.5q0 45 -37 71t-100 26zM129 1044l-6 7l31 350h432v-107h-328l-12 -155h84
q132 0 205 -47t73 -144q0 -115 -79.5 -172t-209.5 -57q-121 0 -233 45l33 102q89 -43 192 -43q75 0 123.5 30t48.5 91q0 100 -161 100h-193z" />
    <glyph glyph-name="seveneighths" unicode="&#x215e;" horiz-adv-x="1593" 
d="M285 18l755 1375h127v-17l-753 -1376h-129v18zM1225 -10q-135 0 -210 52t-75 142q0 68 41.5 111t118.5 57q-61 10 -98 52t-37 96q0 89 67.5 136.5t192.5 47.5t192.5 -47.5t67.5 -136.5q0 -54 -37 -96t-98 -52q77 -14 118 -56.5t41 -111.5q0 -90 -75 -142t-209 -52z
M1225 305q-80 0 -120 -28.5t-40 -73.5q0 -50 45 -81.5t115 -31.5t114.5 31.5t44.5 81.5q0 45 -40 73.5t-119 28.5zM1225 584q-63 0 -101.5 -26t-38.5 -71q0 -40 35.5 -68t104.5 -28t103 27.5t34 68.5q0 45 -37 71t-100 26zM156 739l278 555h-360v107h497v-88l-280 -584h-135
v10z" />
    <glyph glyph-name="arrowleft" unicode="&#x2190;" horiz-adv-x="1474" 
d="M424 690h907v-158h-905l338 -327l-105 -109l-516 518l514 510l107 -112z" />
    <glyph glyph-name="arrowup" unicode="&#x2191;" horiz-adv-x="1474" 
d="M817 922v-906h-160v904l-325 -338l-109 104l516 516l510 -514l-112 -106z" />
    <glyph glyph-name="arrowright" unicode="&#x2192;" horiz-adv-x="1474" 
d="M1051 530h-908v158h906l-340 328l106 108l516 -518l-514 -510l-108 113z" />
    <glyph glyph-name="arrowdown" unicode="&#x2193;" horiz-adv-x="1474" 
d="M655 295v907h160v-903l326 338l108 -105l-518 -516l-508 514l113 107z" />
    <glyph glyph-name="uni2196" unicode="&#x2196;" horiz-adv-x="1474" 
d="M573 889l639 -641l-110 -113l-641 639l10 -469l-152 -4v731l723 -2l-2 -156z" />
    <glyph glyph-name="uni2197" unicode="&#x2197;" horiz-adv-x="1474" 
d="M1016 774l-641 -641l-115 111l641 641l-471 -8q0 24 -1 74.5t-1 76.5h731l-4 -725l-154 4z" />
    <glyph glyph-name="uni2198" unicode="&#x2198;" horiz-adv-x="1474" 
d="M903 332l-641 641l111 112l639 -639l-8 469l151 5v-732l-725 2l4 156z" />
    <glyph glyph-name="uni2199" unicode="&#x2199;" horiz-adv-x="1474" 
d="M457 444l643 639l112 -108l-641 -641l469 8l4 -152h-731l2 725l158 -4z" />
    <glyph glyph-name="partialdiff" unicode="&#x2202;" horiz-adv-x="1249" 
d="M520 928q226 0 391 -193q-6 119 -48 222.5t-108 177t-140.5 124t-155.5 78.5l84 138q112 -26 215.5 -92t186 -163.5t132 -233.5t49.5 -288q0 -329 -148 -523.5t-415 -194.5q-209 0 -345 136.5t-136 356.5q0 205 118 330t320 125zM571 176q141 0 224.5 101t107.5 278
q-143 197 -334 197q-126 0 -201 -73t-75 -208q0 -126 77 -210.5t201 -84.5z" />
    <glyph glyph-name="Delta" unicode="&#x2206;" horiz-adv-x="1499" 
d="M61 0l576 1393h248l551 -1393h-1375zM760 1180l-428 -1018h835z" />
    <glyph glyph-name="product" unicode="&#x220f;" horiz-adv-x="1458" 
d="M401 -385h-202v1778h1061v-1778h-203v1589h-656v-1589z" />
    <glyph glyph-name="summation" unicode="&#x2211;" horiz-adv-x="1101" 
d="M117 0v119l403 579l-407 580v115h872v-170h-616l364 -527l-358 -526h610v-170h-868z" />
    <glyph glyph-name="minus" unicode="&#x2212;" horiz-adv-x="1290" 
d="M166 705h956v-170h-956v170z" />
    <glyph glyph-name="uni2215" unicode="&#x2215;" horiz-adv-x="907" 
d="M12 18l756 1375h127v-17l-754 -1376h-129v18z" />
    <glyph glyph-name="uni2219" unicode="&#x2219;" horiz-adv-x="585" 
d="M147 608q0 69 37.5 106.5t106.5 37.5t107 -37.5t38 -106.5q0 -70 -37.5 -106.5t-107.5 -36.5q-69 0 -106.5 36.5t-37.5 106.5z" />
    <glyph glyph-name="radical" unicode="&#x221a;" horiz-adv-x="1296" 
d="M391 936l350 -698l381 1202l119 -41l-448 -1399h-142l-354 700l-191 -98l-73 143z" />
    <glyph glyph-name="infinity" unicode="&#x221e;" horiz-adv-x="1677" 
d="M291 612q0 -89 51 -138.5t131 -49.5q81 0 174 96l88 92l-88 93q-88 98 -174 98q-80 0 -131 -50t-51 -141zM840 512l-92 -94q-74 -74 -142.5 -111t-154.5 -37q-136 0 -228 93.5t-92 248.5q0 157 92 250.5t228 93.5q88 0 157 -36.5t140 -110.5l90 -92l92 92
q74 74 141.5 110.5t155.5 36.5q136 0 227.5 -93.5t91.5 -250.5q0 -156 -91.5 -249t-227.5 -93q-87 0 -153.5 36t-143.5 112zM1384 612q0 91 -50.5 141t-131.5 50q-47 0 -87.5 -24.5t-86.5 -73.5l-86 -93l86 -92q47 -48 87 -72t87 -24q81 0 131.5 49t50.5 139z" />
    <glyph glyph-name="integral" unicode="&#x222b;" horiz-adv-x="948" 
d="M367 -61v1196q0 150 80 245t233 95q136 0 252 -78l-39 -185q-84 74 -164 74q-149 0 -149 -164v-1185q0 -151 -80.5 -247t-233.5 -96q-69 0 -139.5 23t-112.5 53l41 178q78 -65 164 -65q148 0 148 156z" />
    <glyph glyph-name="approxequal" unicode="&#x2248;" horiz-adv-x="1308" 
d="M1090 995l55 -129q-49 -69 -108.5 -98t-137.5 -29q-67 0 -159 30.5t-179.5 60.5t-144.5 30q-131 0 -197 -86l-53 135q83 123 240 123q56 0 129.5 -19t131 -41.5t121.5 -41.5t105 -19q124 0 197 84zM1087 440l56 -129q-49 -70 -108.5 -99.5t-135.5 -29.5q-54 0 -124 19
t-126.5 41.5t-123 41.5t-113.5 19q-129 0 -195 -86l-53 135q83 123 242 123q70 0 165.5 -30.5t182.5 -60.5t137 -30q124 0 196 86z" />
    <glyph glyph-name="notequal" unicode="&#x2260;" horiz-adv-x="1267" 
d="M352 82l60 166h-258v170h319l148 403h-467v170h528l82 228l129 -43l-68 -185h285v-170h-346l-146 -403h492v-170h-553l-76 -209z" />
    <glyph glyph-name="lessequal" unicode="&#x2264;" horiz-adv-x="1308" 
d="M166 307h956v-170h-956v170zM166 764v168l942 348h16v-160l-762 -270l762 -268v-160h-16z" />
    <glyph glyph-name="greaterequal" unicode="&#x2265;" horiz-adv-x="1306" 
d="M184 307h957v-170h-957v170zM1141 932v-168l-940 -342h-17v160l760 268l-760 270v160h17z" />
    <glyph glyph-name="lozenge" unicode="&#x25ca;" horiz-adv-x="1177" 
d="M1092 678l-435 -678h-139l-432 678l432 715h139zM909 676l-321 528l-320 -528l320 -496z" />
    <glyph glyph-name="commaaccent" unicode="&#xf6c3;" horiz-adv-x="1228" 
d="M545 -500l49 138q-52 7 -80.5 37t-28.5 73q0 57 34.5 89t90.5 32q68 0 106 -35.5t38 -101.5q0 -64 -29 -136.5t-74 -134.5z" />
    <glyph glyph-name="uniF8FF" unicode="&#xf8ff;" horiz-adv-x="1429" 
d="M190 1475h1049v-1475h-1049v1475zM633 580h98q0 45 20.5 83.5t51.5 63.5t67.5 53t67.5 53.5t51.5 64.5t20.5 85q0 104 -75 174t-208 70q-65 0 -115 -20.5t-79 -51t-47.5 -70t-24.5 -73t-6 -64.5h96q0 82 43.5 136.5t132.5 54.5q83 0 130.5 -44.5t47.5 -111.5
q0 -39 -28 -74.5t-68 -65t-80 -63.5t-68 -85.5t-28 -114.5zM610 397v-145h140v145h-140z" />
    <glyph glyph-name="fi" unicode="&#xfb01;" horiz-adv-x="1533" 
d="M872 844h-362v-844h-213v844h-211v170h211v88q0 80 20.5 146t62 117.5t110.5 80.5t159 29q82 0 154.5 -25t120.5 -59l-54 -181q-93 76 -198 76q-162 0 -162 -184v-88h362v-170zM1116 1376q0 115 131 115q127 0 127 -115q0 -116 -127 -116q-131 0 -131 116zM1139 0v1071
h213v-1071h-213z" />
    <glyph glyph-name="fl" unicode="&#xfb02;" horiz-adv-x="1615" 
d="M872 844h-362v-844h-213v844h-211v170h211v88q0 80 20.5 146t62 117.5t110.5 80.5t159 29q82 0 154.5 -25t120.5 -59l-54 -181q-93 76 -198 76q-162 0 -162 -184v-88h362v-170zM1126 1454h213v-1159q0 -66 28 -99.5t79 -33.5q62 0 125 37l16 -170q-100 -49 -219 -49
q-242 0 -242 266v1208z" />
    <glyph glyph-name="commaaccent.alt" horiz-adv-x="1228" 
d="M680 1556l-49 -137q54 -7 82 -37t28 -73q0 -57 -34.5 -89t-90.5 -32q-69 0 -106 36t-37 101q0 64 28 137.5t72 132.5z" />
    <glyph glyph-name="zero.tf" horiz-adv-x="1228" 
d="M78 694q0 218 57 377t178 250.5t297 91.5q136 0 239.5 -52t168.5 -147.5t98 -226t33 -293.5q0 -161 -33 -290.5t-98 -225t-168.5 -147t-239.5 -51.5q-176 0 -297 91t-178 249t-57 374zM285 694q0 -90 10 -165t34 -141t61 -112t93 -72t127 -26q330 0 330 516
q0 523 -330 523q-71 0 -127 -26.5t-93 -73t-61 -113.5t-34 -143t-10 -167z" />
    <glyph glyph-name="one.tf" horiz-adv-x="1228" 
d="M1159 0h-1009v186h450v973l-391 -182l-72 172l514 244h162v-1207h346v-186z" />
    <glyph glyph-name="two.tf" horiz-adv-x="1228" 
d="M127 0v162l532 428q109 90 158 173.5t49 184.5q0 117 -68 193t-198 76q-149 0 -227.5 -88.5t-81.5 -235.5l-193 35q5 222 137.5 353.5t366.5 131.5q121 0 215 -34t151.5 -95t87 -141.5t29.5 -177.5q0 -142 -58 -258.5t-200 -225.5l-378 -295h675v-186h-997z" />
    <glyph glyph-name="three.tf" horiz-adv-x="1228" 
d="M268 809h330q130 0 199 59.5t69 149.5q0 102 -85.5 156.5t-227.5 54.5q-120 0 -230.5 -29.5t-177.5 -62.5l-53 182q81 36 205.5 65t251.5 29q257 0 395.5 -97t138.5 -278q0 -113 -73 -200.5t-195 -110.5q149 -29 233.5 -117t84.5 -231q0 -186 -154 -292.5t-430 -106.5
q-219 0 -459 90l55 182q191 -90 404 -90q163 0 263.5 66.5t100.5 181.5q0 105 -79 160t-236 55h-330v184z" />
    <glyph glyph-name="four.tf" horiz-adv-x="1228" 
d="M1145 289h-168v-289h-213v289h-719v139l651 965h281v-926h168v-178zM272 467h492v709z" />
    <glyph glyph-name="five.tf" horiz-adv-x="1228" 
d="M178 680l-10 10l57 703h848v-187h-670l-26 -366h192q258 0 402.5 -95.5t144.5 -295.5q0 -96 -28.5 -174.5t-79.5 -132.5t-122 -91t-154 -54t-179 -17q-244 0 -461 96l58 180q68 -36 170 -65t223 -29q72 0 134.5 16t113 48.5t79.5 88.5t29 129q0 236 -342 236h-379z" />
    <glyph glyph-name="six.tf" horiz-adv-x="1228" 
d="M686 1231q-182 0 -275 -128.5t-102 -352.5q155 178 379 178q215 0 334 -120.5t119 -334.5q0 -220 -136 -356.5t-346 -136.5q-267 0 -415 194.5t-148 523.5q0 213 64.5 373t194 251t309.5 91q132 0 246 -37.5t177 -83.5l-63 -174q-57 44 -148 78.5t-190 34.5zM651 752
q-57 0 -110.5 -19.5t-96 -51.5t-72.5 -62t-55 -64q24 -177 108 -278t224 -101q124 0 202.5 84.5t78.5 212.5q0 136 -75.5 207.5t-203.5 71.5z" />
    <glyph glyph-name="seven.tf" horiz-adv-x="1228" 
d="M303 20l580 1186h-762v187h999v-154l-581 -1239h-236v20z" />
    <glyph glyph-name="eight.tf" horiz-adv-x="1228" 
d="M614 -20q-249 0 -389.5 107t-140.5 292q0 292 289 348q-114 20 -180 108t-66 203q0 180 127.5 277.5t359.5 97.5q231 0 358.5 -97t127.5 -278q0 -115 -64.5 -203t-177.5 -108q287 -56 287 -348q0 -185 -141 -292t-390 -107zM616 623q-158 0 -236.5 -60t-78.5 -162
q0 -111 86.5 -175t226.5 -64t227 64t87 175q0 102 -77 162t-235 60zM614 1235q-128 0 -201 -52.5t-73 -154.5q0 -91 67 -149t209 -58q139 0 206 58t67 149q0 102 -73.5 154.5t-201.5 52.5z" />
    <glyph glyph-name="nine.tf" horiz-adv-x="1228" 
d="M541 162q122 0 205.5 62t123.5 167.5t45 251.5q-151 -178 -376 -178q-216 0 -334.5 120t-118.5 335q0 221 135 357t346 136q267 0 415 -194.5t148 -524.5q0 -213 -64.5 -373t-193 -250.5t-307.5 -90.5q-133 0 -248 37.5t-178 82.5l62 174q60 -44 150.5 -78t189.5 -34z
M578 639q57 0 110 19.5t95 51.5t71 63t53 65q-26 174 -110.5 276.5t-218.5 102.5q-121 0 -201 -85t-80 -212q0 -136 77 -208.5t204 -72.5z" />
    <glyph glyph-name="Euro.tf" horiz-adv-x="1228" 
d="M1141 1247l-76 -160q-136 130 -303 130q-134 0 -224.5 -84.5t-121.5 -253.5h553l-62 -134h-506v-51q0 -50 2 -73h451l-53 -134h-381q33 -156 120 -233.5t216 -77.5q165 0 317 113l80 -176q-178 -133 -412 -133q-216 0 -358 131t-184 376h-115v134h100q-2 23 -2 73v51h-98
v134h111q39 258 183 396t367 138q124 0 218 -43.5t178 -122.5z" />
    <glyph glyph-name="cent.tf" horiz-adv-x="1228" 
d="M106 537q0 160 72.5 288t204 201.5t297.5 73.5q24 0 78 -4l61 221l129 -35l-59 -217q108 -37 194 -113l-106 -157q-63 59 -141 84l-197 -709q16 -2 49 -2q172 0 289 108l106 -157q-164 -148 -403 -148q-48 0 -94 6l-70 -256l-129 35l70 254q-162 60 -256.5 201.5
t-94.5 325.5zM324 537q0 -112 50 -198.5t138 -131.5l193 696h-17q-162 0 -263 -102.5t-101 -263.5z" />
    <glyph glyph-name="sterling.tf" horiz-adv-x="1228" 
d="M940 643h-414q39 -226 29 -332q19 -11 76 -54t105 -69t87 -26q90 0 124.5 71.5t31.5 215.5h170q13 -217 -57.5 -343t-229.5 -126q-46 0 -98.5 22t-88 47.5t-87.5 66t-76 56.5q-38 -93 -95 -142.5t-155 -49.5q-94 0 -145 57t-51 149q0 90 57 146.5t149 56.5q61 0 105 -22
q2 90 -47 276h-203v135h172q-27 125 -27 234q0 178 107 289.5t313 111.5q69 0 137.5 -18t121.5 -47t90.5 -55t62.5 -50l-70 -180q-68 68 -107 94q-90 60 -196 60q-120 0 -183 -69.5t-63 -184.5q0 -78 17 -185h438v-135zM293 266q-42 0 -69 -23t-27 -61q0 -34 16.5 -56
t52.5 -22q82 0 101 140q-29 22 -74 22z" />
    <glyph glyph-name="florin.tf" horiz-adv-x="1228" 
d="M1022 643h-299v-706q0 -151 -80 -247t-233 -96q-70 0 -141.5 23.5t-110.5 54.5l39 178q80 -67 163 -67q150 0 150 158v702h-299v135h299v357q0 151 79 245.5t232 94.5q147 0 252 -78l-37 -185q-88 74 -166 74q-147 0 -147 -162v-346h299v-135z" />
    <glyph glyph-name="yen.tf" horiz-adv-x="1228" 
d="M1049 276h-332v-276h-213v276h-332v134h332v129h-332v133h277l-377 704v17h221l317 -650l326 650h221v-17l-385 -704h277v-133h-332v-129h332v-134z" />
    <glyph glyph-name="dollar.tf" horiz-adv-x="1228" 
d="M551 -264v244q-130 6 -252 42t-193 78l52 203q74 -47 178 -83.5t215 -43.5v436l-152 39q-153 38 -234 128.5t-81 226.5q0 160 119 271.5t348 129.5v168h133v-166q123 -6 240.5 -37t195.5 -72l-63 -200q-66 41 -168.5 72t-204.5 40v-415l84 -23q192 -53 284.5 -139
t92.5 -229q0 -173 -126 -285.5t-335 -134.5v-250h-133zM303 1022q0 -68 47 -109t142 -65l59 -17v379q-124 -13 -186 -64t-62 -124zM924 389q0 69 -60 113.5t-180 75.5v-396q111 15 175.5 70.5t64.5 136.5z" />
    <glyph glyph-name="zero.denom" horiz-adv-x="753" 
d="M84 336q0 161 74.5 254.5t218.5 93.5q145 0 219 -93t74 -255q0 -161 -74 -253.5t-219 -92.5q-144 0 -218.5 93t-74.5 253zM203 336q0 -105 41 -168.5t133 -63.5q91 0 131.5 63.5t40.5 168.5q0 106 -40.5 170.5t-131.5 64.5q-92 0 -133 -64.5t-41 -170.5z" />
    <glyph glyph-name="one.denom" horiz-adv-x="542" 
d="M35 520l291 152h94v-672h-125v532l-211 -104z" />
    <glyph glyph-name="two.denom" horiz-adv-x="690" 
d="M94 0v94l266 201q103 76 103 160q0 50 -32.5 83t-92.5 33q-71 0 -109.5 -40t-38.5 -107l-112 20q2 110 70.5 175t191.5 65t186.5 -61.5t63.5 -165.5q0 -132 -144 -236l-155 -112h319v-109h-516z" />
    <glyph glyph-name="three.denom" horiz-adv-x="677" 
d="M160 397h164q58 0 90 25.5t32 64.5q0 88 -141 88q-109 0 -196 -40l-29 106q110 43 225 43q128 0 197 -47.5t69 -136.5q0 -54 -32.5 -96t-89.5 -52q69 -15 107 -57.5t38 -110.5q0 -90 -75.5 -142t-213.5 -52q-94 0 -227 43l33 102q92 -39 194 -39q72 0 117 29t45 78
q0 90 -143 90h-164v104z" />
    <glyph glyph-name="four.denom" horiz-adv-x="739" 
d="M682 131h-127v-131h-123v131h-381v84l340 457h164v-447h127v-94zM178 225h254v344z" />
    <glyph glyph-name="five.denom" horiz-adv-x="671" 
d="M113 317l-9 5l31 350h434v-107h-329l-13 -155h84q133 0 206 -47t73 -144q0 -114 -79 -171.5t-208 -57.5q-123 0 -235 45l32 102q102 -41 195 -41q73 0 121.5 30t48.5 89q0 102 -160 102h-192z" />
    <glyph glyph-name="six.denom" horiz-adv-x="729" 
d="M406 578q-98 0 -148 -60t-53 -164q81 90 201 90t183.5 -56t63.5 -159q0 -108 -73.5 -173.5t-190.5 -65.5q-145 0 -226 94.5t-81 253.5q0 158 81 252t228 94q71 0 134 -17.5t100 -37.5l-35 -103q-84 52 -184 52zM387 350q-94 0 -176 -82q14 -77 59 -121.5t119 -44.5
q63 0 103 36.5t40 90.5q0 59 -39.5 90t-105.5 31z" />
    <glyph glyph-name="seven.denom" horiz-adv-x="595" 
d="M137 10l279 555h-361v107h498v-86l-283 -586h-133v10z" />
    <glyph glyph-name="eight.denom" horiz-adv-x="733" 
d="M367 -10q-135 0 -210 52t-75 142q0 68 41.5 111t118.5 57q-62 10 -99 52t-37 96q0 89 68 136.5t193 47.5t192.5 -47.5t67.5 -136.5q0 -54 -37 -96t-98 -52q77 -14 118 -56.5t41 -111.5q0 -90 -75 -142t-209 -52zM367 305q-80 0 -120 -28.5t-40 -73.5q0 -50 45 -81.5
t115 -31.5t114.5 31.5t44.5 81.5q0 45 -40 73.5t-119 28.5zM367 584q-63 0 -101.5 -26t-38.5 -71q0 -40 35.5 -68t104.5 -28t103 27.5t34 68.5q0 45 -37 71t-100 26z" />
    <glyph glyph-name="nine.denom" horiz-adv-x="731" 
d="M326 96q96 0 144.5 59t53.5 162q-83 -88 -200 -88q-120 0 -184 56t-64 159q0 106 74.5 173t189.5 67q145 0 226 -94.5t81 -253.5q0 -158 -81 -252t-228 -94q-130 0 -232 55l35 102q78 -51 185 -51zM340 324q101 0 178 77q-13 78 -58 124t-120 46q-62 0 -101.5 -36.5
t-39.5 -90.5q0 -59 38.5 -89.5t102.5 -30.5z" />
    <glyph glyph-name="zero.num" horiz-adv-x="753" 
d="M84 1055q0 161 74.5 254.5t218.5 93.5q145 0 220 -93t75 -255q0 -160 -75 -253t-220 -93q-144 0 -218.5 93t-74.5 253zM205 1055q0 -232 172 -232q174 0 174 232q0 106 -41 170.5t-133 64.5q-91 0 -131.5 -64.5t-40.5 -170.5z" />
    <glyph glyph-name="one.num" horiz-adv-x="542" 
d="M35 1241l289 152h94v-672h-123v532l-211 -106z" />
    <glyph glyph-name="two.num" horiz-adv-x="690" 
d="M96 719v94l266 201q103 76 103 160q0 50 -32.5 83t-92.5 33q-73 0 -110 -40t-37 -107l-115 20q3 109 72 174.5t190 65.5q123 0 187.5 -62.5t64.5 -164.5q0 -61 -36 -122.5t-107 -113.5l-158 -113h319v-108h-514z" />
    <glyph glyph-name="three.num" horiz-adv-x="677" 
d="M160 1116h164q58 0 90 25.5t32 64.5q0 88 -141 88q-109 0 -199 -41l-26 107q110 43 225 43q128 0 197 -48.5t69 -137.5q0 -53 -33.5 -94.5t-91.5 -53.5q70 -14 109 -56t39 -110q0 -90 -76 -142t-213 -52q-107 0 -227 41l33 104q92 -39 194 -39q72 0 117 28.5t45 78.5
q0 90 -143 90h-164v104z" />
    <glyph glyph-name="four.num" horiz-adv-x="739" 
d="M682 852h-127v-131h-123v131h-381v84l340 457h164v-447h127v-94zM178 946h254v344z" />
    <glyph glyph-name="five.num" horiz-adv-x="671" 
d="M113 1036l-7 6l31 351h432v-107h-327l-13 -156h84q132 0 205.5 -46.5t73.5 -143.5q0 -115 -79.5 -172t-209.5 -57q-121 0 -233 45l32 102q89 -43 193 -43q75 0 123.5 30t48.5 91q0 100 -162 100h-192z" />
    <glyph glyph-name="six.num" horiz-adv-x="733" 
d="M408 1296q-98 0 -148 -60t-53 -163q81 90 201 90t183.5 -56t63.5 -159q0 -108 -73.5 -173.5t-190.5 -65.5q-145 0 -226 94.5t-81 253.5q0 157 81.5 251.5t227.5 94.5q71 0 134 -17.5t100 -37.5l-35 -103q-82 51 -184 51zM389 1069q-94 0 -176 -82q14 -77 59 -121.5
t119 -44.5q63 0 103.5 36.5t40.5 90.5q0 59 -40 90t-106 31z" />
    <glyph glyph-name="seven.num" horiz-adv-x="598" 
d="M137 731l279 555h-361v107h498v-88l-281 -584h-135v10z" />
    <glyph glyph-name="eight.num" horiz-adv-x="735" 
d="M369 709q-135 0 -210 52t-75 142q0 68 41 111t117 57q-60 10 -96.5 52t-36.5 94q0 89 67 137.5t193 48.5q125 0 192.5 -48.5t67.5 -137.5q0 -53 -37 -94.5t-98 -51.5q76 -14 116.5 -57t40.5 -111q0 -90 -74 -142t-208 -52zM369 1024q-80 0 -120 -28.5t-40 -73.5
q0 -51 44.5 -82t115.5 -31q69 0 113 31t44 82q0 46 -39 74t-118 28zM369 1303q-63 0 -101.5 -26t-38.5 -71q0 -40 35.5 -68t104.5 -28t103 27.5t34 68.5q0 45 -37 71t-100 26z" />
    <glyph glyph-name="nine.num" horiz-adv-x="731" 
d="M326 815q95 0 144 58.5t54 160.5q-82 -86 -200 -86t-183 56t-65 157q0 108 75 175t191 67q144 0 224.5 -94.5t80.5 -253.5q0 -158 -81 -252t-226 -94q-74 0 -137 17t-97 38l37 102q28 -20 78.5 -35.5t104.5 -15.5zM340 1042q100 0 178 78q-13 78 -57.5 124t-118.5 46
q-63 0 -102 -37t-39 -92q0 -58 37.5 -88.5t101.5 -30.5z" />
    <glyph glyph-name="parenleft.case" horiz-adv-x="630" 
d="M551 1556q-42 -60 -80.5 -135.5t-79.5 -183.5t-65.5 -249t-24.5 -290q0 -148 24.5 -288t65.5 -248.5t79.5 -184.5t80.5 -137l-125 -71q-37 37 -76 93t-82.5 144t-77.5 188t-56.5 233.5t-22.5 272.5t22.5 271.5t56 232.5t77.5 188t83 144t76 94z" />
    <glyph glyph-name="parenright.case" horiz-adv-x="630" 
d="M80 1556l125 74q36 -38 74.5 -93.5t83 -144t78.5 -188t56.5 -233t22.5 -271.5q0 -172 -33 -332.5t-84.5 -276.5t-101 -194.5t-96.5 -127.5l-125 71q42 60 81.5 137t79.5 185t64.5 248t24.5 288q0 149 -24.5 290t-64.5 248.5t-79.5 184t-81.5 135.5z" />
    <glyph glyph-name="hyphen.case" horiz-adv-x="1103" 
d="M158 786h788v-170h-788v170z" />
    <glyph glyph-name="bracketleft.case" horiz-adv-x="716" 
d="M629 -221h-445v1839h445v-170h-273v-1499h273v-170z" />
    <glyph glyph-name="bracketright.case" horiz-adv-x="714" 
d="M88 1618h442v-1839h-442v170h272v1499h-272v170z" />
    <glyph glyph-name="braceleft.case" horiz-adv-x="671" 
d="M565 1618v-154h-71q-68 0 -105 -37t-37 -92q0 -49 29 -130t58.5 -169t29.5 -155q0 -81 -38.5 -126.5t-123.5 -62.5q86 -17 124 -62.5t38 -129.5q0 -52 -18.5 -118.5t-40 -119.5t-40 -113t-18.5 -100q0 -57 37 -94t105 -37h71v-154h-92q-148 0 -219.5 66t-71.5 180
q0 63 29 147.5t58.5 172t29.5 157.5q0 74 -49.5 108t-157.5 34v131q107 0 157 36.5t50 110.5q0 55 -18.5 122t-40 120t-40 117t-18.5 114q0 109 72 173.5t219 64.5h92z" />
    <glyph glyph-name="bar.case" horiz-adv-x="540" 
d="M184 -221v1839h172v-1839h-172z" />
    <glyph glyph-name="braceright.case" horiz-adv-x="671" 
d="M106 1618h93q146 0 219.5 -65t73.5 -173q0 -50 -18.5 -114t-41 -117t-41 -120t-18.5 -122q0 -75 49 -111t158 -36v-131q-109 0 -158 -34t-49 -108q0 -55 18.5 -123t41 -121t41 -117.5t18.5 -115.5q0 -114 -73 -180t-220 -66h-93v154h72q68 0 106 37t38 94q0 40 -18.5 100
t-41 113t-41 119.5t-18.5 118.5q0 84 38.5 129.5t125.5 62.5q-87 17 -125.5 62.5t-38.5 126.5q0 53 18.5 120.5t41 120.5t41 113t18.5 100q0 55 -38 92t-106 37h-72v154z" />
    <glyph glyph-name="guilsinglleft.case" horiz-adv-x="655" 
d="M109 678v45l329 412h17l77 -48l-241 -387l241 -385l-77 -49h-17z" />
    <glyph glyph-name="guilsinglright.case" horiz-adv-x="655" 
d="M547 723v-45l-328 -412h-18l-76 47l240 387l-242 385l78 50h18z" />
    <glyph glyph-name="guillemotleft.case" horiz-adv-x="1105" 
d="M109 678v45l329 412h17l77 -48l-241 -387l241 -385l-77 -49h-17zM559 678v45l328 412h16l78 -48l-242 -387l242 -385l-78 -49h-16z" />
    <glyph glyph-name="guillemotright.case" horiz-adv-x="1103" 
d="M547 723v-45l-328 -412h-18l-76 47l240 387l-242 385l78 50h18zM995 723v-45l-327 -412h-17l-76 47l240 387l-242 385l78 50h17z" />
    <glyph glyph-name="endash.case" horiz-adv-x="1296" 
d="M158 786h983v-170h-983v170z" />
    <glyph glyph-name="emdash.case" horiz-adv-x="1787" 
d="M158 786h1472v-170h-1472v170z" />
    <glyph glyph-name="bullet.case" horiz-adv-x="806" 
d="M193 700q0 104 54 161t152 57q101 0 157 -57t56 -161q0 -105 -55.5 -161t-157.5 -56q-99 0 -152.5 56t-53.5 161z" />
    <glyph glyph-name="periodcentered.case" horiz-adv-x="583" 
d="M147 690q0 69 37.5 106.5t106.5 37.5t107 -37.5t38 -106.5q0 -70 -37.5 -106.5t-107.5 -36.5q-69 0 -106.5 36.5t-37.5 106.5z" />
    <glyph glyph-name="a.alt" 
d="M115 537q0 245 142 399t372 154q103 0 191 -38.5t151 -101.5v121h213v-1071h-213v125q-134 -145 -342 -145q-230 0 -372 156t-142 401zM332 537q0 -165 96.5 -268t255.5 -103q84 0 161.5 35.5t125.5 85.5v491q-50 52 -127.5 88.5t-159.5 36.5q-159 0 -255.5 -101
t-96.5 -265z" />
    <glyph glyph-name="agrave.alt" 
d="M115 537q0 245 142 399t372 154q103 0 191 -38.5t151 -101.5v121h213v-1071h-213v125q-134 -145 -342 -145q-230 0 -372 156t-142 401zM332 537q0 -165 96.5 -268t255.5 -103q84 0 161.5 35.5t125.5 85.5v491q-50 52 -127.5 88.5t-159.5 36.5q-159 0 -255.5 -101
t-96.5 -265zM633 1221l-197 297h215l166 -297h-184z" />
    <glyph glyph-name="aacute.alt" 
d="M115 537q0 245 142 399t372 154q103 0 191 -38.5t151 -101.5v121h213v-1071h-213v125q-134 -145 -342 -145q-230 0 -372 156t-142 401zM332 537q0 -165 96.5 -268t255.5 -103q84 0 161.5 35.5t125.5 85.5v491q-50 52 -127.5 88.5t-159.5 36.5q-159 0 -255.5 -101
t-96.5 -265zM991 1518l-196 -297h-185l166 297h215z" />
    <glyph glyph-name="acircumflex.alt" 
d="M115 537q0 245 142 399t372 154q103 0 191 -38.5t151 -101.5v121h213v-1071h-213v125q-134 -145 -342 -145q-230 0 -372 156t-142 401zM332 537q0 -165 96.5 -268t255.5 -103q84 0 161.5 35.5t125.5 85.5v491q-50 52 -127.5 88.5t-159.5 36.5q-159 0 -255.5 -101
t-96.5 -265zM862 1221l-155 188l-156 -188h-168l217 297h211l217 -297h-166z" />
    <glyph glyph-name="atilde.alt" 
d="M115 537q0 245 142 399t372 154q103 0 191 -38.5t151 -101.5v121h213v-1071h-213v125q-134 -145 -342 -145q-230 0 -372 156t-142 401zM332 537q0 -165 96.5 -268t255.5 -103q84 0 161.5 35.5t125.5 85.5v491q-50 52 -127.5 88.5t-159.5 36.5q-159 0 -255.5 -101
t-96.5 -265zM420 1255l-70 88q32 65 89 110.5t124 45.5q42 0 88 -20t78.5 -44.5t70.5 -44.5t66 -20q93 0 142 96l69 -86q-35 -72 -90 -115.5t-121 -43.5q-40 0 -85.5 20.5t-79 45t-71.5 45t-65 20.5q-87 0 -145 -97z" />
    <glyph glyph-name="adieresis.alt" 
d="M115 537q0 245 142 399t372 154q103 0 191 -38.5t151 -101.5v121h213v-1071h-213v125q-134 -145 -342 -145q-230 0 -372 156t-142 401zM332 537q0 -165 96.5 -268t255.5 -103q84 0 161.5 35.5t125.5 85.5v491q-50 52 -127.5 88.5t-159.5 36.5q-159 0 -255.5 -101
t-96.5 -265zM340 1372q0 111 123 111t123 -111q0 -110 -123 -110t-123 110zM856 1372q0 111 125 111q121 0 121 -111q0 -110 -121 -110q-125 0 -125 110z" />
    <glyph glyph-name="amacron.alt" 
d="M115 537q0 245 142 399t372 154q103 0 191 -38.5t151 -101.5v121h213v-1071h-213v125q-134 -145 -342 -145q-230 0 -372 156t-142 401zM332 537q0 -165 96.5 -268t255.5 -103q84 0 161.5 35.5t125.5 85.5v491q-50 52 -127.5 88.5t-159.5 36.5q-159 0 -255.5 -101
t-96.5 -265zM971 1276h-506v149h506v-149z" />
    <glyph glyph-name="abreve.alt" 
d="M115 537q0 245 142 399t372 154q103 0 191 -38.5t151 -101.5v121h213v-1071h-213v125q-134 -145 -342 -145q-230 0 -372 156t-142 401zM332 537q0 -165 96.5 -268t255.5 -103q84 0 161.5 35.5t125.5 85.5v491q-50 52 -127.5 88.5t-159.5 36.5q-159 0 -255.5 -101
t-96.5 -265zM432 1393l60 86q82 -103 227 -103q77 0 134 30t89 73l62 -86q-39 -68 -110.5 -115t-172.5 -47t-174.5 47t-114.5 115z" />
    <glyph glyph-name="aring.alt" 
d="M115 537q0 245 142 399t372 154q103 0 191 -38.5t151 -101.5v121h213v-1071h-213v125q-134 -145 -342 -145q-230 0 -372 156t-142 401zM332 537q0 -165 96.5 -268t255.5 -103q84 0 161.5 35.5t125.5 85.5v491q-50 52 -127.5 88.5t-159.5 36.5q-159 0 -255.5 -101
t-96.5 -265zM518 1372q0 83 59 142t142 59t142 -59t59 -142t-59 -142t-142 -59t-142 59t-59 142zM612 1372q0 -44 31.5 -75t75.5 -31q43 0 73.5 31t30.5 75q0 43 -30.5 74t-73.5 31q-44 0 -75.5 -31t-31.5 -74z" />
    <glyph glyph-name="aringacute.alt" 
d="M889 1710l-119 -160h-139l98 160h160zM504 1341q0 80 57 125t144 45t143.5 -45t56.5 -125t-56.5 -123.5t-143.5 -43.5t-144 43.5t-57 123.5zM598 1341q0 -79 107 -79q106 0 106 79q0 42 -29.5 61t-76.5 19q-107 0 -107 -80zM115 537q0 245 142 399t372 154
q103 0 191 -38.5t151 -101.5v121h213v-1071h-213v125q-134 -145 -342 -145q-230 0 -372 156t-142 401zM332 537q0 -165 96.5 -268t255.5 -103q84 0 161.5 35.5t125.5 85.5v491q-50 52 -127.5 88.5t-159.5 36.5q-159 0 -255.5 -101t-96.5 -265z" />
    <glyph glyph-name="aogonek.alt" 
d="M115 537q0 245 142 399t372 154q103 0 191 -38.5t151 -101.5v121h213v-1071h-29q-84 -3 -138 -43t-54 -107q0 -54 31 -83t85 -29q55 0 115 37l23 -101q-73 -41 -166 -41q-87 0 -141 51.5t-54 139.5q0 59 33 104.5t82 71.5v125q-134 -145 -342 -145q-230 0 -372 156
t-142 401zM332 537q0 -165 96.5 -268t255.5 -103q84 0 161.5 35.5t125.5 85.5v491q-50 52 -127.5 88.5t-159.5 36.5q-159 0 -255.5 -101t-96.5 -265z" />
    <glyph glyph-name="g.alt" horiz-adv-x="1329" 
d="M102 608q0 210 131.5 346t360.5 136q101 0 192 -34.5t150 -88.5v104h213v-909q0 -138 -43 -248.5t-116 -179t-164 -104.5t-191 -36q-164 0 -258 75t-94 206q0 98 60.5 174.5t176.5 100.5q-89 10 -163 41.5t-132 86.5t-90.5 139t-32.5 191zM319 608q0 -79 29 -139
t78.5 -94t106.5 -50t120 -16h283v479q-50 47 -126.5 81t-156.5 34q-157 0 -245.5 -83.5t-88.5 -211.5zM643 -223q123 0 208 87t85 220v47h-107q-161 0 -258.5 -53.5t-97.5 -151.5q0 -70 47 -109.5t123 -39.5z" />
    <glyph glyph-name="y.alt" horiz-adv-x="1204" 
d="M49 1071h227l347 -842l333 842h215l-436 -1077q-88 -224 -176 -312t-235 -88q-128 0 -198.5 67t-70.5 179q0 139 105.5 221.5t302.5 92.5zM518 -12l10 28q-295 0 -295 -149q0 -41 24.5 -65.5t72.5 -24.5q63 0 105.5 50t82.5 161z" />
    <glyph glyph-name="gcircumflex.alt" horiz-adv-x="1339" 
d="M102 608q0 210 131.5 346t360.5 136q101 0 192 -34.5t150 -88.5v104h213v-909q0 -138 -43 -248.5t-116 -179t-164 -104.5t-191 -36q-164 0 -258 75t-94 206q0 98 60.5 174.5t176.5 100.5q-89 10 -163 41.5t-132 86.5t-90.5 139t-32.5 191zM319 608q0 -79 29 -139
t78.5 -94t106.5 -50t120 -16h283v479q-50 47 -126.5 81t-156.5 34q-157 0 -245.5 -83.5t-88.5 -211.5zM643 -223q123 0 208 87t85 220v47h-107q-161 0 -258.5 -53.5t-97.5 -151.5q0 -70 47 -109.5t123 -39.5zM850 1221l-156 188l-155 -188h-168l217 297h211l217 -297h-166z
" />
    <glyph glyph-name="gbreve.alt" horiz-adv-x="1339" 
d="M410 1393l59 86q82 -103 227 -103q77 0 135 30t89 73l61 -86q-39 -68 -110.5 -115t-172.5 -47t-174 47t-114 115zM102 608q0 210 131.5 346t360.5 136q101 0 192 -34.5t150 -88.5v104h213v-909q0 -138 -43 -248.5t-116 -179t-164 -104.5t-191 -36q-164 0 -258 75t-94 206
q0 98 60.5 174.5t176.5 100.5q-89 10 -163 41.5t-132 86.5t-90.5 139t-32.5 191zM319 608q0 -79 29 -139t78.5 -94t106.5 -50t120 -16h283v479q-50 47 -126.5 81t-156.5 34q-157 0 -245.5 -83.5t-88.5 -211.5zM643 -223q123 0 208 87t85 220v47h-107q-161 0 -258.5 -53.5
t-97.5 -151.5q0 -70 47 -109.5t123 -39.5z" />
    <glyph glyph-name="gdotaccent.alt" horiz-adv-x="1339" 
d="M102 608q0 210 131.5 346t360.5 136q101 0 192 -34.5t150 -88.5v104h213v-909q0 -138 -43 -248.5t-116 -179t-164 -104.5t-191 -36q-164 0 -258 75t-94 206q0 98 60.5 174.5t176.5 100.5q-89 10 -163 41.5t-132 86.5t-90.5 139t-32.5 191zM319 608q0 -79 29 -139
t78.5 -94t106.5 -50t120 -16h283v479q-50 47 -126.5 81t-156.5 34q-157 0 -245.5 -83.5t-88.5 -211.5zM643 -223q123 0 208 87t85 220v47h-107q-161 0 -258.5 -53.5t-97.5 -151.5q0 -70 47 -109.5t123 -39.5zM580 1376q0 115 131 115q127 0 127 -115q0 -116 -127 -116
q-131 0 -131 116z" />
    <glyph glyph-name="gcommaaccent.alt" horiz-adv-x="1339" 
d="M102 608q0 210 131.5 346t360.5 136q101 0 192 -34.5t150 -88.5v104h213v-909q0 -138 -43 -248.5t-116 -179t-164 -104.5t-191 -36q-164 0 -258 75t-94 206q0 98 60.5 174.5t176.5 100.5q-89 10 -163 41.5t-132 86.5t-90.5 139t-32.5 191zM319 608q0 -79 29 -139
t78.5 -94t106.5 -50t120 -16h283v479q-50 47 -126.5 81t-156.5 34q-157 0 -245.5 -83.5t-88.5 -211.5zM643 -223q123 0 208 87t85 220v47h-107q-161 0 -258.5 -53.5t-97.5 -151.5q0 -70 47 -109.5t123 -39.5zM768 1583l-49 -137q54 -7 82 -37.5t28 -73.5q0 -57 -34.5 -89
t-89.5 -32q-69 0 -106.5 36.5t-37.5 101.5q0 64 28.5 137.5t72.5 132.5z" />
    <glyph glyph-name="yacute.alt" horiz-adv-x="1249" 
d="M922 1518l-197 -297h-184l166 297h215zM49 1071h227l347 -842l333 842h215l-436 -1077q-88 -224 -176 -312t-235 -88q-128 0 -198.5 67t-70.5 179q0 139 105.5 221.5t302.5 92.5zM518 -12l10 28q-295 0 -295 -149q0 -41 24.5 -65.5t72.5 -24.5q63 0 105.5 50t82.5 161z
" />
    <glyph glyph-name="ycircumflex.alt" horiz-adv-x="1249" 
d="M49 1071h227l347 -842l333 842h215l-436 -1077q-88 -224 -176 -312t-235 -88q-128 0 -198.5 67t-70.5 179q0 139 105.5 221.5t302.5 92.5zM518 -12l10 28q-295 0 -295 -149q0 -41 24.5 -65.5t72.5 -24.5q63 0 105.5 50t82.5 161zM795 1221l-156 188l-156 -188h-168
l217 297h211l218 -297h-166z" />
    <glyph glyph-name="ydieresis.alt" horiz-adv-x="1249" 
d="M49 1071h227l347 -842l333 842h215l-436 -1077q-88 -224 -176 -312t-235 -88q-128 0 -198.5 67t-70.5 179q0 139 105.5 221.5t302.5 92.5zM518 -12l10 28q-295 0 -295 -149q0 -41 24.5 -65.5t72.5 -24.5q63 0 105.5 50t82.5 161zM266 1372q0 111 123 111t123 -111
q0 -110 -123 -110t-123 110zM782 1372q0 111 125 111q121 0 121 -111q0 -110 -121 -110q-125 0 -125 110z" />
    <glyph glyph-name="ygrave.alt" horiz-adv-x="1249" 
d="M571 1221l-196 297h215l166 -297h-185zM49 1071h227l347 -842l333 842h215l-436 -1077q-88 -224 -176 -312t-235 -88q-128 0 -198.5 67t-70.5 179q0 139 105.5 221.5t302.5 92.5zM518 -12l10 28q-295 0 -295 -149q0 -41 24.5 -65.5t72.5 -24.5q63 0 105.5 50t82.5 161z
" />
    </font>
</defs>
</svg>
